<?xml version="1.0" encoding="UTF-8" standalone="no"?><svg xmlns="http://www.w3.org/2000/svg" xmlns:xlink="http://www.w3.org/1999/xlink" fill="#ffffff" height="389.4" preserveAspectRatio="xMidYMid meet" version="1" viewBox="133.1 305.6 732.9 389.4" width="732.9" zoomAndPan="magnify"><g id="change1_1"><path d="M539.57,646.29c-95.7-10.17-192.79-5.5-287.09,13.71c-26.94,5.49-53.62,12.2-79.97,20.04c-8.01,2.38-4.6,14.94,3.46,12.55 c91.57-27.21,187.03-40.25,282.55-38.41c27.08,0.52,54.12,2.27,81.05,5.13C547.88,660.18,547.82,647.16,539.57,646.29z"/><path d="M656.51,411.22c-1.72-3.06-5.91-4.09-8.9-2.33c-3.08,1.8-4.06,5.83-2.33,8.9c8.53,15.19,17.05,30.38,25.58,45.57 c1.72,3.06,5.91,4.09,8.9,2.33c3.08-1.8,4.06-5.83,2.33-8.9C673.56,441.6,665.04,426.41,656.51,411.22z"/><path d="M864.07,398.97c-0.55-1.11-1.37-2.16-2.23-3.04c-0.6-0.62-1.33-1.14-2.03-1.65c-0.35-0.26-0.71-0.48-1.11-0.67 c-1.84-0.89-3.36-1.29-5.4-1.46c-1.35-0.12-2.76,0.1-4.07,0.39c-0.77,0.17-1.53,0.45-2.27,0.77c-1.87,0.46-3.59,1.43-4.97,2.77 c-0.02,0.01-0.05,0.02-0.08,0.04c-2.43,1.55-3.97,3.98-4.35,6.82c-0.18,1.35-0.17,2.49,0.17,3.87c0.03,0.13,0.11,0.22,0.14,0.34 c-39.53,24.26-79.05,48.51-118.57,72.77c-18.69-40.82-37.39-81.64-56.08-122.46c1.05-0.53,2.02-1.12,3.05-1.97 c1.04-0.86,1.88-1.98,2.62-3.1c1.5-2.29,2.16-5.04,2.34-7.74c0.35-5.35-2.53-11.14-7.36-13.65c-2.74-1.43-5.78-1.99-8.7-1.67 c-0.94-0.2-1.93-0.2-2.94,0.09c-2.54,0.73-5.03,2.18-6.79,4.18c-1.8,2.04-3.25,4.47-3.84,7.16c-0.58,2.61-0.68,5.55,0.23,8.11 c0.45,1.25,0.97,2.5,1.75,3.57c0.47,0.64,0.93,1.15,1.41,1.66c-34.35,37.4-68.7,74.8-103.06,112.2 c-45.01-50.72-96.44-95.46-152.8-133.17c2.26-2.16,4.02-5.08,4.8-8.09c0.24-0.93,0.44-2.04,0.47-2.95c0.05-1.66-0.51-3.05-1.3-4.46 c-0.8-1.43-1.83-2.76-2.9-4c-4.34-4.98-11.91-8.03-18.37-5.71c-3.52,1.26-6.65,3.74-8.62,6.87c-2.33,1-4.05,3.2-4.01,5.93 c0.11,6.62,4.15,13.09,10.21,15.87c0.42,0.19,0.85,0.32,1.27,0.48c-23.22,48.26-46.44,96.52-69.67,144.78 c-44.54-26.73-89.07-53.47-133.61-80.2c0.59-1.22,1.06-2.49,1.28-3.82c1.24-7.34-1.79-14.76-8.1-18.85 c-6.06-3.92-14.92-2.97-19.95,2.23c-0.04,0.05-0.07,0.1-0.11,0.15c-1.44,0.58-2.51,1.46-3.46,2.76c-3.96,5.45-3.7,13.53-0.31,19.18 c2.01,3.35,4.92,5.65,8.5,7.11c1.62,0.66,3.34,0.97,5.08,1.04c23.75,75.76,47.49,151.51,71.24,227.27 c-7.63,1.99-4.16,14.02,3.88,12.42c144.16-28.74,292.29-36.67,438.71-23.63c39,3.47,77.83,8.52,116.44,14.98 c2.22,3.78,8.37,4.74,10.99,0.83c4.26-1.67,5.97-7.58,3.07-10.56c17.84-71.2,35.67-142.39,53.51-213.59c0,0,0.01,0,0.01,0 c2.47,0.9,5.44,0.96,7.97,0.27c1.27-0.35,2.56-0.89,3.63-1.67c1.59-1.15,2.56-2.13,3.71-3.74c0.74-1.04,1.24-2.31,1.64-3.51 c0.42-1.24,0.57-2.62,0.65-3.91C865.97,403.94,865.24,401.32,864.07,398.97z M345.05,619.08c-37.07,4.38-73.95,10.15-110.61,17.15 c-23.06-73.57-46.12-147.14-69.18-220.72c45.08,27.06,90.16,54.12,135.25,81.18c2.83,1.7,7.39,0.82,8.9-2.33 c24.14-50.17,48.28-100.34,72.42-150.52c57.62,38.48,109.92,84.45,155.47,136.69c2.24,2.57,6.94,2.46,9.2,0 c35.33-38.47,70.67-76.94,106-115.4c19.45,42.48,38.91,84.95,58.36,127.43c1.44,3.15,6.14,4.03,8.9,2.33 c37.82-23.21,75.65-46.42,113.47-69.63c-17.06,68.11-34.13,136.22-51.19,204.32C637.77,605.66,490.32,601.92,345.05,619.08z"/></g></svg>