<?xml version="1.0" encoding="UTF-8" standalone="no"?><svg xmlns="http://www.w3.org/2000/svg" xmlns:xlink="http://www.w3.org/1999/xlink" fill="#000000" height="290.2" preserveAspectRatio="xMidYMid meet" version="1" viewBox="111.2 90.2 257.7 290.2" width="257.7" zoomAndPan="magnify"><g><g id="change1_13"><path d="M273.52,320.91c-5.58-9.72-18.25-14.55-28.82-16.29c-10.4-1.71-20.77-1.56-30.92-4.91 c-10.52-3.48-20.22-9.36-28.41-16.79c-24.21-21.94-26.49-56.12-17.15-85.76c11.58-36.77,38.86-61.91,77.41-67.72 c39.85-6,86.09,21.33,95.92,61.62c4.71,19.32,1.68,40.95-6.21,59.02c-7.89,18.08-19.45,33.82-17.26,54.5 c0.11,1.06,3.08,0.94,2.98-0.05c-2.49-23.53,13.18-40.82,20.18-61.93c5.76-17.38,7.69-37.02,2.44-54.75 c-9.7-32.75-44.77-58.04-78.36-60.93c-33.63-2.9-68.95,13.56-87.06,41.94c-16.39,25.68-24.61,61.23-12.83,90.33 c7.25,17.91,22.71,31.75,40.27,39.32c8.82,3.8,17.92,5.51,27.43,6.41c13.12,1.24,30.24,3.72,37.53,16.43 C271.16,322.22,274.07,321.85,273.52,320.91L273.52,320.91z" fill="#2b7f66"/></g><g id="change1_4"><path d="M272.31,321.23c-8.05-13.26-17.88-15.87-32.69-18.75c-19.41-3.79-36.74-8.2-51.04-22 c-11.85-11.43-19.41-23.45-23.39-39.53c-1.78-7.2-3.55-14.79-2.72-22.13c1.17-10.3,4.55-21.01,8.27-30.64 c7.15-18.53,18.27-33.08,35.3-43.42c15.85-9.63,34.21-13.63,52.61-14.06c37.38-0.88,83.59,20.89,87.36,62.67 c1.73,19.15-8.59,39.16-14.57,56.79c-6.44,18.98-20.02,32.8-14.45,54.14c0.28,1.07,3.21,0.83,2.98-0.05 c-5.77-22.13,9.41-36.78,15.21-56.55c1.4-4.78,3.47-8.49,5.07-13.14c1.93-5.6,3.52-11.51,5.28-17.18c2.77-8.9,4.44-17.7,3.1-27.04 c-4.92-34.45-41.21-57.29-73.65-60.62c-30.38-3.12-66,4.06-88.02,26.69c-13.21,13.58-20.47,32.16-24.87,50.27 c-2.39,9.85-3.32,17.28-1.42,27.23c1.55,8.12,3.72,16.16,7.19,23.69c7.12,15.42,20.35,28.87,35.34,36.46 c8.47,4.29,17.7,6.44,26.96,8.24c6.73,1.31,13.63,2.28,20.23,4.21c9.68,2.83,13.97,6.81,19.05,15.18 C269.96,322.54,272.86,322.15,272.31,321.23L272.31,321.23z" fill="#2b7f66"/></g><g id="change1_11"><path d="M271.81,321.42c-10.14-9.95-22.69-14.93-36.47-17.54c-11.86-2.24-22.58-5.85-33.42-11.19 c-8.15-4.01-18.26-7.64-25.7-12.73c-30.95-21.18-20.53-63.21-6.07-91.29c17.46-33.88,50.35-52.2,88.19-51.01 c32.47,1.02,68.53,11.64,79.99,45.49c6.86,20.26,2.93,43.22-3.7,62.94c-6.47,19.25-19.18,37.47-18.54,58.25 c0.03,1.04,3.01,0.98,2.98-0.05c-0.7-22.55,14.46-43.52,20.65-64.87c5.13-17.69,7.52-37.54,1.88-55.41 c-10-31.72-40.77-43.56-71.14-46.98c-31.16-3.51-64.03,3.59-86.14,27.12c-13.41,14.26-23.6,33.07-28.35,52.07 c-3.66,14.63-5.35,32.77,1.74,46.67c8.76,17.17,25.92,22.92,42.12,30.9c9.94,4.89,20.04,8.84,30.94,10.97 c14.69,2.87,27.52,6.71,38.48,17.47C269.92,322.87,272.78,322.37,271.81,321.42L271.81,321.42z" fill="#2b7f66"/></g><g id="change1_5"><path d="M271.4,323.04c-0.03-0.03,22.63-12.07,24.89-13.02c4.47-1.87,8.89-3.42,13.56-4.67 c5.11-1.36,14.91-5.28,15.19,2.45c0.12,3.34,0.19,3.52-2.3,5.23c-1.02,0.7,1.3,1.15,1.7,1.07c3.28-0.72,13.21-3.76,11.32,4.51 c-5,4-3.61,7.68,4.18,11.05c-1.71,2.53-3.96,4.43-6.76,5.7c-1.43,0.83,1.12,1.41,1.82,1.14c-0.23,1.61-0.46,3.22-0.69,4.83 c-1.55,1.47-3.24,2.75-5.09,3.82c-2.15,1.45-4.33,2.74-6.61,3.96c-4.77,2.55-9.6,5.04-14.4,7.54c-3.77,1.96-12.39,7.83-16.31,7.09 c-0.79,0.28-1.59,0.56-2.38,0.84c-0.31-2.78-0.62-5.56-0.93-8.34c0.03,0.17,1.53-1.1,1.17-0.8c0.84-0.69-0.88-1.12-1.31-1.1 c-4.22,0.99-6.59-1.53-7.1-7.58c1.63-1.28,3.3-2.5,5.01-3.67c-0.78-0.29-1.57-0.57-2.35-0.86c-10.97,8.33-6.65-10.82-6.06-10.03 c2.04-1.4,0.83-1.63-3.61-0.67c-4.97-1.23-5.85-3.68-2.64-7.36c1.84-0.63-0.48-1.62-1.53-1.26c-4.63,1.59-5.34,5.16-1.06,8.86 c3.94,3.41,8.62,0.71,12.57-1.73c1.43-0.88-1.14-1.38-1.82-1.14c-14.21,5.02-5.09,23.03,6.74,14.04c1.03-0.78-1.74-1.26-2.35-0.86 c-3.95,2.52-10.71,6.54-6.41,11.78c2.15,2.62,2.87,1.16,5.66,2.29c3.46,1.4,2.47-0.65,2.45-0.79c-0.02-0.13-3.74,2.81-3.89,2.99 c-3.1,3.75-2,6.93,2.85,8.08c7.65,1.82,19.14-5.5,25.43-8.77c5.69-2.96,11.53-5.82,17.09-9.02c3.3-1.9,10.33-5.42,11.7-9.1 c0.7-1.88,1.58-2.59,0.09-4.17c-0.39-0.42-3.99-1.39-3.68-0.83c1.47,2.65,10-4.8,7.35-9.49c-2.88-5.09-10.18-2.19-13.73-0.3 c-1.48,0.79,1.31,1.42,2.12,1.02c6.02-2.95,12.74-12.39,2.94-15c-2.45-0.65-7.01,1.88-8.57,1.27c1.72,0.68,5.67-2.39,4.77-5.56 c-2.21-7.8-17.44-3.74-21.9-2.55c-14.24,3.79-27.51,10.84-40,18.48c-0.38,0.23-0.58,0.56-0.22,0.91c0.18,0.17,0.36,0.35,0.54,0.52 C269.51,324.48,272.37,323.98,271.4,323.04L271.4,323.04z" fill="#2b7f66"/></g><g id="change1_12"><path d="M322.84,307.03c-0.01-0.07-0.02-0.15-0.03-0.22c-0.1-0.75-1.38-0.76-1.9-0.69 c-11.24,1.66-40.03,3.21-44.36,17c-0.08,0.24-0.03,0.39,0.16,0.57c4.37,4.05,12.46,0.16,17.16-1.43 c7.15-2.42,17.03-6.1,22.35-11.51c0.23-0.24,0.26-0.53-0.01-0.75c-4.31-3.51-14.91,0.63-19.3,1.97 c-3.3,1.01-22.52,7.02-21.37,12.54c2.18,10.43,42.62-9.79,47.36-12.95c1.08-0.72-0.35-1.27-1.07-1.25 c-7.09,0.18-14.93,3.37-21.43,5.95c-5.95,2.35-13.35,4.94-18.4,8.91c-0.98,0.77,1.28,1.16,1.7,1.07 c7.25-1.57,14.25-4.29,21.25-6.72c5.07-1.76,10.85-3.03,15.31-6.13c1.13-0.78-1.66-1.1-2.06-0.98 c-10.77,3.09-27.63,9.51-34.25,19.12c-0.39,0.56,0.79,0.85,1.06,0.9c4.12,0.79,8.32-1.56,11.98-3.21 c7.76-3.51,16.22-6.84,23.21-11.74c1.16-0.81-1.7-1.07-2.06-0.98c-13.16,3.05-25.18,12.46-35.96,20.27 c-1.14,0.82,1.68,1.08,2.06,0.98c4.33-1.1,8.44-3.21,12.47-5.09c2.79-1.3,5.52-2.7,8.27-4.08c0.98-0.49,11.04-4.8,11.14-5.09 c0.61-1.74-10.32,3.73-11.5,4.42c-5.74,3.33-11.31,7.43-17.62,9.63c0.69,0.33,1.37,0.66,2.06,0.98 c7.83-7.37,17.95-11.94,25.86-19.21c1.04-0.95-1.62-1.11-2.06-0.98c-11.12,3.13-20.39,11.27-31.6,14.27 c0.73,0.27,1.47,0.54,2.2,0.8c1.26-4.56,11.83-8.8,15.55-10.98c3.85-2.26,8.05-3.96,11.63-6.63c1.13-0.84-1.68-1.08-2.06-0.98 c-11.72,2.94-21.73,10.52-33.26,14.02c0.69,0.33,1.37,0.66,2.06,0.98c8.31-7.61,20.8-10.25,30.04-16.57 c1.11-0.76-1.62-1.12-2.06-0.98c-4.15,1.35-7.95,3.29-11.93,5.06c-2.26,1.01-4.56,1.95-6.83,2.93c-0.64,0.27-8.78,4.72-7.65,4.96 c1.4,0.3,7.48-4.17,8.95-4.95c3.15-1.67,6.42-3.17,9.37-5.18c0.94-0.64-0.98-1.09-1.31-1.1c-8.08-0.26-17.31,6.05-24.4,9.27 c-1.48,0.67,1.12,1.38,1.82,1.14c2.42-0.83,9.71-2.19,10.01-5.46c0.05-0.6-1.16-0.74-1.5-0.72c-5.65,0.33-13.19,2.88-14.89,9.02 c-0.07,0.25-0.04,0.38,0.16,0.57c3.51,3.32,12.46-1.71,13.63-5.4c0.19-0.61-0.6-0.84-1.06-0.9c-4.58-0.58-11.18,2.4-10.19,7.6 c0.07,0.38,0.41,0.52,0.75,0.63c2.58,0.83,7.71,1.3,9.51-1.43c1.93-2.92-0.66-5.37-3.78-4.77c-1.84,0.36-4.5,2.05-1.5,3.88 c-0.08-0.05,16.21-10.12,18.79-11.21c6.69-2.82,13.81-5.68,20.84-7.57c-0.69-0.33-1.37-0.66-2.06-0.98 c1.78-1.36-15.16,8.56-8.59,2.91c2.07-1.78,4.29-2.55,6.82-3.42c2.5-0.86,15.39-5.22,5.39-1.26c-5.37,2.12-8.53,3.62-1.17,1.13 c0.37-0.12,8.18-2.83,7.99-1.05c-0.13,1.25-7.03,3.8-7.27,3.86c0.69,0.33,1.37,0.66,2.06,0.98c3.31-3.75,5.83-1.91,3.18,0.19 c0.91,0.18,1.82,0.35,2.73,0.53c0.68-0.63,1.36-1.25,2.04-1.88c-0.91-0.18-1.82-0.35-2.73-0.53 c-2.27,7.46-12.65,11.83-19.26,14.26c-1.82,0.67,0.49,1.64,1.53,1.26c7.17-2.64,18.17-7.14,20.61-15.17 c0.38-1.26-2.22-0.88-2.73-0.53c-1.59,1.09-1.16,0.73-2.33,2.24c-0.7,0.9,2.25,0.91,2.73,0.53c9.24-7.31-3.76-6.81-8.35-1.6 c-0.93,1.06,1.56,1.11,2.06,0.98c3-0.75,8.84-3.32,9.93-6.54c0.12-0.36-0.1-0.56-0.4-0.72c-5.35-2.91-14.8,1.59-19.01,5.06 c-0.72,0.59,0.52,1.01,0.91,1.08c4.77,0.79,10.92-3.6,14.58-6.17c0.75-0.53-0.54-1.06-0.91-1.08c-6.6-0.35-21.47,3.75-25.61,9.27 c-0.07,0.13-0.07,0.26,0.01,0.4c3.07,5,15.3-1.65,18.39-4.01c1.11-0.85-1.67-1.09-2.06-0.98c-3.93,1.05-45.59,16.06-38,22.1 c0.63,0.5,1.97,0.51,2.57-0.04c0.37-0.34,0.73-0.68,1.1-1.01c0.25-0.23,0.25-0.53-0.01-0.75c-4.32-2.66-4.43-4.19-0.34-4.59 c-0.38,0.29-0.76,0.59-1.14,0.88c-2.21,2.58-9.2,4.35-4.22-0.46c7.11-3.28,8.09-3.82,2.94-1.63c-0.54,0.19-1.09,0.38-1.63,0.57 c-2.18,2.91,2.86,0.01,4.47-0.5c3.8-1.2,7.92-3.16,11.49-4.86c2.66-1.27,3.81-1.93,0.34-0.24c-5.15,2.51-10.05,5.52-15.07,8.28 c-1.43,0.79,1.11,1.43,1.82,1.14c9.98-4.03,19.71-9.43,29.94-12.75c-0.69-0.33-1.37-0.66-2.06-0.98 c-9.24,6.32-21.73,8.97-30.04,16.57c-1.03,0.94,1.61,1.12,2.06,0.98c11.5-3.49,21.56-11.08,33.26-14.02 c-0.69-0.33-1.37-0.66-2.06-0.98c-5.95,4.42-13.29,7.54-19.61,11.52c-2.59,1.63-6.99,3.29-7.86,6.45c-0.29,1.04,1.64,0.95,2.2,0.8 c11.17-2.98,20.48-11.13,31.6-14.27c-0.69-0.33-1.37-0.66-2.06-0.98c-7.89,7.26-18.03,11.84-25.86,19.21 c-1,0.94,1.59,1.15,2.06,0.98c10.59-3.69,20.42-11.11,30.18-16.58c1.48-0.83-1.32-1.42-2.12-1.02 c-10.56,5.33-22.41,12.38-33.87,15.29c0.69,0.33,1.37,0.66,2.06,0.98c10.27-7.43,22.34-16.81,34.9-19.71 c-0.69-0.33-1.37-0.66-2.06-0.98c-4.41,3.1-9.52,5.17-14.38,7.44c-2.33,1.09-4.62,2.27-6.95,3.34c-1.63,0.75-7.54,4.65-5.75,1.56 c4.37-7.54,21.69-13.28,29.2-15.44c-0.69-0.33-1.37-0.66-2.06-0.98c-6.41,4.46-15.98,6.35-23.34,8.77 c-1.12,0.37-9.52,4.22-5.16,2.05c5.28-2.62,10.57-5.25,16.14-7.23c2.44-0.87,10.12-4.53,12.54-3.83c-0.66-0.19-6.57,3.08-8.19,3.8 c-4.42,1.97-8.81,3.74-13.38,5.31c-3.12,1.08-11.1,5.05-14.15,4c-8.38-2.88,9.33-9.85,10.76-10.4c4.56-1.75,9.23-3.1,14.04-3.95 c3.77-0.67,5.89-1.5,2.79,1.62c-2.35,2.38-7.7,4.02-10.72,5.44c-2.42,1.13-10.49,5.4-13.64,4.82c-11.15-2.07,4.52-8.49,6.74-9.29 c2.01-0.73,27.88-5.92,27.78-6.7C320,308.15,322.96,308.01,322.84,307.03L322.84,307.03z" fill="#2b7f66"/></g><g id="change1_7"><path d="M317.9,315.29c-7.1-7.73-28.82,14.51-29.56,21.48c-0.05,0.46,0.8,0.68,1.11,0.7 c4.72,0.36,23.24-7.58,15.74-11.73c-7.45-4.12-30.78,6.03-27.36,15.97c0.12,0.34,0.76,0.48,1.05,0.5 c10.03,0.8,15.2-16.28,4.04-13.23c-10.51,2.88-2.36,16,1.22,8.03c4.09-9.11-15.85-4.54-7.52,3.51c8.4,8.11,29.73-10.3,27.97-18.64 c-0.11-0.5-0.67-0.62-1.11-0.7c-6.98-1.22-15.53,7.55-14.78,14.2c0.03,0.24,0.23,0.43,0.45,0.52c6.2,2.54,13.05-1.6,18.39-4.75 c5.46-3.23,16.29-8.66,17-15.79c0.06-0.62-1.17-0.7-1.5-0.72c-6.07-0.27-15.98,13.07-6.1,13.66c5.7,0.34,19-8.98,9.59-13.33 c-5.1-2.36-17.72,5.48-12.32,10.43c4.93,4.51,21.77-2.93,18.62-9.64c-0.21-0.45-1.03-0.52-1.45-0.52 c-5.32-0.02-16.71,9.36-7.65,11.61c6,1.49,11.6-8.89,4.7-9.27c-0.43-0.02-2.25,0.06-1.82,0.95c2.62,5.34,11.36,1.83,7.43-2.83 c-0.5-0.59-2.52-0.89-2.87,0.05c-0.73,1.93-0.26,3.3,0.54,5.14c0.39,0.9,2.69,0.67,2.92-0.25c1.89-7.6-8.19-9.86-13.02-5.32 c-6.64,6.25,4.22,7.38,8.61,5.76c4.22-1.56,9.76-9.58,2.29-10.01c-7.64-0.44-5.05,6.85,0.86,7.77c0.42,0.06,2.7-0.47,1.66-1.12 c-6.9-4.38-15.46,5.54-18.08,10.89c-0.42,0.87,1.43,0.96,1.85,0.88c3.39-0.58,16.59-8.46,11.4-12.28c-1.62-1.19-4.64,0.9-5.88,1.6 c-6.73,3.79-14.71,10.52-19.84,16.28c-0.92,1.03,1.55,1.14,2.06,0.98c6.67-2.08,15.37-6.77,20.47-11.59 c0.64-0.6-0.43-1.04-0.91-1.08c-5.7-0.44-11.48,3.41-16.16,6.18c-5.25,3.1-15.48,8.01-17.8,13.84c-0.35,0.87,1.37,0.99,1.85,0.88 c5.88-1.32,11.08-4.86,16.17-8c3.09-1.91,8.33-3.71,10.17-6.98c0.41-0.72-1.12-0.92-1.45-0.92c-11.76,0.02-26.89,9.03-33.65,18.47 c-0.07,0.13-0.07,0.27,0.01,0.4c4.74,5.86,26.45-9.15,28.23-13.13c0.33-0.73-1.04-0.94-1.45-0.92 c-10.27,0.63-22.48,7.78-30.68,13.5c-0.44,0.31-0.06,0.72,0.25,0.9c5.45,3.11,20-8.79,22.97-12.17c0.56-0.64-0.36-1.03-0.91-1.08 c-6.9-0.67-23.44,7.06-24.09,14.77c-0.03,0.37,0.5,0.54,0.75,0.63c7.19,2.53,19.72-6.56,22.8-12.39c0.31-0.59-0.71-0.84-1.06-0.9 c-7.7-1.23-25.48,7.78-25.87,16.15c-0.02,0.38,0.49,0.53,0.75,0.63c7.01,2.55,19.69-3.61,23.63-9.58 c0.55-0.83-1.54-0.91-1.85-0.88c-5.34,0.51-13.33,4.28-15.44,9.45c-0.41,1.01,1.73,0.95,2.2,0.8c2.64-0.81,4.18-2.63,5-5.31 c0.15-0.48-0.31-0.7-0.7-0.83c-3.09-0.99-7.28,0.77-7.05,4.45c0.03,0.5,0.74,0.63,1.11,0.7c3.43,0.61,7.64-0.75,8.94-4.28 c0.08-0.21,0.04-0.43-0.16-0.57c-3.77-2.77-15.23-0.88-16.2,3.96c0.01,0.15,0.08,0.28,0.21,0.37c2.75,2.29,7.42,1.96,10.37,0.03 c0.22-0.15,0.59-0.41,0.37-0.73c-0.16-0.24-0.33-0.49-0.49-0.73c-0.36-0.53-1.28-0.59-1.84-0.49c-10.17,1.83,5.78,12.89,6.38,1.94 c0.03-0.47-0.78-0.66-1.11-0.7c-0.39-0.05-0.78-0.1-1.17-0.15c-0.59-0.08-1.46,0.01-1.82,0.55c-0.68,1.02-0.63,0.83-0.19,1.95 c0.13,0.33,0.75,0.49,1.05,0.5c2.88,0.17,4.92-0.65,6.3-3.25c0.38-0.72-1.09-0.94-1.45-0.92c-2.74,0.14-4.25,1.48-5.49,4 c-0.42,0.86,1.43,0.96,1.85,0.88c4.01-0.74,7.52-4.71,10.25-7.42c-0.91-0.18-1.82-0.35-2.73-0.53c-1.31,1.8-4.26,3.84-3.93,6.34 c0.11,0.84,1.69,0.82,2.25,0.6c2.94-1.14,5.53-3.4,7.14-6.09c0.12-0.19,0-0.45-0.16-0.57c-4.12-3.04-11.87-0.43-13.35,4.34 c-0.07,0.21-0.05,0.43,0.16,0.57c3.91,2.57,9.43,0.19,12.48-2.73c0.48-0.46-0.09-0.88-0.55-1.01c-5.07-1.41-17.8,6.73-15.48,11.73 c0.26,0.55,1.37,0.58,1.84,0.49c3.84-0.72,9.04-4.58,10.07-8.3c0.32-1.16-1.95-0.93-2.5-0.68c-4.89,2.23-10.66,7.23-12.39,12.54 c-0.29,0.89,1.33,0.98,1.85,0.88c4.94-0.95,12.78-7.32,13.68-12.36c0.13-0.74-1.59-0.72-1.9-0.69 c-4.43,0.55-11.54,4.82-10.57,10.12c0.16,0.89,1.64,0.75,2.25,0.6c5.11-1.23,11.61-5.56,14.25-10.11 c0.41-0.71-1.12-0.94-1.45-0.92c-4.92,0.26-10.55,5.05-12.52,9.43c-0.33,0.74,1.05,0.93,1.45,0.92 c7.43-0.25,14.88-6.29,20.52-10.74c0.88-0.7-0.93-1.09-1.31-1.1c-6.77-0.2-16.61,7.87-21.54,11.87c-0.98,0.8,1.3,1.13,1.7,1.07 c10.21-1.66,19.97-9.16,28.34-14.96c1.14-0.79-1.84-1.09-2.35-0.86c-6.44,2.84-15.26,6.36-19.96,11.76 c-0.68,0.78,0.75,1.14,1.31,1.1c6.93-0.47,13.79-6.43,19.54-9.9c2.27-1.37,16.98-7.64,16.02-11.15c-0.13-0.47-0.65-0.66-1.11-0.7 c-5.65-0.44-11.86,2.63-16.99,4.58c-7.55,2.87-14.67,6.8-21.01,11.82c-0.98,0.78,1.29,1.14,1.7,1.07 c5.67-1.1,10.79-5.05,15.76-7.85c6.75-3.81,14.07-7.16,20.36-11.65c1.01-0.72-1.3-1.15-1.7-1.07 c-12.3,2.61-24.12,10.54-35.66,15.46c0.78,0.29,1.57,0.57,2.35,0.86c5.67-4.97,12.29-8.94,18.76-12.79 c2.57-1.53,5.17-3.03,7.78-4.51c0.31-0.18,8.37-3.68,4.15-4.18c-3.21-0.38-13.49,8.09-16.6,9.85c-4.92,2.77-9.95,5.49-15.1,7.8 c0.78,0.29,1.57,0.58,2.35,0.86c5.53-4.72,11.63-8.47,17.92-12.09c1.8-1.04,14.38-6.59,14.71-8.04c0.42-1.82-5.77,1.55-6.31,1.88 c-2.67,1.61-5.33,3.26-8.02,4.84c-5.16,3.05-10.93,7.04-16.81,8.45c0.69,0.33,1.37,0.66,2.06,0.98 c6.07-6.25,20.13-14.91,29.13-16.31c-0.62-0.29-1.23-0.59-1.85-0.88c-1.58,4.83-9.01,9.02-12.69,11.92 c-5.59,4.41-11.29,8.54-17.02,12.76c-1.02,0.75,1.72,1.28,2.35,0.86c5.03-3.27,9.85-6.84,15.04-9.86 c2.51-1.46,5.06-2.84,7.67-4.12c1.4-0.69,7.51-3.93,6.54-3.03c-4.22,3.91-10.79,7.47-15.54,10.56c-5.02,3.27-10.28,7.34-15.7,9.95 c0.78,0.29,1.57,0.58,2.35,0.86c5.82-4.32,11.96-8.05,18.35-11.46c2.95-1.57,7.05-2.68,9.61-4.7c2.73-2.16-6.02,3.3-6.86,3.88 c-3.32,2.27-6.74,4.39-10.13,6.55c-5.28,3.35-10.55,7.25-16.3,9.74c0.78,0.29,1.57,0.57,2.35,0.86 c8.09-6.49,19.64-14.67,29.87-17.45c-0.69-0.33-1.37-0.66-2.06-0.98c-10.26,7-21.83,11.64-32.6,17.72 c0.78,0.29,1.57,0.57,2.35,0.86c3.42-2.33,6.98-4.44,10.37-6.81c1.07-0.75-1.75-1.2-2.35-0.86c-5.19,2.89-14.52,4.94-17.9,9.82 c-0.14,0.19,0.02,0.44,0.16,0.57c4.29,3.81,11.99-2.27,15.58-4.23c6.3-3.43,12.8-6.49,19.21-9.71c3.8-1.9,9.87-3.92,12.91-7.08 c0.97-1-1.58-1.13-2.06-0.98c-6.22,1.91-12.7,4.62-18.26,7.97c-0.3,0.18-0.66,0.63-0.22,0.91c5.55,3.48,19.42-5.26,22.09-9.64 c0.07-0.13,0.07-0.27-0.01-0.4c-3.22-5.72-14.9,2.25-16.98,5.65c-0.58,0.96,1.84,0.9,2.2,0.8c5.59-1.51,12.11-7.34,16.85-10.72 c1.09-0.78-1.79-1.16-2.35-0.86c-2.72,1.41-5.35,2.94-7.6,5.04c-1.01,0.94,1.78,1.23,2.35,0.86c1.66-1.08,2.46-1.96,2.87-3.97 c0.09-0.47-0.84-0.65-1.11-0.7c-12.24-2.08-29.12,10.7-36.3,19.34c-0.88,1.06,1.52,1.15,2.06,0.98c8.75-2.71,16.8-11.16,24-16.64 c1.02-0.77-1.73-1.28-2.35-0.86c-4.53,3.02-8.41,6.81-12.74,10.1c0.86,0.24,1.72,0.47,2.58,0.71c4.12-3.52,14.9-9.68,15.93-14.92 c0.15-0.74-1.6-0.72-1.9-0.69c-9.04,1.12-17.01,9.03-24.16,14.06c0.86,0.24,1.72,0.47,2.58,0.71c4.29-3.04,7.81-6.89,12.48-9.42 c1.46-0.79-1.29-1.47-2.12-1.02c-4.83,2.62-8.49,6.57-12.94,9.73c-1.02,0.72,1.82,1.24,2.58,0.71 c1.91-1.35,18.5-13.91,19.47-12.33c0.12,0.2-13.36,11.48-14.51,12.46c-1.02,0.87,1.89,1.24,2.58,0.71 c4.16-3.16,7.94-6.9,12.28-9.79c-0.78-0.29-1.57-0.57-2.35-0.86c-6.67,5.07-14.87,13.59-22.94,16.09 c0.69,0.33,1.37,0.66,2.06,0.98c2.71-3.26,6.56-6.34,9.93-8.87c3.97-2.98,8.17-5.58,12.85-7.33c1.04-0.33,2.08-0.66,3.12-0.99 c2.24-1.74,3.54-1.47,3.92,0.81c0.78,0.29,1.57,0.58,2.35,0.86c1.09-1.01,6.33-4.31,7.14-4.73c-0.78-0.29-1.57-0.57-2.35-0.86 c-4.48,3.2-10.48,8.73-15.79,10.16c0.73,0.27,1.47,0.54,2.2,0.8c1.02-1.09,2.15-2.04,3.38-2.85c1.01,0.36,2.01,0.71,3.02,1.07 c-0.4,1.1-5.57,2.87-6.79,3.37c-2.38,0.98-5.04,2.07-1.03,0.25c4.37-1.98,8.85-4.01,13.44-5.42c-0.69-0.33-1.37-0.66-2.06-0.98 c-3,3.1-8.63,4.86-12.45,6.77c-5.47,2.73-10.99,5.36-16.41,8.21c-2.21,1.16-4.45,2.73-6.73,3.69c-1.04,0.44-6.66,3.26-3.46,0.59 c3.48-2.9,9.78-4.68,13.8-6.91c-0.78-0.29-1.57-0.58-2.35-0.86c-3.37,2.36-6.97,4.49-10.37,6.81c-1.06,0.72,1.74,1.21,2.35,0.86 c10.93-6.17,22.64-10.92,33.06-18.03c1.14-0.78-1.67-1.09-2.06-0.98c-10.7,2.91-22.33,11.1-30.93,18 c-1.14,0.91,1.88,1.07,2.35,0.86c11.63-5.04,24.64-13.68,34.12-22.12c0.68-0.61-0.48-1.01-0.91-1.08 c-3.31-0.51-7.5,2.48-10.24,3.87c-7.81,3.94-15.31,8.39-22.34,13.6c-1.12,0.83,1.82,1.12,2.35,0.86 c6.48-3.12,12.48-7.78,18.48-11.78c5.27-3.51,11.35-6.91,15.67-11.54c0.83-0.89-1.19-1.16-1.7-1.07 c-12.65,2.43-24.16,11.96-34.7,18.83c0.78,0.29,1.57,0.57,2.35,0.86c6.51-4.79,12.99-9.55,19.33-14.57 c3.51-2.78,9.21-6,10.67-10.46c0.29-0.9-1.33-0.96-1.85-0.88c-9.96,1.55-24.01,9.93-30.9,17.02c-0.99,1.02,1.61,1.09,2.06,0.98 c11.55-2.78,22.61-11.97,32.73-17.87c1.5-0.87-1.35-1.37-2.12-1.02c-12.62,5.8-25.59,12.83-36.2,21.88 c-1.12,0.95,1.87,1.08,2.35,0.86c11.91-5.34,22.67-12.73,34.09-18.95c1.51-0.82-1.34-1.36-2.12-1.02 c-12.29,5.45-25.53,13.19-35.66,22.08c-1.12,0.98,1.89,1.06,2.35,0.86c6.98-2.97,13.86-6.17,20.74-9.36 c1.53-0.71,6.38-2.17,7.29-3.96c-0.61,1.21-8.05,4.4-9.3,5.11c-4.78,2.71-13.16,5.34-16.69,9.47c-2.04,2.39,6.69-3.48,7.62-4.01 c3.84-2.18,7.72-3.82,11.88-5.36c2-0.74,7.39-3.7,9.13-3.07c2.89,1.04-0.42,1.4-1.95,2.46c-5.2,3.63-11.1,6.53-16.56,9.76 c-1.56,0.92-11.72,6.94-6.46,3.99c5.24-2.93,10.53-6.08,16.03-8.5c-0.78-0.29-1.57-0.57-2.35-0.86 c-3.79,2.62-8.05,5.23-11.96,7.65c-1.87,1.16-8.44,3.47-9.07,5.04c0.37-0.92,4.42-2.86,4.99-3.22c0.82-0.52,8.6-5.05,5.7-3.65 c-3.08,1.48-5.82,3.55-8.87,5.12c-2.15,1.1-6.17,4.03-1.71-0.81c0.69-0.75,7.27-5.88,3.94-3.49c-3.89,2.79-6.35,6.13-11.39,7.35 c0.75,0.2,1.5,0.4,2.25,0.6c-0.65-3.52,5.24-7.04,2.92-4.45c-1.82,2.03-5.14,5.46-7.93,6c0.62,0.29,1.23,0.59,1.85,0.88 c1.56-4.8,7.18-9.84,11.63-11.87c-0.83-0.23-1.67-0.45-2.5-0.68c-0.42,1.5-4.95,6.19-5.05,5.06c-0.09-1.02,3.66-3.87,4.41-4.5 c6.83-5.78,1.64-0.6-0.16,0.1c0.75,0.2,1.5,0.4,2.25,0.6c-0.26-1.93,2.68-4.36,3.83-5.94c0.63-0.87-2.22-1.04-2.73-0.53 c-1.99,1.98-5.51,6.15-8.48,6.7c0.62,0.29,1.23,0.59,1.85,0.88c0.54-0.75,1.07-1.49,1.61-2.24c-10.19-1.48-12.6-2.63-7.24-3.45 c3.57-1.92,2.89,2.45-0.82,3.59c0.73,0.27,1.47,0.54,2.2,0.8c1.79-4.38,8.86-7.95,13.38-8.38c-0.62-0.29-1.23-0.59-1.85-0.88 c-2.31,3.5-8.69,7.46-12.9,7.77c-6.38,0.47-2.15-4.07,1.06-6.6c1.64-1.3,13.63-8.16,12.63-5.47c-1.13,3.04-8.65,7.99-11.98,8.37 c-2.84,0.32-3.37,0.6-1.43-2.26c1.2-1.77,4.23-3.42,5.91-4.48c0.76-0.48,8.53-5.05,9.04-4.31c0.31,0.45,0.19-0.22-1.28,1.13 c-2.34,2.16-5.42,3.77-8.13,5.45c-2.58,1.61-6.43,3.69-0.06,0.85c4.25-1.89,8.21-4.45,12.46-6.34c7.93-3.53,5.34-1.02,0.52,2.11 c-1.52,0.99-14.39,9.36-13.11,4.75c1.18-4.25,24.84-14.23,24.94-13.79c0.46,1.98-19.73,11.83-22.17,12.38 c0.62,0.3,1.23,0.59,1.85,0.88c1.06-2.67,5.08-4.82,7.25-6.4c4.48-3.28,8.94-6.51,13.89-9.06c3.62-1.86,10.43-5.11,2.37-0.73 c-4.34,2.36-8.78,5.76-13.52,7.24c0.69,0.33,1.37,0.66,2.06,0.98c3.53-3.96,8.45-7.21,12.58-10.58c1.11-0.9,6.82-6.73,7.74-4.04 c0.82,2.42-9.96,6.98-9.39,6.89c0.62,0.29,1.23,0.59,1.85,0.88c0.83-1.69,2.46-3.27,3.66-4.7c3.73-4.45,11.9-18.58,8.16-3.56 c0.97-0.08,1.95-0.17,2.92-0.25c-0.18-1.45-0.35-2.9-0.53-4.35c-0.96,0.02-1.91,0.03-2.87,0.05c-0.57,0.65-1.13,1.29-1.7,1.94 c-0.61,0.32-1.21,0.63-1.82,0.95c-5.26,2.71-4.46,2,2.39-2.14c0.04,0.64,0.09,1.29,0.13,1.93c-3.13,4.44-7.73,5.19-13.8,2.26 c1.35-3.17,3.35-3.49,5.99-0.98c9.68,4.11-6.01,7.68-5.52,2.03c0.42-4.77,6.76-6.51,0.25-0.3c-2.94,2.8-22,17.98-25,9.82 c-1.45-3.96,14.52-13.47,6.23-2.48c-1.62,2.15-4.86,6.25-7.49,7.66c-12.77-1.56-16.35-2.11-10.76-1.67 c1.78-0.31,1.99,0.18,0.65,1.47c-0.46-4.08,0.62-4.92,3.23-2.5c3.65,0.92,3.46,2.63-0.56,5.11c-5.35,1.06,0.63-5.67,1.61-6.6 c3.96-3.09,8.39-4.9,13.29-5.43c0.29,1.78,0.59,3.56,0.88,5.34c-2.01,1.5-4.32,1.91-6.92,1.23c0.96-1.23,1.92-2.47,2.89-3.7 c2.46-2.88,16.54-17.95,20.2-13.98C315.97,316.78,318.83,316.3,317.9,315.29L317.9,315.29z" fill="#2b7f66"/></g><g id="change1_1"><path d="M328.64,326.7c1,1.72-0.15,3.84-1.05,5.36c-0.72,1.2-2.21,3.81-3.41,4.52c0.85,0.16,1.7,0.32,2.55,0.48 c0.02-2.01,1.57-4.41,2.67-5.98c1.27-1.8,3.75-4.89,5.95-5.51c1.14-0.85,1.09-0.31-0.14,1.61c-0.39,0.68-0.81,1.35-1.24,2 c-0.78,1.13-1.65,2.19-2.62,3.16c-0.71,0.71-1.47,1.42-2.29,1.99c-0.19,0.99-0.15,0.9,0.11-0.28c0.08-0.26,0.2-0.5,0.33-0.72 c0.98-2.05,3.37-4.28,5.22-5.65c1.12-0.83,2.31-1.39,3.55-2.02c0.58-0.2,1.11-0.48,1.61-0.84c-0.58-0.1-0.96,0.06-1.12,0.5 c-1.18,1.26-2.06,2.63-3.38,3.8c-0.77,0.68-4.38,3.7-5.37,3.78c0.48,0.17,0.96,0.35,1.45,0.52c-0.99-1.45,1.93-3.78,2.81-4.5 c0.49-0.4,3.41-2.98,3.87-2.84c1.35,0.39-1.96,3.52-2.39,3.88c-1.46,1.2-3.07,2.64-4.71,3.6c0.83,0.23,1.67,0.45,2.5,0.68 c0.93-1.42,2.32-2.41,3.48-3.62c0.39-0.41,1.51-0.64,0.52-0.87c-0.84-0.19-1.14,0.81-1.7,1.39c-1.04,1.08-2.51,2.34-3.82,3.01 c-0.83,0.43-0.85,0.83-0.49-0.06c0.31-0.77,1.2-1.51,1.81-2.06c0.51-0.46,3.59-3.11,4.04-2.89c1.43,0.7-5.07,6.51-6.26,7.13 c0.83,0.23,1.67,0.45,2.5,0.68c0.48-1.6,2.18-3.76,3.73-4.56c-0.78-0.04-1.56-0.07-2.34-0.11c1.02,0.88-3.04,6.16-3.58,7.06 c-0.67,1.11,2.31,0.82,2.73,0.53c1.35-0.92,2.28-2.16,3.37-3.35c-0.93-0.11-1.85-0.22-2.78-0.33c-0.21,0.46-0.42,0.91-0.63,1.37 c-0.58,0.79,2.27,1.17,2.88,0.35c0.65-0.88,0.51-0.68,0.73-1.76c0.19-0.98-2.39-0.76-2.78-0.33c-1.1,1.19-2.02,2.42-3.37,3.35 c0.91,0.18,1.82,0.35,2.73,0.53c0.94-1.56,5.29-6.46,3.26-8.2c-0.57-0.49-1.71-0.43-2.34-0.11c-1.89,0.97-3.88,3.2-4.49,5.23 c-0.34,1.14,1.97,0.96,2.5,0.68c2.05-1.07,8.91-6.23,7.1-9.02c-2.01-3.08-7.21,1.15-8.81,2.43c-1.6,1.27-5.58,5.97-0.94,5.95 c3.13-0.01,8.65-4.38,9.54-7.34c0.07-0.23,0.04-0.41-0.16-0.57c-3.08-2.53-7.85,2.95-9.32,5.17c-0.64,0.97,2.1,0.91,2.5,0.68 c2.6-1.51,5.99-3.94,7.67-6.46c1.38-2.07,0.71-3.78-1.85-3.85c-2.99-0.08-12.67,6.28-10.39,9.61c0.28,0.41,0.98,0.56,1.45,0.52 c2.5-0.2,15.64-9.64,10.51-11.06c-1.33-0.37-2.24,0.28-3.37,0.84c-2.16,1.08-4.04,1.9-5.89,3.51c-1.31,1.14-6.95,6.01-5.06,8.39 c3.17,4.01,15.37-9.1,12.06-12.1c-2.26-2.05-6.35,1.31-7.92,2.62c-2.86,2.37-6.55,6.61-6.6,10.53c-0.01,0.95,2.06,0.78,2.55,0.48 c1.8-1.07,3.3-3.66,4.32-5.46c1-1.76,1.99-3.97,0.88-5.88C331.01,325.39,328.1,325.76,328.64,326.7L328.64,326.7z" fill="#2b7f66"/></g><g id="change1_6"><path d="M296.52,360.02c7.64,9.83,16.69,20.35,30.11,13.23c6.08-3.22,6.75-10.98,7.12-17.17 c0.29-4.84,1.36-15.66-2.52-19.37c-0.52-0.49-2.09-0.54-2.57,0.04c-0.1,0.12-0.19,0.24-0.29,0.36c-0.87,1.07,1.99,1.44,2.58,0.71 c0.1-0.12,0.19-0.24,0.29-0.36c-0.86,0.01-1.71,0.03-2.57,0.04c1.87,1.79,1.75,6.94,1.98,9.32c0.43,4.39,0.42,9.02-0.22,13.39 c-0.37,2.54-0.85,5.47-2.02,7.78c-0.68,1.85-1.98,3.27-3.9,4.24c-4.77-0.17-9.53-0.35-14.3-0.52c-4.53-2.4-7.74-8.18-10.82-12.14 C298.77,358.78,295.91,359.23,296.52,360.02L296.52,360.02z" fill="#2b7f66"/></g><g id="change1_8"><path d="M306.38,100.8c-0.08-0.05-0.17-0.11-0.25-0.16c-0.68-0.43-2.23-0.61-2.72,0.22 c-1.67,2.84-2.64,5.81-3.65,8.92c-0.41,1.26-1.3,2.82-0.4,4.03c0.48,0.65,1.85,0.71,2.49,0.29c2.7-1.79,3.98-5.41,5.28-8.25 c1.08-2.33,3.87-6.7,3.16-9.4c-0.25-0.94-2.21-0.94-2.78-0.33c-2.21,2.37-3.39,5.54-4.74,8.43c-1.58,3.39-3.89,6.61-5.06,10.17 c-0.39,1.18,2.23,0.99,2.73,0.53c1.51-1.39,2.28-3.87,3.24-5.66c1.7-3.19,2.87-6.61,4.52-9.82c0.51-0.99-2.38-1.18-2.88-0.35 c-1.87,3.16-3.56,6.4-5.09,9.74c-0.52,1.13,2.37,1,2.88,0.35c1.68-2.14,2.55-4.57,3.37-7.15c0.48-1.52,1.33-2.93,0.87-4.48 c-0.21-0.7-1.75-0.52-2.2-0.41c-3.92,0.98-6.72,9.01-5.79,12.61c0.28,1.07,3.21,0.83,2.98-0.05c-0.65-2.47,1.27-10.53,4.33-11.3 c-0.73-0.14-1.46-0.27-2.2-0.41c0.41,1.39-1,4.15-1.46,5.45c-0.69,1.96-1.5,3.75-2.78,5.39c0.96,0.12,1.92,0.23,2.88,0.35 c1.53-3.34,3.22-6.58,5.09-9.74c-0.96-0.12-1.92-0.23-2.88-0.35c-1.46,2.85-2.49,5.88-3.95,8.74c-0.96,1.89-1.96,4.96-3.51,6.38 c0.91,0.18,1.82,0.35,2.73,0.53c1.05-3.16,3.05-6.04,4.51-9.01c1.51-3.05,2.64-6.69,5-9.23c-0.93-0.11-1.85-0.22-2.78-0.33 c0.55,2.09-1.57,5.66-2.42,7.56c-1.22,2.73-2.58,7.3-5.17,9.02c0.83,0.1,1.66,0.19,2.49,0.29c-0.83-1.12,0.72-4.26,1.09-5.42 c0.77-2.37,1.71-4.59,2.98-6.74c-0.91,0.07-1.81,0.15-2.72,0.22c0.08,0.05,0.17,0.11,0.25,0.16 C304.6,102.08,307.43,101.46,306.38,100.8L306.38,100.8z" fill="#2b7f66"/></g><g id="change1_3"><path d="M309,95.17c-2.77-0.85-4.83,1.55-6.09,3.74c-1.42,2.48-2.45,5.55-3.28,8.28c-0.46,1.49-1.32,3.81-0.88,5.36 c0.25,0.87,1.57,0.77,2.25,0.6c4.16-1.04,15.78-17.88,8.75-18.16c-2.88-0.12-4.81,3.16-6.13,5.26c-2.06,3.29-5.26,8.32-4.86,12.31 c0.08,0.84,1.71,0.82,2.25,0.6c3.22-1.3,4.98-6.84,6.32-9.8c0.85-1.88,3.18-6.14,0.13-7.18c-5.83-1.99-9.18,12.33-10.24,15.2 c-0.4,1.08,2.54,1.27,2.88,0.35c1.63-4.44,2.97-9.37,5.79-13.27c1.41-1.95-0.2,1.37-0.44,2.09c-0.42,1.27-1.01,2.46-1.6,3.66 c-0.68,1.41-1.42,2.78-2.16,4.16c-0.46,0.86-1.25,3.14-2.21,3.53c0.75,0.2,1.5,0.4,2.25,0.6c-0.43-4.38,3.61-10.77,6.35-14.19 c0.17-0.22,0.74-1.14,1.07-1.22c0.45-0.12-0.01,0.18-0.08,0.81c-0.16,1.53-0.88,3.07-1.58,4.43c-1.54,3.01-4.48,8.66-8.02,9.54 c0.75,0.2,1.5,0.4,2.25,0.6c-0.72-2.53,1.2-6.18,2.07-8.46c0.54-1.43,1.01-2.92,1.71-4.29c0.16-0.32,2.14-3.24,2.01-3.28 C308.57,96.8,310.86,95.74,309,95.17L309,95.17z" fill="#2b7f66"/></g><g id="change1_2"><path d="M216.18,113.42c-0.1,0.2-0.2,0.4-0.29,0.6c0.96-0.02,1.92-0.03,2.87-0.05c-2.65-5.16-3.69-10.95-5.57-16.41 c-0.71-2.08-1.53-6.9-4.26-7.3c-0.36-0.05-1.98,0.02-1.87,0.75c1.28,8.81,5.63,17.38,6.07,26.27c0.97-0.08,1.95-0.17,2.92-0.25 c-1.15-3.79-1.7-7.75-2.88-11.54c-1.23-3.96-2.91-7.76-4.07-11.75c-0.96,0.15-1.91,0.3-2.87,0.45c1.44,4.3,1.99,8.73,3,13.13 c0.88,3.84,1.98,7.55,2.5,11.47c0.97-0.08,1.95-0.17,2.92-0.25c-2.25-6.78-5.16-13.17-7.7-19.82c-0.34-0.89-3.24-0.67-2.87,0.45 c1.96,5.81,4.99,11.1,6.72,17.04c0.24,0.83,3.07,0.68,2.92-0.25c-0.63-3.99-1.14-7.97-1.9-11.95c-0.24-1.27-1.88-6.59-0.56-7.51 c-0.86,0.01-1.71,0.03-2.57,0.04c3.56,3.77,6.7,11.84,6.01,17.01c0.99-0.02,1.99-0.03,2.98-0.05c-0.66-5.8-1.99-11.53-2.66-17.26 c-0.97,0.08-1.95,0.17-2.92,0.25c2.04,6.2,3.5,12.86,4.42,19.33c0.15,1.07,3.12,0.92,2.98-0.05c-0.94-6.62-2.45-13.36-4.54-19.72 c-0.27-0.81-3.03-0.7-2.92,0.25c0.67,5.74,2,11.46,2.66,17.26c0.12,1.05,2.84,0.98,2.98-0.05c0.74-5.56-2.7-13.8-6.43-17.76 c-0.59-0.62-1.96-0.38-2.57,0.04c-1.66,1.16-0.44,5.04-0.15,6.62c0.81,4.53,1.5,9.05,2.22,13.59c0.97-0.08,1.95-0.17,2.92-0.25 c-1.73-5.93-4.76-11.23-6.72-17.04c-0.96,0.15-1.91,0.3-2.87,0.45c2.54,6.65,5.45,13.04,7.7,19.82c0.27,0.81,3.05,0.7,2.92-0.25 c-0.59-4.51-1.97-8.81-2.88-13.25c-0.81-3.96-1.44-7.9-2.73-11.74c-0.3-0.9-3.2-0.7-2.87,0.45c1.16,3.99,2.85,7.78,4.07,11.75 c1.17,3.8,1.73,7.74,2.88,11.54c0.25,0.82,2.97,0.72,2.92-0.25c-0.44-8.88-4.79-17.49-6.07-26.27c-0.62,0.25-1.25,0.5-1.87,0.75 c0.27,0.04,2.6,7.56,2.97,8.71c1.5,4.72,2.49,9.56,4.77,14c0.4,0.78,2.49,0.73,2.87-0.05c0.1-0.2,0.2-0.4,0.29-0.6 C219.54,112.78,216.62,112.52,216.18,113.42L216.18,113.42z" fill="#2b7f66"/></g><g id="change1_10"><path d="M146.27,145.83c2.59,1.21,5.04,2.68,7.61,3.92c2.5,1.2,6.42,1.74,8.56,3.41c0.52,0.41,2.01,0.1,0.64,1.59 c-0.97,1.05-7.21-2.26-8.47-3.04c-2.25-1.39-5.48-3.17-7-5.43c-0.83,0.26-1.65,0.51-2.48,0.77c2.73,1.32,5.34,2.78,7.98,4.26 c2.38,1.33,5.71,1.94,7.73,3.78c0.29-0.37,0.58-0.74,0.87-1.11c-4.99,0.61-11.79-5.23-15.38-8.19c-0.77,0.31-1.55,0.63-2.32,0.94 c2.98,1.52,5.92,3.11,8.96,4.5c1.35,0.61,2.71,1.23,4.07,1.81c-0.09-0.04,3.07,1.09,1.74,1c-2.95-0.2-5.95-2.9-8.77-3.82 c-0.47-0.15-2.66-0.07-2.17,0.88c0.69,1.36,1.98,1.97,3.26,2.73c3.06,1.81,6.11,3.55,9.36,5c0.21-0.42,0.42-0.84,0.64-1.26 c-0.48,0.08-2.04-0.71-2.48-0.86c-2.3-0.81-4.45-1.83-6.63-2.91c-2.68-1.33-5.29-2.77-8.15-3.68c-0.48-0.15-3.04,0.13-2.02,1.05 c2.52,2.26,5.93,3.57,8.95,5.03c1.94,0.94,3.9,1.8,5.89,2.63c0.81,0.34,3.12,0.94,3.77,1.74c0.65,0.78,3.49,0.31,2.87-0.45 c-1.42-1.72-4.33-2.22-6.28-3.07c-4.11-1.79-9.28-3.64-12.65-6.66c-0.67,0.35-1.35,0.7-2.02,1.05c4.58,1.46,8.63,4.27,13.12,5.99 c2.02,0.78,4.23,1.92,6.44,1.57c0.62-0.1,1.67-0.79,0.64-1.26c-2.38-1.07-4.62-2.27-6.88-3.58c-1.53-0.89-4.12-1.85-4.96-3.5 c-0.72,0.29-1.45,0.59-2.17,0.88c2.91,0.94,9.72,6.26,12.96,3.96c1.42-1.01,0.84-1.9-0.42-2.76c-1.67-1.14-4.16-1.75-6.01-2.59 c-3.04-1.38-5.99-2.98-8.96-4.5c-0.57-0.29-3.4,0.05-2.32,0.94c4.91,4.05,12,9.64,18.76,8.82c0.48-0.06,1.52-0.52,0.87-1.11 c-1.89-1.72-4.6-2.24-6.86-3.36c-3.16-1.56-6.15-3.44-9.33-4.98c-0.41-0.2-3.14-0.22-2.48,0.77c2.46,3.65,8.23,6.92,12.26,8.46 c3.53,1.36,7.87,1.76,11.04-0.52c0.15-0.11,0.28-0.41,0.14-0.58c-1.66-2.02-4.82-2.41-7.18-3.32c-4.4-1.69-8.39-4.04-12.65-6.03 C147.51,144.35,144.77,145.13,146.27,145.83L146.27,145.83z" fill="#2b7f66"/></g><g id="change1_9"><path d="M121.44,206.91c-1.92-0.49-1.97-0.51-3.95-0.66c-0.28-0.02-2.44,0.17-1.82,0.95c1.74,2.17,3.95,3.22,6.4,4.47 c4.89,2.49,9.85,4.9,14.51,7.79c0.84,0.47,1.64,1,2.42,1.57c0.55,0.91,0.32,1.15-0.69,0.71c-1.53,0.63-6.08-1.42-7.77-1.92 c-5.01-1.5-11.27-2.95-15.75-5.82c-0.55,0.37-1.11,0.75-1.66,1.12c4.14,0.75,8.16,2.27,12.12,3.66c3.39,1.19,7.68,2.08,10.55,4.35 c0.29-0.37,0.58-0.74,0.87-1.11c-3.29,0.49-8.2-3.91-10.86-5.54c-2.97-1.82-6.55-3.7-9.09-6.12c-0.77,0.31-1.55,0.63-2.32,0.94 c7.08,3.48,14.72,5.82,22.09,8.62c0.59-0.4,1.19-0.8,1.78-1.2c-7.74-2.22-13.61-7.31-20.77-10.52c-0.5-0.22-2.95-0.34-2.48,0.77 c1.25,2.94,4.91,4.52,7.55,6.01c5.14,2.91,11.67,5.11,16.04,9.11c0.69,0.63,3.55,0.11,2.56-0.8c-3.13-2.86-7.5-4.61-11.22-6.58 c-3.66-1.93-10.33-4.12-12.06-8.19c-0.83,0.26-1.65,0.51-2.48,0.77c7.33,3.28,13.46,8.47,21.37,10.74 c0.73,0.21,3.29-0.63,1.79-1.2c-7.33-2.79-15.06-5.17-22.09-8.62c-0.56-0.28-3.37-0.05-2.32,0.94c3.61,3.44,8.67,5.85,12.93,8.43 c3.25,1.97,6.46,4.44,10.39,3.85c0.42-0.06,1.58-0.55,0.87-1.11c-2.62-2.07-6.3-3.04-9.43-4.12c-4.95-1.71-9.87-3.62-15.03-4.55 c-0.43-0.08-2.69,0.47-1.66,1.12c5.41,3.45,12.51,5.06,18.61,6.87c3.42,1.02,8.7,3,12.16,1.14c0.22-0.12,0.6-0.44,0.37-0.73 c-2.18-2.77-5.72-4.36-8.73-6.02c-4.79-2.65-12.62-4.93-16.11-9.3c-0.61,0.32-1.21,0.63-1.82,0.95c1.08,0.17,2.16,0.35,3.23,0.52 C121.01,208.49,123.32,207.39,121.44,206.91L121.44,206.91z" fill="#2b7f66"/></g><g id="change1_14"><path d="M363,129.65c-3.7,1.79-6.76,6.32-9.34,9.43c-2.55,3.06-5.83,6.28-6.81,10.21c-0.08,0.34,0.54,0.57,0.75,0.63 c3.8,1.16,7.45-2.87,10-5.07c4.02-3.47,10.31-9.73,11.23-15.19c0.1-0.59-1.2-0.74-1.5-0.72c-3.82,0.31-7.17,5.22-9.46,7.8 c-2.22,2.49-8.58,8.06-8.62,11.72c-0.01,0.75,1.48,0.76,1.9,0.69c3.95-0.67,6.86-4.2,9.22-7.2c2.06-2.63,7.21-8,6.79-11.58 c-0.1-0.85-1.7-0.82-2.25-0.6c-3.6,1.39-6.06,4.45-8.63,7.22c-3.02,3.25-5.82,8.3-9.47,10.8c0.86,0.24,1.72,0.47,2.58,0.71 c2.86-2.52,5.11-5.51,7.14-8.73c1.97-3.14,4.57-6.64,5.28-10.3c0.2-1.04-2.38-0.67-2.78-0.33c-2.83,2.42-5.14,5.75-7.45,8.66 c-1.89,2.37-4.64,4.73-5.95,7.43c-0.52,1.06,2.06,0.95,2.5,0.68c5.19-3.11,8.75-10.14,11.87-15.07c0.57-0.89-2.32-1.16-2.88-0.35 c-1.82,2.65-3.83,5.22-5.6,7.9c-0.78,1.18-1.54,2.32-0.22,3.27c2.97,2.14,9.05-4.13,10.83-5.6c1.04-0.85-1.77-1.23-2.35-0.86 c-3.71,2.33-9.43,7.21-10.81,11.53c-0.33,1.04,1.67,0.94,2.2,0.8c3.51-0.89,5.54-4.08,8.46-6.03c1.4-0.93-1.32-1.55-2.12-1.02 c-2.51,1.68-4.93,5.04-7.86,5.79c0.73,0.27,1.47,0.54,2.2,0.8c1.25-3.91,6.64-8.71,10.06-10.86c-0.78-0.29-1.57-0.58-2.35-0.86 c-1.32,1.08-2.69,2.09-4.05,3.12c-1.43,1.08-2.73,2.61-1.1,0.27c1.83-2.65,3.77-5.23,5.6-7.9c-0.96-0.12-1.92-0.23-2.88-0.35 c-1.58,2.5-2.95,5.02-4.78,7.36c-1.66,2.12-3.95,5.6-6.34,7.03c0.83,0.23,1.67,0.45,2.5,0.68c1.31-2.7,4.82-6.04,6.69-8.33 c2.01-2.47,4-5.32,6.42-7.39c-0.93-0.11-1.85-0.22-2.78-0.33c-0.64,3.32-3.4,7.07-5.18,9.9c-1.94,3.09-4.1,5.94-6.84,8.37 c-1.05,0.93,1.93,1.16,2.58,0.71c6.42-4.38,9.36-14.5,17.04-17.46c-0.75-0.2-1.5-0.4-2.25-0.6c0.28,2.4-2.96,6.15-4.29,7.98 c-2.19,3.04-5.49,8.63-9.56,9.32c0.63,0.23,1.27,0.46,1.9,0.69c0.04-3.1,5.32-7.61,7.09-9.66c1.51-1.74,3.08-3.4,4.7-5.04 c0.65-0.65,2.52-3.21,3.34-3.28c-0.5-0.24-1-0.48-1.5-0.72c-0.6,3.59-4.24,7.53-6.55,10.22c-2.06,2.4-5.79,6.85-8.89,7.87 c-1.11,0.89-1,0.62,0.33-0.81c0.51-0.86,1.07-1.68,1.69-2.47c1.36-1.85,2.87-3.62,4.35-5.37c2.26-2.68,5.11-6.92,8.35-8.49 C366.6,129.95,363.84,129.24,363,129.65L363,129.65z" fill="#2b7f66"/></g><g id="change1_15"><path d="M294.78,314.31c-3.97-13.62-11.7-25.2-23.27-33.56c-11.36-8.21-23.13-16.21-31.26-27.97 c-3.66-5.3-8.85-14.66-7.48-21.38c-0.57-4.42,2.01-6.51,7.74-6.28c4.93-4.78,8.57-4.4,10.91,1.14c1.44,2.3,3.81,7.09,3.7,9.91 c-0.36,9.46-5.23-1.63-6.43-4.2c-1.52-3.29-2.73-6.68-2.71-10.36c0.06-7.46,6.05-18.92,16.14-8.25c1.85,1.95,2.86,5.81,3.74,8.23 c0.86,2.37,3.68,8.29,2.67,10.82c-1.15,2.88-1.65,0.3-2.76-1.76c-2.43-4.48-1.14-9.81,0.95-14.05c1.2-2.41,2.78-4.54,4.76-6.4 c3.32-3.98,6.38-4.17,9.18-0.58c13.93,10.09,2.52,27.69,1.44,40.61c-1,11.95,5.21,24.5,9.95,35.04c4.85,10.8,9.81,21.57,14.8,32.3 c0.4,0.86,3.26,0.67,2.87-0.45c-0.07-0.2-0.14-0.4-0.21-0.6c-0.32-0.9-3.25-0.67-2.87,0.45c0.07,0.2,0.14,0.4,0.21,0.6 c0.96-0.15,1.91-0.3,2.87-0.45c-7.79-16.77-16.7-33.57-22.21-51.28c-1.49-4.78-2.88-10.51-2.42-15.67 c0.41-4.56,2.66-9.15,3.62-13.68c1.82-8.57,3.14-19.98-3.22-27.34c-6.39-7.38-15.74-2.23-20.26,4.7 c-3.62,5.54-5.38,13.46-1.41,19.42c1.31,1.96,3.13,4.51,5.91,3.44c8.03-3.1-5.16-27.81-12.05-29.51 c-12.14-3-16.29,12.55-13.44,21.34c0.89,2.75,10.56,21.71,13.77,10.34c2.9-10.28-9.86-23.83-20.23-20.73 c-18.01,5.39-2.91,32.8,4.41,40.92c8.04,8.92,17.16,15.43,26.77,22.47c11.49,8.42,19.02,19.66,22.97,33.21 C292.18,315.65,295.12,315.46,294.78,314.31L294.78,314.31z" fill="#2b7f66"/></g></g></svg>