<?xml version="1.0" encoding="UTF-8" standalone="no"?><svg xmlns="http://www.w3.org/2000/svg" xmlns:xlink="http://www.w3.org/1999/xlink" fill="#000000" height="600.9" preserveAspectRatio="xMidYMid meet" version="1" viewBox="-0.0 0.0 594.2 600.9" width="594.2" zoomAndPan="magnify"><defs><clipPath id="a"><path d="M 34 0 L 594.160156 0 L 594.160156 479 L 34 479 Z M 34 0"/></clipPath><clipPath id="b"><path d="M 56 588 L 70 588 L 70 600.878906 L 56 600.878906 Z M 56 588"/></clipPath></defs><g><g clip-path="url(#a)" id="change1_1"><path d="M 454.28125 14.175781 C 493.628906 12.132812 562.933594 65.816406 581.121094 146.117188 C 584.019531 160.472656 585.152344 178.066406 579.78125 192.074219 C 575.347656 114.570312 524.675781 44.957031 454.28125 14.175781 Z M 562.121094 228.355469 C 554.980469 284.074219 516.433594 328.648438 465.226562 345.375 C 443.972656 350.261719 422.035156 350.371094 400.328125 350.582031 C 357.917969 350.992188 316.574219 356.050781 276.617188 370.960938 C 256.472656 378.480469 237.304688 388.265625 219.582031 400.40625 C 211.128906 358.800781 172.988281 303.570312 136.726562 279.660156 C 136.90625 279.476562 137.09375 279.269531 137.265625 279.101562 C 137.679688 278.691406 138.101562 278.269531 138.523438 277.859375 C 140.816406 276.378906 142.296875 273.898438 144.03125 271.683594 C 146.59375 268.414062 149.152344 265.148438 151.710938 261.878906 C 156.625 255.597656 161.339844 249.164062 166.109375 242.773438 C 170.800781 236.488281 175.453125 230.191406 180.019531 223.816406 C 182.433594 220.445312 184.652344 216.933594 186.914062 213.457031 C 211.386719 175.792969 238.179688 85.21875 292.609375 38.632812 C 327.351562 8.289062 383.738281 6.417969 428.207031 17.421875 C 518.773438 38.246094 576.105469 136.496094 562.121094 228.355469 Z M 206.886719 425.542969 L 206.527344 425.792969 C 199.601562 376.566406 151.089844 306.820312 107.28125 283.199219 L 107.640625 282.949219 C 112.699219 279.429688 144.964844 292.816406 177.527344 339.597656 C 210.085938 386.378906 211.945312 422.019531 206.886719 425.542969 Z M 184.800781 441.074219 C 179.691406 393.136719 128.625 319.734375 85.410156 298.273438 L 94.488281 292.023438 C 137.242188 309.617188 192.285156 388.835938 193.816406 434.863281 Z M 168.828125 458.800781 L 167.320312 459.847656 C 161.195312 407.835938 102.308594 331.285156 55.433594 307.238281 L 59.980469 304.714844 C 66.410156 300.238281 103.902344 318.242188 138.195312 367.519531 C 172.492188 416.789062 175.261719 454.320312 168.828125 458.800781 Z M 151.652344 470.058594 C 143.609375 469.601562 116.757812 450.25 82.859375 406.03125 C 40.03125 350.164062 41.453125 325.292969 43.820312 317.59375 C 54.507812 313.832031 85.078125 335.460938 117.964844 380.4375 C 150.851562 425.421875 159.152344 458.742188 151.652344 470.058594 Z M 560.757812 72.914062 C 531.878906 30.710938 472.902344 -6.0625 434.269531 10.601562 C 230.375 -51.238281 230.488281 173.476562 119.253906 270.316406 C 119.074219 270.402344 118.894531 270.480469 118.710938 270.5625 C 101.273438 265.191406 97.558594 275.074219 89.308594 279.097656 C 89.277344 279.054688 69.003906 293.011719 69.003906 293.011719 C 17.414062 307.632812 27.238281 344.640625 73.613281 411.273438 C 129.535156 491.613281 158.40625 478.457031 160.488281 476.597656 C 160.625 476.628906 160.765625 476.628906 160.898438 476.667969 C 173.484375 466.535156 178.976562 467.023438 184.070312 458.128906 L 204.195312 444.277344 L 204.078125 444.109375 C 211.207031 437.609375 222.585938 435.667969 224.113281 419.101562 C 334.019531 363.363281 349.753906 366.699219 421.074219 366.074219 C 505.671875 366.765625 573.238281 301.804688 579.714844 211.351562 C 610.773438 171.960938 585.742188 108.179688 560.757812 72.914062" fill="#ff6d00"/></g><g id="change1_2"><path d="M 71.367188 355.902344 C 72.59375 357.8125 73.457031 359.765625 73.957031 361.492188 C 74.683594 359.3125 74.347656 354.832031 71.847656 350.925781 C 68.710938 345.96875 63.632812 342.996094 61.492188 344.359375 C 60.175781 345.175781 60.140625 347.8125 60.914062 350.585938 C 61.09375 350.039062 61.414062 349.632812 61.824219 349.359375 C 63.960938 347.996094 68.230469 350.949219 71.367188 355.902344" fill="#ff6d00"/></g><g id="change1_3"><path d="M 96.304688 396.089844 C 97.03125 393.90625 96.695312 389.425781 94.195312 385.519531 C 91.058594 380.5625 85.976562 377.589844 83.84375 378.953125 C 82.523438 379.769531 82.488281 382.40625 83.261719 385.179688 C 83.441406 384.636719 83.761719 384.226562 84.167969 383.953125 C 86.304688 382.589844 90.578125 385.542969 93.714844 390.5 C 94.941406 392.40625 95.804688 394.359375 96.304688 396.089844" fill="#ff6d00"/></g><g id="change1_4"><path d="M 116.777344 390.023438 C 113.960938 387.265625 110.792969 385.902344 109.21875 386.90625 C 107.902344 387.726562 107.867188 390.363281 108.640625 393.132812 C 108.820312 392.589844 109.140625 392.179688 109.546875 391.90625 C 110.101562 391.554688 110.804688 391.503906 111.589844 391.691406 C 111.445312 391.957031 111.214844 392.179688 111.128906 392.484375 C 110.9375 393.1875 110.9375 393.894531 111.128906 394.597656 C 111.316406 395.269531 111.660156 395.855469 112.152344 396.351562 C 112.648438 396.847656 113.234375 397.1875 113.90625 397.375 C 114.453125 397.585938 115.476562 397.585938 115.953125 397.402344 C 116.339844 397.253906 116.65625 397.117188 116.972656 396.976562 C 117.230469 396.820312 117.375 396.554688 117.589844 396.355469 C 118.109375 397.011719 118.613281 397.699219 119.09375 398.453125 C 120.320312 400.359375 121.183594 402.316406 121.683594 404.042969 C 122.410156 401.863281 122.074219 397.382812 119.574219 393.472656 C 119.296875 393.039062 118.992188 392.640625 118.691406 392.238281 C 118.609375 391.996094 118.527344 391.757812 118.398438 391.53125 C 118.042969 390.9375 117.570312 390.460938 116.972656 390.105469 L 116.777344 390.023438" fill="#ff6d00"/></g><g id="change1_5"><path d="M 106.433594 418.945312 C 106.382812 416.664062 105.738281 413.796875 104.042969 411.148438 C 100.90625 406.195312 95.828125 403.21875 93.691406 404.582031 C 92.371094 405.402344 92.335938 408.039062 93.109375 410.808594 C 93.289062 410.265625 93.609375 409.855469 94.019531 409.582031 C 96.125 408.238281 100.308594 411.105469 103.429688 415.9375 C 102.882812 415.738281 102.320312 415.601562 101.722656 415.597656 C 101.027344 415.574219 100.378906 415.71875 99.777344 416.03125 C 99.152344 416.234375 98.613281 416.585938 98.15625 417.074219 C 97.664062 417.53125 97.316406 418.074219 97.113281 418.699219 C 96.796875 419.300781 96.652344 419.945312 96.679688 420.640625 C 96.738281 421.089844 96.796875 421.535156 96.859375 421.980469 C 97.097656 422.835938 97.53125 423.578125 98.15625 424.207031 C 98.496094 424.46875 98.835938 424.730469 99.175781 424.996094 C 99.960938 425.449219 100.808594 425.679688 101.722656 425.683594 C 102.414062 425.710938 103.0625 425.566406 103.664062 425.25 C 104.289062 425.046875 104.828125 424.699219 105.285156 424.207031 C 105.777344 423.75 106.125 423.210938 106.328125 422.585938 C 106.644531 421.984375 106.789062 421.335938 106.761719 420.640625 C 106.703125 420.195312 106.644531 419.746094 106.582031 419.300781 C 106.546875 419.171875 106.476562 419.066406 106.433594 418.945312" fill="#ff6d00"/></g><g id="change1_6"><path d="M 126.214844 418.800781 C 128.351562 417.4375 132.621094 420.390625 135.757812 425.34375 C 136.984375 427.253906 137.847656 429.210938 138.347656 430.933594 C 139.078125 428.753906 138.738281 424.273438 136.238281 420.367188 C 133.101562 415.410156 128.023438 412.4375 125.886719 413.800781 C 124.566406 414.617188 124.53125 417.253906 125.304688 420.027344 C 125.484375 419.480469 125.804688 419.070312 126.214844 418.800781" fill="#ff6d00"/></g><g id="change1_7"><path d="M 113.636719 429.960938 C 112.320312 430.777344 112.285156 433.414062 113.058594 436.1875 C 113.238281 435.644531 113.558594 435.234375 113.96875 434.960938 C 116.101562 433.597656 120.375 436.550781 123.511719 441.507812 C 124.738281 443.414062 125.601562 445.367188 126.101562 447.097656 C 126.828125 444.914062 126.492188 440.433594 123.992188 436.527344 C 120.855469 431.570312 115.773438 428.597656 113.636719 429.960938" fill="#ff6d00"/></g><g id="change1_8"><path d="M 137.804688 444.269531 C 137.984375 443.722656 138.304688 443.3125 138.714844 443.039062 C 140.847656 441.679688 145.121094 444.632812 148.257812 449.585938 C 149.484375 451.496094 150.347656 453.449219 150.847656 455.175781 C 151.574219 452.996094 151.238281 448.515625 148.738281 444.605469 C 145.601562 439.652344 140.519531 436.679688 138.386719 438.042969 C 137.066406 438.859375 137.03125 441.496094 137.804688 444.269531" fill="#ff6d00"/></g><g id="change1_9"><path d="M 87.074219 363.625 C 89.210938 362.261719 93.484375 365.214844 96.617188 370.171875 C 97.054688 370.851562 97.390625 371.53125 97.738281 372.214844 C 97.355469 372.113281 96.960938 372.058594 96.550781 372.058594 C 95.90625 372.03125 95.308594 372.167969 94.75 372.460938 C 94.171875 372.648438 93.671875 372.96875 93.246094 373.425781 C 92.792969 373.847656 92.46875 374.347656 92.28125 374.929688 C 91.988281 375.484375 91.855469 376.085938 91.878906 376.730469 C 91.933594 377.144531 91.988281 377.558594 92.046875 377.972656 C 92.269531 378.765625 92.667969 379.449219 93.246094 380.035156 C 93.5625 380.277344 93.878906 380.519531 94.191406 380.765625 C 94.921875 381.1875 95.707031 381.398438 96.550781 381.402344 C 97.195312 381.425781 97.792969 381.292969 98.351562 381 C 98.929688 380.8125 99.433594 380.488281 99.855469 380.035156 C 100.3125 379.609375 100.632812 379.109375 100.820312 378.527344 C 101.113281 377.972656 101.25 377.371094 101.222656 376.730469 C 101.167969 376.316406 101.113281 375.902344 101.058594 375.488281 C 100.835938 374.695312 100.433594 374.007812 99.855469 373.425781 C 99.738281 373.332031 99.617188 373.242188 99.5 373.148438 C 99.480469 370.847656 98.832031 367.902344 97.097656 365.191406 C 93.960938 360.234375 88.882812 357.261719 86.746094 358.625 C 85.425781 359.445312 85.390625 362.078125 86.164062 364.851562 C 86.347656 364.308594 86.664062 363.898438 87.074219 363.625" fill="#ff6d00"/></g><g id="change1_10"><path d="M 80.589844 462.882812 L 79.605469 462.121094 C 78.847656 461.683594 78.027344 461.460938 77.152344 461.457031 C 76.480469 461.433594 75.855469 461.570312 75.277344 461.878906 C 74.671875 462.074219 74.152344 462.410156 73.710938 462.882812 C 73.234375 463.324219 72.902344 463.84375 72.703125 464.449219 C 72.398438 465.027344 72.261719 465.652344 72.285156 466.324219 C 72.34375 466.753906 72.402344 467.183594 72.460938 467.617188 C 72.691406 468.441406 73.105469 469.15625 73.710938 469.761719 L 74.695312 470.523438 C 75.453125 470.964844 76.273438 471.183594 77.152344 471.1875 C 77.820312 471.214844 78.445312 471.074219 79.023438 470.769531 C 79.628906 470.574219 80.148438 470.238281 80.589844 469.761719 C 81.066406 469.320312 81.398438 468.800781 81.597656 468.195312 C 81.902344 467.617188 82.039062 466.992188 82.015625 466.324219 L 81.839844 465.03125 C 81.609375 464.207031 81.191406 463.488281 80.589844 462.882812" fill="#ff6d00"/></g><g id="change1_11"><path d="M 59.019531 517.539062 C 59.296875 517.007812 59.425781 516.433594 59.402344 515.816406 L 59.242188 514.625 C 59.03125 513.867188 58.648438 513.210938 58.09375 512.652344 C 57.789062 512.417969 57.488281 512.1875 57.1875 511.953125 C 56.488281 511.546875 55.734375 511.34375 54.929688 511.34375 C 54.3125 511.316406 53.738281 511.445312 53.207031 511.726562 C 52.652344 511.90625 52.171875 512.214844 51.765625 512.652344 C 51.328125 513.058594 51.019531 513.535156 50.839844 514.089844 C 50.558594 514.625 50.429688 515.199219 50.453125 515.816406 C 50.507812 516.210938 50.5625 516.609375 50.613281 517.003906 C 50.828125 517.761719 51.210938 518.421875 51.765625 518.980469 C 52.066406 519.210938 52.367188 519.445312 52.671875 519.679688 C 53.367188 520.082031 54.121094 520.285156 54.929688 520.289062 C 55.542969 520.3125 56.121094 520.183594 56.652344 519.90625 C 57.207031 519.722656 57.6875 519.414062 58.09375 518.980469 C 58.527344 518.574219 58.835938 518.09375 59.019531 517.539062" fill="#ff6d00"/></g><g id="change1_12"><path d="M 52.683594 442.867188 C 53.210938 442.378906 53.582031 441.800781 53.800781 441.132812 C 54.140625 440.488281 54.292969 439.792969 54.265625 439.050781 C 54.203125 438.574219 54.136719 438.09375 54.074219 437.617188 C 53.816406 436.703125 53.355469 435.90625 52.683594 435.234375 C 52.320312 434.953125 51.957031 434.671875 51.59375 434.390625 C 50.75 433.902344 49.84375 433.65625 48.867188 433.652344 C 48.125 433.625 47.433594 433.78125 46.789062 434.117188 C 46.121094 434.335938 45.539062 434.707031 45.050781 435.234375 C 44.527344 435.722656 44.152344 436.304688 43.9375 436.972656 C 43.597656 437.613281 43.441406 438.308594 43.472656 439.050781 C 43.535156 439.53125 43.597656 440.007812 43.664062 440.484375 C 43.921875 441.402344 44.382812 442.195312 45.050781 442.867188 C 45.414062 443.148438 45.78125 443.429688 46.144531 443.710938 C 46.984375 444.199219 47.894531 444.445312 48.867188 444.449219 C 49.613281 444.476562 50.304688 444.320312 50.949219 443.984375 C 51.617188 443.765625 52.195312 443.394531 52.683594 442.867188" fill="#ff6d00"/></g><g id="change1_13"><path d="M 94.671875 515.457031 C 94.269531 515.148438 93.867188 514.835938 93.464844 514.527344 C 92.535156 513.988281 91.53125 513.714844 90.457031 513.710938 C 89.636719 513.683594 88.871094 513.851562 88.160156 514.226562 C 87.421875 514.46875 86.78125 514.875 86.242188 515.457031 C 85.660156 515.996094 85.25 516.636719 85.011719 517.375 C 84.636719 518.085938 84.464844 518.851562 84.496094 519.671875 C 84.570312 520.199219 84.640625 520.726562 84.710938 521.257812 C 84.992188 522.265625 85.503906 523.144531 86.242188 523.886719 C 86.644531 524.195312 87.046875 524.507812 87.449219 524.820312 C 88.378906 525.359375 89.382812 525.628906 90.457031 525.632812 C 91.277344 525.664062 92.042969 525.492188 92.753906 525.117188 C 93.492188 524.878906 94.132812 524.46875 94.671875 523.886719 C 95.253906 523.347656 95.664062 522.707031 95.902344 521.96875 C 96.277344 521.257812 96.449219 520.492188 96.417969 519.671875 C 96.34375 519.144531 96.273438 518.617188 96.203125 518.089844 C 95.921875 517.078125 95.410156 516.203125 94.671875 515.457031" fill="#ff6d00"/></g><g id="change1_14"><path d="M 107.097656 484.5 C 107.855469 484.941406 108.679688 485.164062 109.558594 485.167969 C 110.230469 485.191406 110.859375 485.050781 111.4375 484.746094 C 112.042969 484.550781 112.566406 484.214844 113.011719 483.738281 C 113.484375 483.296875 113.820312 482.773438 114.019531 482.167969 C 114.324219 481.585938 114.464844 480.960938 114.4375 480.285156 C 114.382812 479.855469 114.324219 479.421875 114.265625 478.988281 C 114.03125 478.164062 113.613281 477.445312 113.011719 476.835938 C 112.679688 476.582031 112.351562 476.328125 112.023438 476.074219 C 111.261719 475.632812 110.441406 475.410156 109.558594 475.40625 C 108.886719 475.382812 108.261719 475.519531 107.679688 475.828125 C 107.074219 476.023438 106.550781 476.359375 106.109375 476.835938 C 105.632812 477.277344 105.296875 477.800781 105.097656 478.40625 C 104.792969 478.988281 104.652344 479.613281 104.679688 480.285156 C 104.738281 480.71875 104.796875 481.152344 104.851562 481.585938 C 105.085938 482.410156 105.503906 483.128906 106.109375 483.738281 C 106.4375 483.992188 106.765625 484.246094 107.097656 484.5" fill="#ff6d00"/></g><g id="change1_15"><path d="M 85.90625 441.578125 C 85.84375 441.113281 85.78125 440.652344 85.71875 440.1875 C 85.472656 439.304688 85.023438 438.535156 84.375 437.886719 C 84.023438 437.613281 83.671875 437.339844 83.320312 437.070312 C 82.507812 436.597656 81.628906 436.359375 80.683594 436.355469 C 79.96875 436.328125 79.296875 436.480469 78.675781 436.804688 C 78.027344 437.015625 77.46875 437.375 76.996094 437.886719 C 76.484375 438.359375 76.125 438.917969 75.914062 439.566406 C 75.589844 440.1875 75.4375 440.859375 75.464844 441.578125 C 75.527344 442.039062 75.589844 442.503906 75.652344 442.964844 C 75.898438 443.847656 76.347656 444.617188 76.996094 445.269531 C 77.347656 445.539062 77.699219 445.8125 78.050781 446.085938 C 78.863281 446.554688 79.742188 446.792969 80.683594 446.796875 C 81.402344 446.824219 82.074219 446.675781 82.695312 446.347656 C 83.34375 446.136719 83.902344 445.777344 84.375 445.269531 C 84.886719 444.796875 85.246094 444.234375 85.457031 443.589844 C 85.78125 442.964844 85.933594 442.296875 85.90625 441.578125" fill="#ff6d00"/></g><g id="change1_16"><path d="M 77.109375 376.46875 C 76.875 376.285156 76.636719 376.101562 76.398438 375.917969 C 75.851562 375.597656 75.261719 375.441406 74.625 375.4375 C 74.140625 375.417969 73.691406 375.519531 73.269531 375.738281 C 72.835938 375.882812 72.457031 376.125 72.140625 376.46875 C 71.796875 376.785156 71.554688 377.160156 71.414062 377.597656 C 71.191406 378.019531 71.089844 378.46875 71.109375 378.953125 C 71.152344 379.265625 71.195312 379.574219 71.234375 379.886719 C 71.402344 380.484375 71.703125 381 72.140625 381.4375 C 72.375 381.621094 72.613281 381.804688 72.851562 381.988281 C 73.398438 382.308594 73.992188 382.46875 74.625 382.46875 C 75.109375 382.488281 75.558594 382.386719 75.980469 382.164062 C 76.414062 382.023438 76.792969 381.78125 77.109375 381.4375 C 77.453125 381.121094 77.695312 380.742188 77.839844 380.308594 C 78.058594 379.890625 78.160156 379.4375 78.140625 378.953125 C 78.097656 378.640625 78.058594 378.328125 78.015625 378.019531 C 77.847656 377.421875 77.546875 376.90625 77.109375 376.46875" fill="#ff6d00"/></g><g id="change1_17"><path d="M 18.023438 403.5 C 18.738281 403.265625 19.359375 402.867188 19.882812 402.304688 C 20.445312 401.78125 20.84375 401.160156 21.078125 400.445312 C 21.441406 399.757812 21.605469 399.015625 21.574219 398.21875 C 21.507812 397.707031 21.4375 397.195312 21.367188 396.683594 C 21.09375 395.703125 20.597656 394.855469 19.882812 394.132812 C 19.492188 393.832031 19.101562 393.53125 18.714844 393.230469 C 17.8125 392.707031 16.839844 392.445312 15.796875 392.441406 C 15.003906 392.410156 14.261719 392.578125 13.574219 392.941406 C 12.855469 393.171875 12.234375 393.570312 11.714844 394.132812 C 11.148438 394.65625 10.75 395.277344 10.519531 395.992188 C 10.15625 396.683594 9.992188 397.425781 10.019531 398.21875 C 10.089844 398.730469 10.15625 399.242188 10.226562 399.753906 C 10.5 400.734375 10.996094 401.582031 11.714844 402.304688 C 12.101562 402.605469 12.492188 402.90625 12.882812 403.207031 C 13.78125 403.730469 14.753906 403.992188 15.796875 403.996094 C 16.59375 404.027344 17.335938 403.859375 18.023438 403.5" fill="#ff6d00"/></g><g id="change1_18"><path d="M 9.277344 463.996094 C 8.910156 463.714844 8.542969 463.429688 8.179688 463.148438 C 7.332031 462.65625 6.417969 462.40625 5.4375 462.40625 C 4.6875 462.378906 3.988281 462.53125 3.34375 462.871094 C 2.667969 463.09375 2.085938 463.46875 1.59375 463.996094 C 1.066406 464.488281 0.691406 465.070312 0.472656 465.746094 C 0.128906 466.390625 -0.0234375 467.089844 0.00390625 467.839844 C 0.0664062 468.320312 0.132812 468.800781 0.199219 469.28125 C 0.457031 470.203125 0.921875 471 1.59375 471.679688 C 1.960938 471.964844 2.328125 472.246094 2.695312 472.527344 C 3.542969 473.019531 4.457031 473.269531 5.4375 473.269531 C 6.183594 473.300781 6.882812 473.144531 7.53125 472.804688 C 8.203125 472.585938 8.785156 472.210938 9.277344 471.679688 C 9.808594 471.1875 10.183594 470.605469 10.402344 469.929688 C 10.742188 469.285156 10.898438 468.585938 10.867188 467.839844 C 10.804688 467.355469 10.738281 466.875 10.675781 466.394531 C 10.417969 465.472656 9.949219 464.675781 9.277344 463.996094" fill="#ff6d00"/></g><g id="change1_19"><path d="M 39.777344 480.195312 C 38.976562 480.164062 38.226562 480.332031 37.535156 480.695312 C 36.8125 480.933594 36.1875 481.332031 35.660156 481.902344 C 35.09375 482.429688 34.691406 483.054688 34.457031 483.773438 C 34.089844 484.46875 33.925781 485.21875 33.953125 486.019531 L 34.164062 487.566406 C 34.4375 488.554688 34.9375 489.410156 35.660156 490.136719 C 36.050781 490.441406 36.445312 490.742188 36.839844 491.046875 C 37.746094 491.574219 38.726562 491.839844 39.777344 491.84375 C 40.582031 491.871094 41.328125 491.707031 42.023438 491.339844 C 42.742188 491.105469 43.367188 490.703125 43.894531 490.136719 C 44.464844 489.609375 44.863281 488.984375 45.101562 488.261719 C 45.464844 487.570312 45.632812 486.820312 45.601562 486.019531 C 45.53125 485.503906 45.464844 484.988281 45.394531 484.472656 C 45.117188 483.484375 44.617188 482.628906 43.894531 481.902344 L 42.71875 480.992188 C 41.808594 480.464844 40.828125 480.199219 39.777344 480.195312" fill="#ff6d00"/></g><g id="change1_20"><path d="M 74.222656 556.964844 C 73.808594 556.648438 73.394531 556.328125 72.980469 556.007812 C 72.023438 555.453125 70.992188 555.171875 69.886719 555.167969 C 69.042969 555.136719 68.253906 555.3125 67.523438 555.699219 C 66.761719 555.945312 66.105469 556.367188 65.550781 556.964844 C 64.953125 557.523438 64.527344 558.179688 64.28125 558.941406 C 63.898438 559.671875 63.722656 560.457031 63.753906 561.304688 C 63.828125 561.847656 63.898438 562.390625 63.972656 562.933594 C 64.265625 563.972656 64.789062 564.875 65.550781 565.640625 C 65.964844 565.957031 66.378906 566.277344 66.789062 566.597656 C 67.746094 567.152344 68.78125 567.433594 69.886719 567.433594 C 70.730469 567.46875 71.519531 567.289062 72.25 566.90625 C 73.007812 566.660156 73.667969 566.238281 74.222656 565.640625 C 74.820312 565.082031 75.242188 564.425781 75.492188 563.664062 C 75.875 562.933594 76.050781 562.148438 76.019531 561.304688 C 75.945312 560.757812 75.871094 560.214844 75.800781 559.671875 C 75.507812 558.632812 74.980469 557.730469 74.222656 556.964844" fill="#ff6d00"/></g><g id="change1_21"><path d="M 109.859375 507.136719 C 110.292969 506.734375 110.601562 506.253906 110.78125 505.699219 C 111.0625 505.167969 111.191406 504.59375 111.167969 503.980469 C 111.113281 503.582031 111.0625 503.1875 111.007812 502.792969 C 110.796875 502.035156 110.410156 501.378906 109.859375 500.820312 C 109.558594 500.589844 109.257812 500.355469 108.953125 500.121094 C 108.257812 499.71875 107.507812 499.515625 106.699219 499.511719 C 106.085938 499.488281 105.511719 499.617188 104.980469 499.898438 C 104.425781 500.078125 103.945312 500.386719 103.542969 500.820312 C 103.105469 501.226562 102.800781 501.703125 102.617188 502.257812 C 102.339844 502.789062 102.210938 503.363281 102.234375 503.980469 C 102.285156 504.375 102.339844 504.769531 102.394531 505.164062 C 102.605469 505.921875 102.988281 506.578125 103.542969 507.136719 C 103.84375 507.371094 104.144531 507.601562 104.445312 507.835938 C 105.144531 508.238281 105.894531 508.441406 106.699219 508.445312 C 107.316406 508.46875 107.890625 508.339844 108.421875 508.058594 C 108.976562 507.882812 109.453125 507.574219 109.859375 507.136719" fill="#ff6d00"/></g><g id="change1_22"><path d="M 57.515625 396.328125 L 56.90625 395.535156 C 56.550781 395.15625 56.132812 394.886719 55.648438 394.730469 C 55.34375 394.550781 55.015625 394.464844 54.660156 394.460938 C 54.144531 394.347656 53.621094 394.367188 53.105469 394.53125 C 52.792969 394.664062 52.480469 394.792969 52.171875 394.925781 C 51.90625 395.128906 51.644531 395.332031 51.378906 395.535156 C 51 395.890625 50.730469 396.308594 50.574219 396.792969 C 50.394531 397.097656 50.308594 397.425781 50.304688 397.777344 C 50.191406 398.296875 50.214844 398.816406 50.375 399.335938 L 50.769531 400.269531 L 51.378906 401.058594 C 51.328125 400.914062 51.167969 400.707031 51.007812 400.5 C 51.21875 400.835938 51.53125 401.074219 51.832031 401.320312 C 52.222656 401.621094 52.613281 401.925781 53.097656 402.0625 C 52.804688 401.9375 52.511719 401.8125 52.21875 401.691406 C 52.867188 402.066406 53.398438 402.238281 54.117188 402.238281 C 54.460938 402.238281 54.816406 402.195312 55.144531 402.097656 C 55.761719 401.910156 56.46875 401.550781 56.90625 401.058594 C 57.285156 400.707031 57.554688 400.285156 57.710938 399.804688 C 57.886719 399.5 57.976562 399.171875 57.976562 398.816406 C 58.09375 398.296875 58.070312 397.777344 57.910156 397.261719 L 57.515625 396.328125" fill="#ff6d00"/></g><g id="change1_23"><path d="M 51.488281 401.125 C 51.703125 401.292969 51.914062 401.453125 52.125 401.617188 C 52.007812 401.539062 51.9375 401.410156 51.832031 401.320312 C 51.726562 401.242188 51.589844 401.214844 51.488281 401.125" fill="#ff6d00"/></g><g id="change1_24"><path d="M 33.363281 415.078125 C 34.394531 415.675781 35.503906 415.976562 36.695312 415.980469 C 37.605469 416.015625 38.453125 415.824219 39.242188 415.410156 C 40.058594 415.144531 40.769531 414.691406 41.367188 414.046875 C 42.011719 413.445312 42.464844 412.738281 42.734375 411.921875 C 43.148438 411.132812 43.335938 410.285156 43.300781 409.375 C 43.222656 408.789062 43.144531 408.203125 43.066406 407.617188 C 42.753906 406.5 42.1875 405.527344 41.367188 404.703125 C 40.921875 404.359375 40.476562 404.015625 40.03125 403.671875 C 39 403.074219 37.890625 402.773438 36.695312 402.769531 C 35.789062 402.734375 34.941406 402.925781 34.152344 403.339844 C 33.332031 403.605469 32.625 404.0625 32.027344 404.703125 C 31.382812 405.304688 30.925781 406.011719 30.660156 406.832031 C 30.246094 407.617188 30.058594 408.464844 30.09375 409.375 C 30.171875 409.960938 30.25 410.546875 30.328125 411.132812 C 30.640625 412.25 31.207031 413.222656 32.027344 414.046875 C 32.472656 414.390625 32.917969 414.734375 33.363281 415.078125" fill="#ff6d00"/></g><g id="change1_25"><path d="M 24.203125 434.175781 C 23.832031 433.890625 23.464844 433.605469 23.09375 433.320312 C 22.242188 432.824219 21.320312 432.574219 20.335938 432.574219 C 19.582031 432.542969 18.878906 432.699219 18.226562 433.042969 C 17.550781 433.265625 16.964844 433.640625 16.46875 434.175781 C 15.933594 434.671875 15.558594 435.257812 15.335938 435.933594 C 14.996094 436.585938 14.835938 437.289062 14.867188 438.042969 C 14.929688 438.527344 14.996094 439.011719 15.0625 439.496094 C 15.320312 440.421875 15.789062 441.226562 16.46875 441.90625 C 16.835938 442.191406 17.207031 442.476562 17.574219 442.761719 C 18.425781 443.257812 19.347656 443.507812 20.335938 443.511719 C 21.085938 443.539062 21.789062 443.382812 22.441406 443.039062 C 23.117188 442.816406 23.707031 442.441406 24.203125 441.90625 C 24.734375 441.414062 25.109375 440.824219 25.332031 440.148438 C 25.675781 439.496094 25.832031 438.792969 25.804688 438.042969 C 25.738281 437.558594 25.671875 437.070312 25.609375 436.585938 C 25.347656 435.660156 24.878906 434.855469 24.203125 434.175781" fill="#ff6d00"/></g><g id="change1_26"><path d="M 65.632812 461.828125 C 65.167969 461.472656 64.710938 461.117188 64.246094 460.761719 C 63.179688 460.144531 62.03125 459.832031 60.796875 459.828125 C 59.855469 459.792969 58.976562 459.988281 58.160156 460.417969 C 57.3125 460.691406 56.582031 461.164062 55.960938 461.828125 C 55.292969 462.449219 54.824219 463.183594 54.546875 464.03125 C 54.117188 464.847656 53.921875 465.722656 53.957031 466.664062 C 54.039062 467.273438 54.121094 467.878906 54.203125 468.484375 C 54.527344 469.640625 55.113281 470.648438 55.960938 471.5 C 56.421875 471.855469 56.882812 472.214844 57.34375 472.570312 C 58.410156 473.1875 59.5625 473.5 60.796875 473.503906 C 61.738281 473.539062 62.617188 473.34375 63.429688 472.914062 C 64.277344 472.640625 65.011719 472.167969 65.632812 471.5 C 66.296875 470.882812 66.769531 470.148438 67.046875 469.300781 C 67.472656 468.484375 67.667969 467.605469 67.632812 466.664062 C 67.550781 466.058594 67.472656 465.453125 67.390625 464.847656 C 67.066406 463.691406 66.476562 462.683594 65.632812 461.828125" fill="#ff6d00"/></g><g id="change1_27"><path d="M 44.445312 550.289062 C 43.953125 549.90625 43.457031 549.523438 42.964844 549.144531 C 41.824219 548.484375 40.59375 548.148438 39.273438 548.144531 C 38.265625 548.109375 37.328125 548.316406 36.453125 548.777344 C 35.546875 549.070312 34.761719 549.574219 34.101562 550.289062 C 33.386719 550.949219 32.882812 551.734375 32.589844 552.640625 C 32.128906 553.515625 31.917969 554.453125 31.957031 555.460938 C 32.042969 556.109375 32.132812 556.757812 32.21875 557.40625 C 32.566406 558.644531 33.195312 559.71875 34.101562 560.632812 C 34.59375 561.015625 35.085938 561.394531 35.582031 561.777344 C 36.722656 562.4375 37.953125 562.769531 39.273438 562.777344 C 40.28125 562.8125 41.21875 562.601562 42.089844 562.144531 C 42.996094 561.851562 43.78125 561.347656 44.445312 560.632812 C 45.160156 559.96875 45.664062 559.1875 45.957031 558.277344 C 46.414062 557.40625 46.625 556.46875 46.589844 555.460938 C 46.5 554.8125 46.414062 554.164062 46.328125 553.515625 C 45.980469 552.277344 45.351562 551.199219 44.445312 550.289062" fill="#ff6d00"/></g><g id="change1_28"><path d="M 64.308594 490.757812 C 63.671875 491.351562 63.222656 492.050781 62.960938 492.859375 C 62.550781 493.640625 62.363281 494.480469 62.398438 495.378906 C 62.472656 495.957031 62.550781 496.535156 62.628906 497.117188 C 62.941406 498.222656 63.5 499.183594 64.308594 500 C 64.75 500.339844 65.191406 500.679688 65.632812 501.019531 C 66.652344 501.609375 67.75 501.90625 68.929688 501.910156 C 69.828125 501.945312 70.667969 501.757812 71.449219 501.351562 C 72.257812 501.085938 72.957031 500.636719 73.550781 500 C 74.1875 499.40625 74.636719 498.707031 74.902344 497.894531 C 75.308594 497.117188 75.496094 496.277344 75.464844 495.378906 C 75.386719 494.800781 75.308594 494.21875 75.230469 493.640625 C 74.917969 492.535156 74.359375 491.574219 73.550781 490.757812 C 73.109375 490.417969 72.667969 490.078125 72.226562 489.738281 C 71.210938 489.144531 70.109375 488.847656 68.929688 488.84375 C 68.03125 488.8125 67.191406 488.996094 66.414062 489.40625 C 65.601562 489.671875 64.902344 490.121094 64.308594 490.757812" fill="#ff6d00"/></g><g id="change1_29"><path d="M 22.609375 516.039062 C 22.320312 515.816406 22.027344 515.589844 21.738281 515.367188 C 21.066406 514.976562 20.339844 514.78125 19.5625 514.777344 C 18.972656 514.753906 18.417969 514.878906 17.90625 515.148438 C 17.371094 515.324219 16.910156 515.621094 16.519531 516.039062 C 16.097656 516.429688 15.800781 516.890625 15.628906 517.425781 C 15.359375 517.9375 15.234375 518.492188 15.257812 519.085938 C 15.308594 519.46875 15.359375 519.847656 15.410156 520.230469 C 15.613281 520.960938 15.984375 521.59375 16.519531 522.128906 C 16.808594 522.355469 17.097656 522.582031 17.390625 522.804688 C 18.0625 523.195312 18.785156 523.390625 19.5625 523.394531 C 20.15625 523.414062 20.710938 523.292969 21.222656 523.023438 C 21.757812 522.847656 22.21875 522.550781 22.609375 522.128906 C 23.03125 521.742188 23.328125 521.277344 23.5 520.746094 C 23.769531 520.230469 23.894531 519.679688 23.871094 519.085938 L 23.71875 517.941406 C 23.511719 517.210938 23.144531 516.578125 22.609375 516.039062" fill="#ff6d00"/></g><g clip-path="url(#b)" id="change1_67"><path d="M 67.621094 589.984375 C 67.191406 589.648438 66.761719 589.316406 66.332031 588.984375 C 65.335938 588.40625 64.261719 588.117188 63.109375 588.113281 C 62.230469 588.078125 61.410156 588.261719 60.652344 588.664062 C 59.859375 588.917969 59.175781 589.359375 58.597656 589.984375 C 57.976562 590.558594 57.535156 591.246094 57.277344 592.035156 C 56.878906 592.796875 56.695312 593.617188 56.730469 594.496094 C 56.804688 595.058594 56.882812 595.625 56.957031 596.191406 C 57.261719 597.273438 57.808594 598.210938 58.597656 599.007812 C 59.027344 599.339844 59.460938 599.671875 59.890625 600.003906 C 60.886719 600.582031 61.957031 600.871094 63.109375 600.875 C 63.988281 600.910156 64.808594 600.726562 65.570312 600.324219 C 66.359375 600.066406 67.042969 599.628906 67.621094 599.007812 C 68.246094 598.429688 68.683594 597.742188 68.941406 596.953125 C 69.339844 596.191406 69.523438 595.371094 69.492188 594.496094 C 69.414062 593.929688 69.339844 593.363281 69.265625 592.796875 C 68.960938 591.71875 68.414062 590.777344 67.621094 589.984375" fill="#ff6d00"/></g><g id="change1_30"><path d="M 118.578125 525 C 118.15625 524.675781 117.738281 524.351562 117.316406 524.023438 C 116.34375 523.460938 115.296875 523.179688 114.171875 523.175781 C 113.3125 523.140625 112.511719 523.320312 111.769531 523.710938 C 110.996094 523.960938 110.324219 524.390625 109.761719 525 C 109.152344 525.566406 108.722656 526.234375 108.472656 527.007812 C 108.082031 527.75 107.902344 528.550781 107.933594 529.410156 C 108.011719 529.960938 108.085938 530.515625 108.15625 531.066406 C 108.453125 532.121094 108.988281 533.039062 109.761719 533.816406 C 110.183594 534.140625 110.601562 534.46875 111.023438 534.792969 C 111.996094 535.355469 113.046875 535.640625 114.171875 535.644531 C 115.027344 535.675781 115.828125 535.496094 116.570312 535.105469 C 117.34375 534.855469 118.015625 534.425781 118.578125 533.816406 C 119.1875 533.25 119.617188 532.582031 119.867188 531.8125 C 120.257812 531.066406 120.4375 530.265625 120.40625 529.410156 C 120.328125 528.855469 120.257812 528.304688 120.183594 527.75 C 119.886719 526.695312 119.351562 525.777344 118.578125 525" fill="#ff6d00"/></g><g id="change1_31"><path d="M 490.535156 70.878906 C 546.4375 139.011719 560.761719 260.183594 479.304688 314.042969 C 453.90625 330.328125 422.828125 337.773438 391.445312 337.253906 C 422.28125 343.453125 456.125 339.113281 484.757812 323.179688 C 575.953125 271.917969 563.308594 132.683594 490.535156 70.878906" fill="#ff6d00"/></g><g id="change1_32"><path d="M 235.121094 378.136719 C 252.269531 371.015625 276.707031 360.582031 294.050781 354.738281 C 311.324219 348.425781 336.691406 341.304688 354.640625 336.070312 C 311.6875 334.601562 267.707031 350.132812 235.121094 378.136719" fill="#ff6d00"/></g><g id="change1_33"><path d="M 245.003906 335.554688 C 244.101562 335.03125 243.128906 334.769531 242.085938 334.765625 C 241.039062 334.769531 240.066406 335.03125 239.164062 335.554688 C 238.957031 335.695312 238.757812 335.851562 238.566406 336.015625 C 238.132812 336.273438 237.789062 336.617188 237.53125 337.050781 C 237.234375 337.4375 237.1875 337.421875 237.074219 337.652344 C 236.839844 338.1875 236.652344 338.628906 236.46875 339.070312 C 236.402344 339.5625 236.335938 340.054688 236.269531 340.546875 C 236.273438 341.550781 236.523438 342.484375 237.027344 343.351562 C 237.519531 344.355469 238.332031 344.972656 239.164062 345.539062 C 240.066406 346.0625 241.039062 346.328125 242.085938 346.328125 C 243.128906 346.328125 244.101562 346.0625 245.003906 345.539062 C 245.871094 345.027344 246.5625 344.335938 247.078125 343.464844 C 247.601562 342.566406 247.863281 341.59375 247.867188 340.546875 C 247.863281 339.503906 247.601562 338.53125 247.078125 337.628906 C 246.5625 336.761719 245.871094 336.070312 245.003906 335.554688" fill="#ff6d00"/></g><g id="change1_34"><path d="M 239.265625 368.5625 C 240.238281 368.601562 241.144531 368.398438 241.988281 367.953125 C 242.863281 367.671875 243.621094 367.183594 244.261719 366.492188 C 244.949219 365.855469 245.4375 365.097656 245.722656 364.21875 C 246.164062 363.378906 246.367188 362.46875 246.332031 361.496094 L 246.078125 359.617188 C 245.742188 358.421875 245.136719 357.382812 244.261719 356.5 C 243.785156 356.132812 243.308594 355.765625 242.832031 355.394531 C 241.730469 354.757812 240.539062 354.433594 239.265625 354.429688 C 238.289062 354.394531 237.382812 354.597656 236.542969 355.039062 C 235.664062 355.324219 234.90625 355.8125 234.269531 356.5 C 233.578125 357.140625 233.09375 357.898438 232.808594 358.773438 C 232.363281 359.617188 232.160156 360.523438 232.199219 361.496094 C 232.28125 362.125 232.367188 362.75 232.449219 363.375 C 232.785156 364.574219 233.390625 365.613281 234.269531 366.492188 C 234.742188 366.863281 235.222656 367.230469 235.699219 367.597656 C 236.800781 368.238281 237.988281 368.558594 239.265625 368.5625" fill="#ff6d00"/></g><g id="change1_35"><path d="M 299.859375 330.214844 C 298.898438 329.652344 297.859375 329.371094 296.742188 329.367188 C 295.894531 329.335938 295.101562 329.515625 294.363281 329.902344 C 293.597656 330.152344 292.9375 330.574219 292.378906 331.179688 C 291.773438 331.738281 291.347656 332.398438 291.097656 333.164062 C 290.714844 333.902344 290.535156 334.695312 290.566406 335.546875 C 290.640625 336.09375 290.714844 336.640625 290.789062 337.1875 C 291.082031 338.234375 291.609375 339.140625 292.378906 339.910156 C 292.792969 340.234375 293.210938 340.554688 293.625 340.878906 C 294.589844 341.4375 295.628906 341.71875 296.742188 341.71875 C 297.59375 341.753906 298.386719 341.574219 299.121094 341.1875 C 299.886719 340.9375 300.550781 340.515625 301.109375 339.910156 C 301.710938 339.351562 302.136719 338.691406 302.386719 337.925781 C 302.773438 337.1875 302.949219 336.394531 302.917969 335.546875 C 302.84375 334.996094 302.769531 334.449219 302.699219 333.902344 C 302.40625 332.855469 301.875 331.949219 301.109375 331.179688 C 300.691406 330.855469 300.277344 330.535156 299.859375 330.214844" fill="#ff6d00"/></g><g id="change1_36"><path d="M 271.800781 305.652344 C 270.875 305.117188 269.878906 304.847656 268.808594 304.84375 C 267.992188 304.8125 267.230469 304.984375 266.523438 305.355469 C 265.789062 305.59375 265.152344 306.003906 264.613281 306.582031 C 264.035156 307.117188 263.628906 307.753906 263.390625 308.488281 C 263.019531 309.195312 262.847656 309.957031 262.878906 310.773438 C 262.949219 311.300781 263.019531 311.824219 263.089844 312.351562 C 263.371094 313.355469 263.878906 314.226562 264.613281 314.96875 L 265.816406 315.894531 C 266.738281 316.429688 267.738281 316.699219 268.808594 316.703125 C 269.625 316.734375 270.386719 316.566406 271.09375 316.195312 C 271.828125 315.953125 272.464844 315.546875 273 314.96875 C 273.578125 314.429688 273.988281 313.792969 274.226562 313.058594 C 274.597656 312.351562 274.769531 311.589844 274.738281 310.773438 C 274.667969 310.25 274.597656 309.722656 274.527344 309.199219 C 274.246094 308.191406 273.738281 307.320312 273 306.582031 C 272.601562 306.269531 272.199219 305.964844 271.800781 305.652344" fill="#ff6d00"/></g><g id="change1_37"><path d="M 347.460938 335.960938 C 353.050781 335.960938 353.058594 327.269531 347.460938 327.269531 C 341.867188 327.269531 341.859375 335.960938 347.460938 335.960938" fill="#ff6d00"/></g><g id="change1_38"><path d="M 323.210938 310.34375 C 323.027344 309.9375 322.941406 309.773438 322.710938 309.570312 C 322.511719 309.355469 322.277344 309.203125 322.003906 309.117188 C 321.742188 308.976562 321.460938 308.914062 321.160156 308.925781 C 320.964844 308.953125 320.769531 308.980469 320.574219 309.003906 C 320.203125 309.109375 319.882812 309.296875 319.609375 309.570312 C 319.375 309.777344 319.292969 309.9375 319.183594 310.171875 C 319.058594 310.457031 319.003906 310.574219 318.953125 310.6875 C 318.71875 311.089844 318.605469 311.519531 318.601562 311.980469 C 318.605469 312.441406 318.71875 312.871094 318.953125 313.269531 C 319.40625 314.046875 320.257812 314.535156 321.160156 314.535156 C 322.058594 314.535156 322.910156 314.046875 323.367188 313.269531 C 323.597656 312.871094 323.714844 312.441406 323.714844 311.980469 C 323.714844 311.519531 323.597656 311.089844 323.367188 310.6875 C 323.3125 310.574219 323.261719 310.457031 323.210938 310.34375" fill="#ff6d00"/></g><g id="change1_39"><path d="M 358.132812 279.769531 C 357.691406 279.429688 357.253906 279.09375 356.816406 278.753906 C 355.804688 278.164062 354.710938 277.867188 353.535156 277.867188 C 352.640625 277.832031 351.808594 278.019531 351.03125 278.425781 C 350.226562 278.6875 349.53125 279.136719 348.941406 279.769531 C 348.308594 280.359375 347.859375 281.054688 347.597656 281.859375 C 347.191406 282.636719 347.003906 283.46875 347.039062 284.363281 C 347.113281 284.941406 347.191406 285.515625 347.269531 286.09375 C 347.578125 287.191406 348.136719 288.148438 348.941406 288.960938 C 349.378906 289.296875 349.816406 289.636719 350.257812 289.976562 C 351.269531 290.5625 352.363281 290.859375 353.535156 290.863281 C 354.429688 290.894531 355.265625 290.710938 356.039062 290.304688 C 356.847656 290.039062 357.542969 289.59375 358.132812 288.960938 C 358.765625 288.371094 359.214844 287.671875 359.476562 286.867188 C 359.882812 286.09375 360.066406 285.257812 360.035156 284.363281 C 359.957031 283.789062 359.878906 283.210938 359.804688 282.636719 C 359.492188 281.535156 358.9375 280.578125 358.132812 279.769531" fill="#ff6d00"/></g><g id="change1_40"><path d="M 372.160156 293.585938 C 371.773438 292.867188 371.242188 292.289062 370.570312 291.851562 C 370.183594 291.46875 369.730469 291.203125 369.207031 291.058594 C 368.472656 290.671875 367.679688 290.492188 366.828125 290.527344 C 366.683594 290.511719 366.542969 290.496094 366.398438 290.480469 C 365.601562 290.449219 364.855469 290.617188 364.164062 290.980469 C 363.449219 291.214844 362.828125 291.613281 362.300781 292.175781 C 362 292.566406 361.699219 292.960938 361.394531 293.351562 C 360.871094 294.253906 360.605469 295.226562 360.605469 296.273438 C 360.621094 296.417969 360.636719 296.558594 360.652344 296.703125 C 360.726562 297.25 360.796875 297.796875 360.871094 298.34375 L 361.492188 299.820312 C 361.882812 300.539062 362.414062 301.117188 363.085938 301.554688 C 363.46875 301.9375 363.925781 302.199219 364.449219 302.347656 C 364.929688 302.628906 365.449219 302.769531 366.007812 302.769531 C 366.554688 302.917969 367.101562 302.917969 367.648438 302.769531 C 368.207031 302.769531 368.726562 302.628906 369.207031 302.347656 C 369.972656 302.097656 370.636719 301.671875 371.195312 301.070312 C 371.519531 300.652344 371.839844 300.238281 372.160156 299.820312 L 372.785156 298.34375 L 373.003906 296.703125 L 372.785156 295.0625 C 372.578125 294.570312 372.367188 294.078125 372.160156 293.585938" fill="#ff6d00"/></g><g id="change1_41"><path d="M 393.664062 286.769531 C 394.101562 285.941406 394.300781 285.046875 394.265625 284.085938 L 394.015625 282.238281 C 393.683594 281.058594 393.089844 280.035156 392.226562 279.164062 C 391.757812 278.804688 391.285156 278.441406 390.816406 278.078125 C 389.730469 277.449219 388.5625 277.132812 387.304688 277.128906 C 386.347656 277.089844 385.453125 277.289062 384.621094 277.726562 C 383.761719 278.007812 383.015625 278.488281 382.382812 279.164062 C 381.703125 279.796875 381.226562 280.542969 380.945312 281.40625 C 380.507812 282.234375 380.308594 283.128906 380.34375 284.085938 C 380.425781 284.703125 380.511719 285.320312 380.59375 285.9375 C 380.925781 287.117188 381.519531 288.140625 382.382812 289.007812 C 382.851562 289.371094 383.324219 289.734375 383.792969 290.097656 C 384.878906 290.726562 386.046875 291.042969 387.304688 291.046875 C 388.261719 291.082031 389.15625 290.882812 389.984375 290.449219 C 390.847656 290.167969 391.59375 289.6875 392.226562 289.007812 C 392.90625 288.378906 393.382812 287.632812 393.664062 286.769531" fill="#ff6d00"/></g><g id="change1_42"><path d="M 406.863281 268.347656 C 401.425781 268.347656 401.414062 276.800781 406.863281 276.800781 C 412.300781 276.800781 412.308594 268.347656 406.863281 268.347656" fill="#ff6d00"/></g><g id="change1_43"><path d="M 396.96875 317.144531 C 397.21875 317.195312 398.699219 317.394531 398.875 317.410156 C 399.496094 317.472656 400.144531 317.359375 400.730469 317.167969 C 400.773438 317.152344 402.339844 316.492188 402.371094 316.472656 C 402.511719 316.371094 403.679688 315.472656 403.785156 315.382812 C 404.246094 314.816406 404.597656 314.359375 404.953125 313.902344 C 405.140625 313.527344 405.652344 312.324219 405.734375 312.113281 C 405.828125 311.605469 405.871094 311.304688 405.910156 311.003906 C 405.953125 310.707031 405.992188 310.40625 406.03125 310.105469 C 405.949219 309.511719 405.871094 308.921875 405.792969 308.328125 C 405.585938 307.460938 405.1875 306.703125 404.597656 306.058594 C 404.300781 305.558594 403.902344 305.15625 403.398438 304.859375 C 402.753906 304.269531 401.996094 303.871094 401.128906 303.664062 C 400.535156 303.585938 399.945312 303.507812 399.355469 303.425781 C 398.761719 303.507812 398.171875 303.585938 397.578125 303.664062 C 396.824219 303.84375 396.175781 304.195312 395.589844 304.660156 C 394.863281 305.078125 394.351562 305.402344 393.964844 305.863281 C 393.308594 306.476562 392.84375 307.199219 392.570312 308.035156 C 392.148438 308.835938 391.957031 309.703125 391.992188 310.628906 C 392.070312 311.226562 392.152344 311.824219 392.230469 312.421875 C 392.554688 313.5625 393.128906 314.554688 393.964844 315.394531 C 394.804688 316.3125 395.191406 316.394531 396.144531 316.796875 C 395.851562 316.675781 396.695312 317.058594 396.96875 317.144531" fill="#ff6d00"/></g><g id="change1_44"><path d="M 451.855469 271.234375 C 452.199219 270.582031 452.355469 269.882812 452.328125 269.128906 L 452.132812 267.675781 C 451.871094 266.746094 451.402344 265.941406 450.726562 265.261719 C 450.355469 264.976562 449.988281 264.691406 449.617188 264.40625 C 448.765625 263.910156 447.847656 263.660156 446.859375 263.660156 C 446.105469 263.632812 445.402344 263.789062 444.75 264.128906 C 444.074219 264.351562 443.488281 264.726562 442.992188 265.261719 C 442.460938 265.757812 442.082031 266.34375 441.859375 267.019531 C 441.519531 267.671875 441.359375 268.375 441.390625 269.128906 C 441.453125 269.613281 441.519531 270.097656 441.585938 270.582031 C 441.84375 271.507812 442.3125 272.3125 442.992188 272.992188 C 443.359375 273.28125 443.730469 273.566406 444.097656 273.851562 C 444.949219 274.34375 445.871094 274.59375 446.859375 274.597656 C 447.609375 274.625 448.3125 274.46875 448.964844 274.125 C 449.644531 273.90625 450.230469 273.527344 450.726562 272.992188 C 451.257812 272.5 451.636719 271.910156 451.855469 271.234375" fill="#ff6d00"/></g><g id="change1_45"><path d="M 484.730469 252.207031 C 484.386719 251.941406 484.046875 251.675781 483.703125 251.410156 C 482.910156 250.953125 482.058594 250.722656 481.140625 250.71875 C 480.441406 250.691406 479.789062 250.835938 479.183594 251.15625 C 478.554688 251.359375 478.011719 251.710938 477.550781 252.207031 C 477.054688 252.664062 476.703125 253.210938 476.5 253.839844 C 476.183594 254.445312 476.035156 255.097656 476.0625 255.796875 C 476.121094 256.246094 476.183594 256.695312 476.242188 257.144531 C 476.484375 258.007812 476.921875 258.753906 477.550781 259.386719 C 477.890625 259.652344 478.234375 259.914062 478.578125 260.179688 C 479.367188 260.640625 480.222656 260.871094 481.140625 260.875 C 481.839844 260.898438 482.492188 260.753906 483.097656 260.4375 C 483.726562 260.230469 484.269531 259.882812 484.730469 259.386719 C 485.226562 258.925781 485.574219 258.382812 485.78125 257.753906 C 486.097656 257.148438 486.242188 256.496094 486.21875 255.796875 L 486.035156 254.445312 C 485.796875 253.585938 485.359375 252.839844 484.730469 252.207031" fill="#ff6d00"/></g><g id="change1_46"><path d="M 450.039062 292.914062 L 450.945312 293.617188 C 451.644531 294.019531 452.394531 294.222656 453.203125 294.226562 C 453.816406 294.25 454.390625 294.121094 454.925781 293.839844 C 455.480469 293.660156 455.960938 293.351562 456.363281 292.914062 C 456.800781 292.511719 457.109375 292.03125 457.289062 291.476562 C 457.566406 290.945312 457.695312 290.371094 457.671875 289.757812 L 457.511719 288.566406 C 457.300781 287.808594 456.917969 287.152344 456.363281 286.59375 C 456.0625 286.363281 455.761719 286.128906 455.460938 285.894531 C 454.761719 285.492188 454.007812 285.289062 453.203125 285.285156 C 452.585938 285.261719 452.011719 285.390625 451.480469 285.671875 C 450.925781 285.851562 450.445312 286.160156 450.039062 286.59375 C 449.605469 287 449.296875 287.480469 449.117188 288.03125 C 448.835938 288.566406 448.707031 289.140625 448.730469 289.757812 L 448.890625 290.945312 C 449.105469 291.699219 449.488281 292.359375 450.039062 292.914062" fill="#ff6d00"/></g><g id="change1_47"><path d="M 427.382812 299.207031 C 426.96875 298.96875 426.519531 298.847656 426.039062 298.84375 C 425.558594 298.847656 425.113281 298.96875 424.695312 299.207031 C 423.886719 299.679688 423.378906 300.566406 423.378906 301.503906 C 423.378906 302.441406 423.886719 303.328125 424.695312 303.800781 C 425.113281 304.042969 425.558594 304.164062 426.039062 304.164062 C 426.519531 304.164062 426.96875 304.042969 427.382812 303.800781 C 427.589844 303.691406 427.800781 303.578125 428.007812 303.46875 C 428.347656 303.265625 428.621094 302.992188 428.824219 302.652344 C 429.027344 302.296875 429.132812 301.914062 429.132812 301.503906 C 429.132812 301.09375 429.027344 300.710938 428.824219 300.359375 C 428.621094 300.015625 428.347656 299.742188 428.007812 299.542969 C 427.800781 299.429688 427.589844 299.320312 427.382812 299.207031" fill="#ff6d00"/></g><g id="change1_48"><path d="M 489.421875 226.671875 C 490.539062 227.320312 491.746094 227.648438 493.039062 227.652344 C 494.027344 227.6875 494.949219 227.484375 495.804688 227.035156 C 496.691406 226.746094 497.460938 226.25 498.109375 225.550781 C 498.808594 224.902344 499.304688 224.132812 499.59375 223.246094 C 500.042969 222.390625 500.246094 221.46875 500.210938 220.480469 C 500.125 219.847656 500.039062 219.210938 499.953125 218.578125 C 499.613281 217.363281 499 216.308594 498.109375 215.414062 C 497.628906 215.039062 497.144531 214.664062 496.660156 214.292969 C 495.539062 213.644531 494.335938 213.316406 493.039062 213.3125 C 492.054688 213.277344 491.132812 213.480469 490.277344 213.929688 C 489.390625 214.21875 488.621094 214.714844 487.972656 215.414062 C 487.273438 216.0625 486.777344 216.832031 486.488281 217.71875 C 486.039062 218.574219 485.835938 219.496094 485.871094 220.480469 C 485.957031 221.117188 486.042969 221.753906 486.128906 222.386719 C 486.46875 223.601562 487.082031 224.65625 487.972656 225.550781 C 488.453125 225.925781 488.9375 226.300781 489.421875 226.671875" fill="#ff6d00"/></g><g id="change1_49"><path d="M 399.722656 233.625 C 398.988281 233.199219 398.191406 232.984375 397.339844 232.980469 C 396.691406 232.957031 396.085938 233.089844 395.519531 233.386719 C 394.933594 233.578125 394.429688 233.902344 394 234.363281 C 393.539062 234.789062 393.214844 235.296875 393.023438 235.882812 C 392.730469 236.445312 392.59375 237.054688 392.617188 237.703125 C 392.675781 238.121094 392.730469 238.539062 392.785156 238.957031 C 393.011719 239.757812 393.414062 240.453125 394 241.042969 C 394.320312 241.289062 394.636719 241.535156 394.957031 241.78125 C 395.691406 242.207031 396.488281 242.421875 397.339844 242.425781 C 397.992188 242.449219 398.597656 242.316406 399.160156 242.019531 C 399.746094 241.828125 400.253906 241.503906 400.679688 241.042969 C 401.140625 240.613281 401.464844 240.109375 401.65625 239.523438 C 401.953125 238.960938 402.089844 238.351562 402.0625 237.703125 C 402.007812 237.285156 401.949219 236.867188 401.894531 236.449219 C 401.671875 235.648438 401.265625 234.953125 400.679688 234.363281 C 400.363281 234.117188 400.042969 233.871094 399.722656 233.625" fill="#ff6d00"/></g><g id="change1_50"><path d="M 263.585938 271.652344 C 262.839844 271.222656 262.03125 271.003906 261.167969 271 C 260.507812 270.976562 259.890625 271.113281 259.320312 271.414062 C 258.726562 271.605469 258.210938 271.9375 257.777344 272.402344 C 257.308594 272.839844 256.980469 273.351562 256.785156 273.945312 C 256.484375 274.519531 256.347656 275.132812 256.371094 275.792969 C 256.429688 276.21875 256.488281 276.644531 256.542969 277.066406 C 256.773438 277.878906 257.183594 278.585938 257.777344 279.183594 C 258.101562 279.433594 258.425781 279.683594 258.746094 279.933594 C 259.496094 280.367188 260.300781 280.585938 261.167969 280.589844 C 261.828125 280.613281 262.441406 280.476562 263.015625 280.175781 C 263.609375 279.980469 264.121094 279.652344 264.554688 279.183594 C 265.023438 278.75 265.355469 278.234375 265.546875 277.640625 C 265.847656 277.070312 265.984375 276.453125 265.960938 275.792969 C 265.902344 275.367188 265.847656 274.945312 265.789062 274.519531 C 265.5625 273.707031 265.148438 273.003906 264.554688 272.402344 C 264.234375 272.152344 263.910156 271.902344 263.585938 271.652344" fill="#ff6d00"/></g><g id="change1_51"><path d="M 217.96875 349.960938 C 218.472656 349.796875 218.90625 349.519531 219.273438 349.125 C 219.667969 348.757812 219.945312 348.324219 220.109375 347.820312 C 220.363281 347.339844 220.480469 346.820312 220.457031 346.261719 L 220.3125 345.183594 C 220.121094 344.5 219.773438 343.902344 219.273438 343.398438 C 219 343.1875 218.726562 342.976562 218.453125 342.765625 C 217.820312 342.398438 217.140625 342.214844 216.410156 342.214844 C 215.851562 342.191406 215.332031 342.308594 214.851562 342.5625 C 214.644531 342.628906 214.5 342.800781 214.316406 342.90625 C 211.808594 337.957031 209 333.160156 205.894531 328.550781 C 206.03125 328.507812 206.183594 328.527344 206.308594 328.460938 C 206.738281 328.320312 207.105469 328.082031 207.417969 327.746094 C 207.753906 327.433594 207.992188 327.066406 208.132812 326.640625 C 208.347656 326.226562 208.445312 325.785156 208.425781 325.3125 C 208.445312 324.839844 208.347656 324.394531 208.132812 323.984375 C 208.109375 323.921875 208.046875 323.878906 208.023438 323.816406 C 208.546875 324.371094 209.183594 324.839844 210.050781 325.128906 C 214.035156 326.480469 218.34375 326.949219 222.527344 326.460938 C 223.640625 326.332031 224.765625 326.050781 225.875 325.71875 C 225.246094 326.242188 224.636719 326.773438 223.949219 327.257812 C 222.402344 328.347656 223.273438 331.152344 225.316406 330.503906 C 230.421875 328.878906 234.140625 325.402344 237.429688 321.457031 C 237.851562 321.914062 238.453125 322.226562 239.265625 322.226562 C 242.085938 322.226562 242.523438 318.601562 240.632812 317.390625 C 241.277344 316.539062 241.917969 315.6875 242.558594 314.84375 C 245.582031 310.882812 249.199219 306.234375 253.980469 304.359375 C 256.59375 303.335938 259.355469 303.644531 262.078125 302.902344 C 264.714844 302.1875 267.308594 301.453125 269.992188 300.910156 C 282.519531 298.371094 293.851562 293.308594 305.941406 289.542969 C 307.769531 288.972656 309.542969 288.390625 311.335938 287.863281 C 311.421875 288.132812 311.496094 288.40625 311.628906 288.660156 C 311.882812 289.4375 312.3125 290.109375 312.925781 290.675781 C 313.492188 291.285156 314.164062 291.71875 314.9375 291.96875 C 315.683594 292.363281 316.488281 292.542969 317.351562 292.507812 C 317.90625 292.433594 318.460938 292.359375 319.015625 292.285156 C 320.074219 291.988281 320.996094 291.453125 321.777344 290.675781 L 322.753906 289.410156 C 323.3125 288.449219 323.589844 287.417969 323.601562 286.308594 C 324.414062 286.277344 325.226562 286.234375 326.046875 286.152344 C 332.085938 285.550781 338.6875 284.542969 344.210938 282.011719 C 347.347656 280.578125 345.535156 276.042969 342.5625 275.925781 C 336.574219 275.683594 329.652344 277.363281 323.992188 279.214844 C 322.714844 279.632812 321.492188 280.125 320.269531 280.609375 C 319.296875 279.996094 318.355469 279.746094 317.351562 279.742188 C 316.34375 279.746094 315.40625 279.996094 314.535156 280.503906 C 314.394531 280.585938 314.328125 280.75 314.195312 280.84375 C 313.769531 281.171875 313.347656 281.496094 312.925781 281.824219 C 312.613281 282.113281 312.351562 282.433594 312.132812 282.777344 C 309.070312 283.210938 306.023438 283.488281 302.929688 283.808594 C 296.953125 284.429688 291.03125 284.503906 285.121094 284.75 C 284.800781 284.503906 284.480469 284.253906 284.15625 284.003906 C 283.234375 283.46875 282.234375 283.199219 281.164062 283.195312 C 280.347656 283.164062 279.585938 283.335938 278.878906 283.707031 C 278.144531 283.945312 277.507812 284.355469 276.972656 284.933594 C 276.851562 285.042969 276.820312 285.210938 276.714844 285.328125 C 272.910156 285.710938 269.109375 286.285156 265.296875 287.304688 C 260.257812 288.65625 255.636719 289.984375 252.007812 293.8125 C 248.738281 297.257812 245.222656 300.203125 242.355469 304.042969 C 240.195312 306.933594 238.316406 309.957031 236.402344 312.925781 C 235.136719 312.824219 234.046875 313.46875 232.960938 314.089844 C 232.246094 314.496094 231.269531 314.949219 230.667969 315.257812 C 230.824219 315.179688 230.578125 315.289062 230.425781 315.363281 C 230.179688 315.390625 229.351562 315.566406 229.453125 315.546875 C 228.957031 315.644531 228.472656 315.789062 227.980469 315.90625 C 227.054688 316.121094 226.121094 316.265625 225.1875 316.433594 C 224.898438 316.484375 224.613281 316.542969 224.324219 316.59375 C 224.296875 316.597656 224.195312 316.601562 224.097656 316.609375 C 223.980469 316.601562 223.847656 316.597656 223.828125 316.59375 C 223.546875 316.574219 223.246094 316.554688 222.964844 316.558594 C 220.683594 316.609375 218.5 316.894531 216.210938 316.664062 C 215.726562 316.617188 215.242188 316.5625 214.761719 316.515625 C 214.398438 316.453125 214.113281 316.40625 213.824219 316.347656 C 213.1875 316.222656 212.566406 316.070312 211.921875 315.984375 C 210.28125 315.761719 209.105469 316.371094 208 317.320312 C 206.335938 317.1875 204.648438 319.21875 206.25 320.585938 C 206.394531 320.707031 206.535156 320.832031 206.679688 320.957031 C 206.796875 321.628906 207 322.226562 207.28125 322.769531 C 207.09375 322.625 206.90625 322.480469 206.722656 322.335938 C 206.183594 322.027344 205.605469 321.867188 204.984375 321.867188 C 204.679688 321.90625 204.371094 321.949219 204.066406 321.988281 C 203.484375 322.152344 202.976562 322.449219 202.546875 322.875 C 202.429688 323.03125 202.308594 323.183594 202.1875 323.339844 C 199.703125 320.003906 197.066406 316.785156 194.285156 313.699219 C 194.472656 313.632812 194.667969 313.589844 194.847656 313.492188 C 195.570312 313.257812 196.195312 312.855469 196.722656 312.289062 C 197.289062 311.761719 197.691406 311.136719 197.925781 310.414062 C 198.289062 309.71875 198.457031 308.972656 198.425781 308.171875 L 198.21875 306.621094 C 197.941406 305.636719 197.441406 304.78125 196.722656 304.054688 C 196.328125 303.75 195.9375 303.445312 195.542969 303.140625 C 194.632812 302.613281 193.65625 302.351562 192.601562 302.347656 C 191.800781 302.316406 191.054688 302.484375 190.359375 302.847656 C 189.636719 303.082031 189.011719 303.484375 188.484375 304.054688 C 187.917969 304.578125 187.515625 305.203125 187.28125 305.925781 C 187.214844 306.058594 187.183594 306.199219 187.128906 306.335938 C 179.835938 299.40625 171.785156 293.320312 163.113281 288.367188 C 187.628906 316.746094 208.421875 346.808594 226.445312 379.691406 C 224.808594 369.515625 221.792969 359.550781 217.664062 350.027344 C 217.761719 349.988281 217.875 350.011719 217.96875 349.960938" fill="#ff6d00"/></g><g id="change1_52"><path d="M 240.21875 291.003906 C 235.28125 291.003906 235.273438 298.675781 240.21875 298.675781 C 245.152344 298.675781 245.160156 291.003906 240.21875 291.003906" fill="#ff6d00"/></g><g id="change1_53"><path d="M 369.183594 33.167969 C 389.492188 29.902344 410.703125 31.734375 431.320312 38.441406 C 413.164062 26.539062 390.40625 21.027344 368.019531 22.59375 C 297.265625 26.730469 252.480469 91.742188 236.074219 154.921875 C 266.519531 100.613281 302.855469 43.136719 369.183594 33.167969" fill="#ff6d00"/></g><g id="change1_54"><path d="M 320.816406 204.707031 C 321.1875 205.191406 321.535156 205.640625 321.882812 206.085938 C 322.5625 206.667969 323.015625 207.019531 323.46875 207.367188 C 323.550781 207.429688 323.632812 207.484375 323.726562 207.53125 C 324.328125 207.839844 324.960938 208.109375 325.605469 208.320312 C 325.695312 208.351562 325.792969 208.371094 325.890625 208.390625 C 326.527344 208.496094 327.300781 208.660156 328.003906 208.65625 C 328.476562 208.617188 328.859375 208.554688 329.140625 208.519531 C 329.414062 208.480469 329.820312 208.441406 330.148438 208.378906 C 331.347656 208.046875 332.386719 207.4375 333.269531 206.5625 C 333.957031 205.921875 334.445312 205.164062 334.730469 204.289062 C 335.171875 203.445312 335.375 202.539062 335.339844 201.566406 C 335.335938 200.792969 335.175781 200.0625 334.941406 199.355469 C 334.671875 198.605469 334.464844 198.113281 334.257812 197.621094 C 333.933594 197.203125 333.613281 196.785156 333.289062 196.371094 C 332.875 196.050781 332.457031 195.726562 332.039062 195.402344 C 331.332031 194.953125 330.566406 194.710938 329.742188 194.671875 C 329.648438 194.644531 329.558594 194.6875 329.464844 194.671875 C 329.378906 194.664062 329.296875 194.628906 329.210938 194.625 C 328.585938 194.457031 327.957031 194.457031 327.332031 194.625 C 326.589844 194.46875 326.011719 194.46875 325.433594 194.625 C 324.5625 194.664062 323.753906 194.925781 323.003906 195.402344 C 322.5625 195.742188 322.121094 196.082031 321.679688 196.425781 C 321.339844 196.863281 320.996094 197.304688 320.65625 197.746094 C 320.179688 198.496094 319.921875 199.308594 319.882812 200.179688 C 319.6875 201.046875 319.726562 201.914062 319.996094 202.785156 C 320.144531 203.417969 320.449219 204.015625 320.746094 204.589844 C 320.765625 204.632812 320.789062 204.667969 320.816406 204.707031" fill="#ff6d00"/></g><g id="change1_55"><path d="M 334.40625 242.175781 C 334.085938 241.984375 333.695312 241.851562 333.351562 241.722656 C 333.285156 241.699219 333.226562 241.675781 333.160156 241.65625 C 332.230469 241.40625 331.511719 241.480469 330.585938 241.636719 C 330.453125 241.660156 330.335938 241.722656 330.207031 241.757812 C 329.773438 241.800781 329.34375 241.851562 328.863281 241.933594 C 327.691406 242.152344 326.421875 242.988281 325.683594 243.722656 C 323.953125 245.449219 323.269531 248.03125 323.921875 250.390625 C 324.554688 252.695312 326.402344 254.546875 328.707031 255.179688 C 331.066406 255.828125 333.648438 255.144531 335.375 253.414062 C 337.105469 251.6875 337.789062 249.105469 337.140625 246.746094 C 336.921875 245.972656 336.542969 245.289062 336.089844 244.648438 C 335.894531 243.648438 335.335938 242.726562 334.40625 242.175781" fill="#ff6d00"/></g><g id="change1_56"><path d="M 388.121094 201.945312 C 387.34375 201.492188 386.503906 201.265625 385.605469 201.261719 C 384.917969 201.238281 384.277344 201.378906 383.683594 201.691406 C 383.066406 201.894531 382.53125 202.238281 382.078125 202.722656 C 381.59375 203.175781 381.25 203.710938 381.050781 204.328125 C 380.738281 204.921875 380.59375 205.5625 380.617188 206.25 C 380.679688 206.691406 380.738281 207.132812 380.796875 207.574219 C 381.035156 208.417969 381.460938 209.152344 382.078125 209.773438 C 382.414062 210.035156 382.753906 210.292969 383.089844 210.554688 C 383.867188 211.003906 384.703125 211.230469 385.605469 211.234375 C 386.292969 211.261719 386.933594 211.117188 387.527344 210.804688 C 388.144531 210.605469 388.679688 210.261719 389.132812 209.773438 C 389.617188 209.324219 389.960938 208.789062 390.160156 208.171875 C 390.472656 207.574219 390.617188 206.933594 390.59375 206.25 C 390.53125 205.808594 390.472656 205.363281 390.414062 204.921875 C 390.175781 204.078125 389.75 203.34375 389.132812 202.722656 C 388.796875 202.464844 388.460938 202.203125 388.121094 201.945312" fill="#ff6d00"/></g><g id="change1_57"><path d="M 308.308594 236.226562 C 308.65625 235.5625 308.816406 234.847656 308.789062 234.078125 C 308.722656 233.585938 308.65625 233.089844 308.589844 232.597656 C 308.324219 231.652344 307.847656 230.832031 307.15625 230.136719 C 306.777344 229.847656 306.402344 229.554688 306.027344 229.265625 C 305.15625 228.761719 304.21875 228.507812 303.214844 228.503906 C 302.445312 228.472656 301.730469 228.632812 301.066406 228.984375 C 300.375 229.207031 299.777344 229.59375 299.269531 230.136719 C 298.726562 230.640625 298.34375 231.238281 298.117188 231.929688 C 297.769531 232.59375 297.609375 233.308594 297.636719 234.078125 C 297.703125 234.570312 297.769531 235.066406 297.839844 235.558594 C 298.101562 236.503906 298.578125 237.324219 299.269531 238.019531 C 299.648438 238.308594 300.023438 238.601562 300.398438 238.890625 C 301.269531 239.394531 302.207031 239.648438 303.214844 239.652344 C 303.980469 239.683594 304.695312 239.523438 305.359375 239.171875 C 306.050781 238.949219 306.648438 238.5625 307.15625 238.019531 C 307.699219 237.515625 308.082031 236.917969 308.308594 236.226562" fill="#ff6d00"/></g><g id="change1_58"><path d="M 247.160156 255.71875 C 247.648438 255.734375 248.105469 255.632812 248.527344 255.410156 C 248.96875 255.269531 249.347656 255.023438 249.671875 254.675781 C 249.855469 254.4375 250.039062 254.195312 250.226562 253.957031 C 250.484375 253.550781 250.625 253.109375 250.648438 252.636719 C 250.730469 252.324219 250.730469 252.007812 250.648438 251.695312 C 250.625 251.222656 250.484375 250.78125 250.226562 250.375 C 249.746094 249.628906 249.003906 248.914062 248.105469 248.742188 C 247.367188 248.597656 246.636719 248.457031 245.902344 248.3125 C 245.246094 247.9375 244.539062 247.746094 243.78125 247.746094 C 243.195312 247.722656 242.652344 247.84375 242.144531 248.109375 C 241.617188 248.28125 241.160156 248.574219 240.777344 248.988281 C 240.714844 249.050781 240.703125 249.144531 240.648438 249.210938 C 240.523438 249.304688 240.394531 249.382812 240.261719 249.488281 C 239.925781 249.800781 239.683594 250.175781 239.546875 250.605469 C 239.328125 251.015625 239.226562 251.464844 239.246094 251.941406 C 239.285156 252.855469 239.59375 253.734375 240.261719 254.394531 C 240.347656 254.476562 240.460938 254.542969 240.554688 254.621094 C 240.648438 254.734375 240.671875 254.890625 240.777344 255 C 241.160156 255.414062 241.617188 255.707031 242.144531 255.878906 C 242.652344 256.144531 243.195312 256.265625 243.78125 256.246094 C 244.363281 256.242188 244.90625 256.09375 245.425781 255.875 C 246.003906 255.820312 246.582031 255.769531 247.160156 255.71875" fill="#ff6d00"/></g><g id="change1_59"><path d="M 430.765625 208.570312 C 430.234375 208.089844 429.617188 207.761719 428.902344 207.59375 C 428.417969 207.527344 427.933594 207.464844 427.449219 207.398438 C 426.464844 207.402344 425.542969 207.648438 424.691406 208.144531 C 423.761719 208.613281 422.925781 209.007812 422.144531 209.761719 C 421.441406 210.4375 420.796875 211.257812 420.238281 212.039062 C 419.789062 212.8125 419.574219 213.644531 419.523438 214.527344 C 419.261719 214.90625 418.980469 215.28125 418.730469 215.675781 C 418.003906 216.828125 417.328125 218.660156 418.121094 219.941406 C 419.085938 221.503906 421.296875 221.285156 422.796875 220.746094 C 423.234375 220.589844 423.652344 220.394531 424.085938 220.21875 C 424.878906 220.351562 425.675781 220.359375 426.46875 220.144531 C 427.636719 219.652344 428.671875 219.195312 429.667969 218.425781 C 430.121094 218.074219 430.40625 217.839844 430.746094 217.421875 C 430.9375 217.191406 431.128906 216.964844 431.316406 216.734375 C 431.851562 216.238281 432.226562 215.652344 432.449219 214.972656 C 432.789062 214.320312 432.945312 213.621094 432.917969 212.867188 C 432.855469 212.382812 432.789062 211.898438 432.722656 211.414062 C 432.554688 210.699219 432.226562 210.082031 431.746094 209.554688 C 431.5 209.140625 431.175781 208.816406 430.765625 208.570312" fill="#ff6d00"/></g><g id="change1_60"><path d="M 396.289062 271.832031 C 396.578125 271.832031 396.847656 271.757812 397.097656 271.613281 C 397.492188 271.484375 397.835938 271.265625 398.125 270.953125 C 398.289062 270.738281 398.457031 270.523438 398.625 270.308594 C 398.730469 270.054688 398.839844 269.796875 398.945312 269.542969 C 399.019531 269.3125 398.972656 269.082031 398.976562 268.851562 C 399.285156 268.136719 399.488281 267.398438 399.488281 266.601562 C 399.519531 265.816406 399.355469 265.082031 398.996094 264.398438 C 398.765625 263.691406 398.375 263.078125 397.816406 262.558594 C 397.101562 261.851562 396.261719 261.363281 395.292969 261.089844 C 394.976562 260.988281 394.660156 260.886719 394.34375 260.789062 C 393.421875 260.539062 392.503906 260.539062 391.582031 260.789062 C 390.703125 261.035156 389.941406 261.480469 389.292969 262.121094 C 388.652344 262.769531 388.207031 263.53125 387.960938 264.410156 C 387.710938 265.332031 387.710938 266.25 387.960938 267.171875 C 388.058594 267.488281 388.160156 267.804688 388.261719 268.121094 C 388.53125 269.089844 389.023438 269.933594 389.730469 270.644531 C 390.25 271.203125 390.863281 271.597656 391.570312 271.828125 C 392.253906 272.183594 392.988281 272.347656 393.773438 272.320312 C 394.558594 272.316406 395.285156 272.117188 395.988281 271.820312 C 396.089844 271.808594 396.1875 271.855469 396.289062 271.832031" fill="#ff6d00"/></g><g id="change1_61"><path d="M 517.617188 177.234375 C 517.402344 175.808594 516.351562 174.3125 514.839844 174.011719 C 512.144531 173.472656 509.402344 173.222656 506.679688 172.898438 C 505.160156 172.71875 503.613281 172.859375 502.144531 173.296875 C 500.886719 173.671875 499.910156 174.445312 498.621094 174.585938 C 497.449219 174.710938 496.421875 175.183594 495.257812 175.363281 C 493.921875 175.566406 492.574219 175.683594 491.230469 175.8125 C 488.65625 176.066406 486.082031 176.316406 483.507812 176.570312 C 481.472656 176.769531 481.429688 179.621094 483.507812 179.765625 C 486.082031 179.945312 488.65625 180.128906 491.230469 180.308594 C 492.519531 180.398438 493.808594 180.464844 495.09375 180.617188 C 496.425781 180.773438 497.617188 181.273438 498.953125 181.363281 C 499.367188 181.394531 499.453125 181.375 499.46875 181.351562 C 499.511719 181.382812 499.589844 181.425781 499.820312 181.519531 C 500.503906 181.796875 501.175781 182.152344 501.875 182.390625 C 502.867188 182.726562 503.867188 182.847656 504.878906 182.863281 C 503.472656 184.246094 502.058594 185.621094 500.574219 186.914062 C 499.988281 187.425781 499.363281 187.886719 498.765625 188.378906 C 498.382812 188.191406 497.957031 188.09375 497.480469 188.257812 C 491.722656 190.242188 486.585938 195.292969 482.585938 199.730469 C 477.523438 205.351562 472.054688 209.621094 465.695312 213.742188 C 459.773438 217.578125 453.664062 221.28125 447.128906 223.976562 C 440.007812 226.914062 432.308594 227.957031 425.179688 230.929688 C 421.9375 232.28125 418.761719 233.632812 415.597656 235.160156 C 412.878906 236.46875 411.515625 238.710938 409.035156 239.980469 C 402.832031 243.152344 394.503906 243.183594 387.726562 244.234375 C 384.15625 244.789062 380.726562 245.9375 377.25 246.917969 C 374.042969 247.828125 370.054688 248.390625 367.097656 249.96875 C 364.160156 251.53125 363.574219 253.386719 363.003906 256.324219 C 362.257812 260.164062 360.960938 263.925781 359.972656 267.777344 C 359.296875 270.417969 362.96875 272.015625 364.386719 269.636719 C 365.683594 267.464844 367.078125 263.058594 368.9375 260.75 C 374.238281 261.199219 380.863281 258.011719 385.527344 256.621094 C 392.320312 254.601562 398.207031 250.691406 404.671875 247.921875 C 406.765625 247.023438 410.511719 245.253906 412.484375 245.234375 C 413.507812 245.222656 414.691406 245.976562 415.804688 245.976562 C 417.429688 245.980469 419.101562 245.308594 420.664062 244.890625 C 427.234375 243.136719 433.558594 240.632812 439.289062 236.953125 C 442.8125 234.691406 446.394531 232.503906 449.988281 230.324219 C 449.964844 230.566406 449.914062 230.796875 449.925781 231.042969 C 450.007812 231.644531 450.085938 232.242188 450.167969 232.84375 C 450.488281 233.988281 451.070312 234.988281 451.910156 235.832031 C 452.363281 236.183594 452.820312 236.539062 453.277344 236.890625 C 454.335938 237.503906 455.476562 237.8125 456.695312 237.816406 C 457.628906 237.851562 458.5 237.65625 459.304688 237.230469 C 460.144531 236.960938 460.871094 236.492188 461.484375 235.832031 C 462.148438 235.21875 462.613281 234.492188 462.886719 233.652344 C 463.3125 232.84375 463.503906 231.976562 463.46875 231.042969 C 463.390625 230.441406 463.308594 229.84375 463.226562 229.242188 C 462.90625 228.09375 462.324219 227.097656 461.484375 226.253906 C 461.027344 225.902344 460.570312 225.546875 460.113281 225.195312 C 459.792969 225.007812 459.445312 224.902344 459.105469 224.769531 C 463.8125 221.890625 468.492188 218.964844 473.019531 215.835938 C 478.277344 212.203125 483.691406 208.765625 488.875 205.054688 C 492.398438 202.53125 496.117188 198.871094 498.300781 194.765625 C 498.878906 194.386719 499.429688 193.96875 499.996094 193.574219 C 500.324219 194.613281 501.183594 195.460938 502.601562 195.460938 C 505.515625 195.460938 506.089844 191.90625 504.386719 190.410156 C 505.859375 189.253906 507.308594 188.0625 508.730469 186.835938 C 508.722656 186.929688 508.664062 187.011719 508.667969 187.109375 C 508.710938 187.441406 508.757812 187.769531 508.800781 188.097656 C 508.976562 188.726562 509.296875 189.273438 509.757812 189.738281 C 509.996094 189.960938 510.253906 190.160156 510.527344 190.335938 C 510.824219 190.460938 511.121094 190.589844 511.421875 190.714844 C 511.792969 190.832031 511.90625 190.867188 512.023438 190.902344 C 512.25 190.972656 512.476562 191.046875 512.707031 191.117188 C 513.441406 191.3125 514.179688 191.3125 514.914062 191.117188 C 515.617188 190.917969 516.230469 190.5625 516.746094 190.046875 C 516.964844 189.769531 517.179688 189.488281 517.398438 189.207031 C 517.773438 188.558594 517.964844 187.859375 517.964844 187.109375 C 517.984375 186.539062 517.867188 186.003906 517.605469 185.507812 C 517.4375 184.992188 517.152344 184.550781 516.746094 184.171875 C 516.230469 183.65625 515.617188 183.300781 514.914062 183.105469 C 514.273438 182.933594 513.632812 182.9375 512.988281 183.066406 C 513.875 182.339844 514.832031 181.789062 515.765625 181.101562 C 517.039062 180.160156 517.867188 178.898438 517.617188 177.234375" fill="#ff6d00"/></g><g id="change1_62"><path d="M 439.34375 183.730469 C 441.363281 183.789062 443.234375 183.652344 445.101562 182.917969 C 446.402344 181.75 447.910156 180.933594 449.621094 180.464844 C 451.257812 180.226562 452.902344 180.039062 454.550781 179.90625 C 460.140625 179.378906 465.132812 181.953125 470.773438 181.710938 C 472.367188 181.640625 472.710938 179.398438 471.152344 178.921875 C 465.347656 177.136719 459.714844 178.589844 453.789062 177.601562 C 448.957031 176.796875 445.300781 173.566406 440.429688 173.648438 C 434.984375 173.738281 430.082031 176.789062 424.660156 177.542969 C 419.050781 178.320312 413.390625 179.148438 407.753906 179.726562 C 397.457031 180.773438 387.144531 180.75 377 183.285156 C 374.761719 183.84375 372.179688 184.523438 370.082031 185.484375 C 367.515625 186.65625 366.109375 188.597656 363.734375 190.09375 C 359.128906 193 354.308594 195.601562 349.660156 198.449219 C 347.726562 199.632812 348.984375 203.183594 351.273438 202.277344 C 355.699219 200.527344 360.324219 199 365.09375 198.511719 C 368.015625 198.210938 370.773438 198.886719 373.675781 198.519531 C 375.632812 198.269531 377.765625 197.460938 379.675781 196.886719 C 389.183594 194.007812 397.925781 189.003906 407.203125 185.550781 C 412.5 183.574219 418.585938 182.660156 424.183594 182.097656 C 427.167969 181.796875 430.050781 181.5625 433.023438 182.242188 C 435.238281 182.746094 437.003906 183.664062 439.34375 183.730469" fill="#ff6d00"/></g><g id="change1_63"><path d="M 343.808594 211.992188 C 333.449219 213.726562 324.652344 220.65625 317.414062 227.980469 C 315.183594 227.742188 313.234375 229.429688 312.054688 231.085938 C 310.050781 233.90625 307.246094 237.0625 306.679688 240.5625 C 305.707031 242.554688 304.589844 244.910156 305.304688 247.011719 C 305.691406 248.15625 306.542969 248.710938 307.699219 248.835938 C 309.710938 249.058594 311.625 247.597656 313.195312 246.394531 C 315.015625 245.816406 316.367188 244.484375 317.796875 243.023438 C 319.191406 241.597656 320.574219 240.175781 321.925781 238.703125 C 323.265625 237.242188 324.089844 235.097656 323.625 233.089844 C 324.738281 231.445312 325.824219 229.808594 327.03125 228.242188 C 328.546875 226.269531 330.164062 224.378906 331.894531 222.59375 C 335.574219 218.785156 339.371094 216.105469 344.601562 214.867188 C 346.5 214.421875 345.664062 211.683594 343.808594 211.992188" fill="#ff6d00"/></g><g id="change1_64"><path d="M 286.257812 117.273438 C 327.632812 53.925781 415.40625 36.132812 472.96875 87.96875 C 490.988281 103.683594 505.113281 124.328125 512.683594 148.246094 C 510.746094 123.105469 498.441406 98.691406 480.277344 80.234375 C 421.84375 18.8125 317.367188 39.074219 286.257812 117.273438" fill="#ff6d00"/></g><g id="change1_65"><path d="M 206.746094 205.792969 C 187.03125 227.4375 169.433594 250.105469 153.226562 274.484375 C 178.316406 258.949219 197.859375 233.941406 206.746094 205.792969" fill="#ff6d00"/></g><g id="change1_66"><path d="M 68.941406 354.71875 C 68.707031 354.535156 68.472656 354.355469 68.238281 354.175781 C 67.695312 353.859375 67.109375 353.699219 66.480469 353.699219 C 66.003906 353.679688 65.554688 353.78125 65.140625 353.996094 C 64.710938 354.140625 64.335938 354.378906 64.019531 354.71875 C 63.679688 355.03125 63.441406 355.40625 63.300781 355.839844 C 63.082031 356.253906 62.984375 356.699219 63 357.179688 C 63.042969 357.488281 63.085938 357.796875 63.125 358.105469 C 63.289062 358.691406 63.589844 359.203125 64.019531 359.640625 C 64.253906 359.820312 64.488281 360.003906 64.726562 360.183594 C 65.269531 360.496094 65.851562 360.65625 66.480469 360.65625 C 66.960938 360.675781 67.40625 360.578125 67.820312 360.359375 C 68.253906 360.21875 68.628906 359.980469 68.941406 359.640625 C 69.28125 359.324219 69.519531 358.949219 69.660156 358.519531 C 69.878906 358.105469 69.980469 357.65625 69.960938 357.179688 C 69.917969 356.871094 69.878906 356.5625 69.835938 356.253906 C 69.671875 355.664062 69.375 355.152344 68.941406 354.71875" fill="#ff6d00"/></g></g></svg>