<?xml version="1.0" encoding="UTF-8" standalone="no"?><svg xmlns="http://www.w3.org/2000/svg" xmlns:xlink="http://www.w3.org/1999/xlink" fill="#000000" height="1000.2" preserveAspectRatio="xMidYMid meet" version="1" viewBox="0.0 0.0 823.6 1000.2" width="823.6" zoomAndPan="magnify"><g id="change1_1"><path clip-rule="evenodd" d="M506.6,341.4c-8,16-14.8,59.6-16.7,69.9 c-4.2,22.4,45.3,11.9,43.3,99.4c-0.6,27.6,6.4,34.6,18,59.6c11.5,25,1.3,81.5-35.3,91.1c-36.6,9.6-95.6,0-96.9-23.1 c-4-71.2,43.9-47.6,70.5-89.5c5-7.9,6-16.4,5.6-23.4c-0.1-1.6-1.3-2.8-2.8-3.1c-1.6-0.3-3,0.6-3.6,2.1c-1.9,4.7-4.7,8.9-9.2,11.8 c-1.2,0.8-2.7,0.7-3.8-0.1c-1.1-0.9-1.6-2.3-1.2-3.7c4-12.9-9.2-2.5-28.5-2.5c-17.4,0-21.7-0.9-32.9,3.6c-0.8,0.3-1.7,0.3-2.5,0 c-11.1-4.6-15.5-3.6-32.9-3.6c-19.2,0-32.5-10.4-28.5,2.5c0.4,1.4,0,2.8-1.2,3.7c-1.1,0.9-2.6,0.9-3.8,0.1c-4.9-3.2-7.8-7.8-9.7-13 c-0.5-1.5-2-2.4-3.5-2.2c-1.6,0.2-2.8,1.4-2.9,3c-3.4,31.1,32.8,47.6,59.3,63c15.4,9,18.6,28.2,17.3,51.3 c-1.3,23.1-60.3,32.7-96.8,23.1c-36.6-9.6-46.8-66.1-35.3-91.1c11.5-25,18.6-32.1,18-59.6c-2-87.6,47.5-77,43.3-99.4 c-9.1-48.6-7.9-76.5-42.8-89.3c-1.3-0.5-2.7-0.1-3.7,0.9c-0.9,1.1-1.1,2.5-0.5,3.7c1.5,3,2.1,6.3,2.1,10.1c0,1.1-0.5,2.1-1.4,2.7 c-0.9,0.7-2,0.8-3,0.5c-26.1-8.7-68.4-11.4-96.6-2.6c-1.1,0.3-2.2,0.1-3.1-0.6c-0.9-0.7-1.4-1.7-1.3-2.8c0.5-7.7,2.7-25,12.1-55.4 c13.5-43.6,70.6-96.9,127.7-99.4c46.6-2.1,76.1,63,85.4,86.9c0.5,1.3,1.7,2.1,3.1,2.1c1.4,0,2.6-0.8,3.1-2.1 c9.2-23.9,38.8-89,85.4-86.9c57.1,2.6,114.2,55.8,127.6,99.4c9.4,30.3,11.6,47.6,12.1,55.4c0.1,1.1-0.4,2.1-1.3,2.8 c-0.9,0.7-2,0.9-3.1,0.6c-28.1-8.8-70.4-6.1-96.6,2.6c-1.1,0.4-2.1,0.2-3-0.5c-0.9-0.7-1.4-1.6-1.4-2.7c0-3.7,0.6-6.9,2-9.8 c0.6-1.3,0.4-2.7-0.6-3.7c-0.9-1-2.4-1.4-3.7-0.9C523.2,325.9,511.2,332.2,506.6,341.4L506.6,341.4z M1.7,314.3 c68.1,39.9,102.4,81.8,115.8,101.2c0.9,1.3,0.8,3-0.3,4.1c-1,1.2-2.7,1.5-4.1,0.7c-18.2-9.7-57.3-29.1-108.7-45.8 c-1.1-0.3-2.1-0.2-3,0.5c-0.9,0.7-1.4,1.6-1.4,2.7v156.5c0,1.7,1.3,3.1,3,3.3c67.4,7.8,131.7,22.8,172.1,50.4 c1.3,0.9,1.8,2.4,1.3,3.9c-0.5,1.4-1.9,2.3-3.4,2.2c-26.2-2.3-92.4-5.9-170.1,7.2C1.2,601.6,0,603,0,604.6v74.5c0,1.1,0.5,2,1.3,2.6 l99.4,77.3c1.3,1,3.1,0.9,4.3-0.2c34.8-31.6,71.8-57.9,108.7-70c1.4-0.5,2.8,0,3.7,1.2c0.9,1.2,0.9,2.7,0.1,3.9 c-10.4,15.8-35.1,54.5-61.4,104.7c-0.8,1.4-0.4,3.2,0.9,4.2l113.8,88.4c0.8,0.6,1.6,0.8,2.6,0.7c0.9-0.1,1.7-0.6,2.2-1.4 c17.5-25.6,36.9-47.9,58.3-63.7c1.2-0.9,2.7-0.9,3.9-0.1c1.2,0.8,1.7,2.2,1.4,3.6c-4.2,15.6-13.1,50.4-21.3,95.2 c-0.2,1.3,0.2,2.5,1.2,3.2l90.6,70.5c1.2,1,2.9,1,4.1,0l90.6-70.5c1-0.8,1.5-2,1.2-3.2c-8.2-44.8-17.1-79.6-21.3-95.2 c-0.4-1.4,0.2-2.8,1.4-3.6c1.2-0.8,2.7-0.8,3.9,0.1c21.4,15.9,40.8,38.1,58.3,63.7c0.5,0.8,1.3,1.3,2.2,1.4c1,0.1,1.8-0.1,2.6-0.7 l113.8-88.4c1.3-1,1.7-2.7,0.9-4.2c-26.3-50.3-51-89-61.4-104.7c-0.8-1.2-0.7-2.7,0.1-3.9c0.9-1.2,2.3-1.6,3.7-1.2 c36.9,12.1,73.9,38.4,108.7,70c1.2,1.1,3,1.2,4.3,0.2l99.4-77.3c0.8-0.7,1.3-1.6,1.3-2.6v-74.5c0-1.7-1.2-3-2.8-3.3 c-77.7-13.1-143.9-9.5-170.1-7.2c-1.5,0.1-2.9-0.8-3.4-2.2c-0.5-1.4,0-3,1.3-3.9c40.4-27.6,104.7-42.6,172.1-50.4 c1.7-0.2,3-1.6,3-3.3V377.8c0-1.1-0.5-2.1-1.4-2.7c-0.9-0.6-1.9-0.8-3-0.5c-51.5,16.7-90.5,36-108.7,45.8c-1.4,0.7-3,0.4-4.1-0.7 c-1-1.2-1.1-2.8-0.3-4.1c13.4-19.4,47.7-61.2,115.8-101.2c1-0.6,1.7-1.7,1.7-2.9c0-108.5,0-199.6,0-308.1c0-1.8-1.5-3.3-3.4-3.3 h-111c-1.8,0-3.3,1.5-3.3,3.3v92.9c0,1.8-1.5,3.3-3.4,3.3h-111c-1.8,0-3.3-1.5-3.3-3.3V3.3c0-1.8-1.5-3.3-3.4-3.3H474 c-1.8,0-3.3,1.5-3.3,3.3v92.9c0,1.8-1.5,3.3-3.4,3.3h-111c-1.8,0-3.3-1.5-3.3-3.3V3.3c0-1.8-1.5-3.3-3.3-3.3h-111 c-1.8,0-3.3,1.5-3.3,3.3v92.9c0,1.8-1.5,3.3-3.3,3.3H121c-1.8,0-3.4-1.5-3.4-3.3V3.3c0-1.8-1.5-3.3-3.3-3.3H3.4C1.5,0,0,1.5,0,3.3 c0,108.5,0,199.6,0,308.1C0,312.7,0.6,313.7,1.7,314.3L1.7,314.3z M593.6,359.3c11.9-10.6,30.2-4.5,43,28.9 c12.8,33.4-29.5,81.1-40.1,94.6c-41.1,52.3-41.8,73.1-52.6-28.9c-4-38-46.5-34.5-23.9-66.3c0.8-1.2,2.2-1.7,3.6-1.3 c3.8,1,12.9,2.5,29-0.1C574.7,382.7,581.7,369.9,593.6,359.3L593.6,359.3z M303.6,387.6c22.6,31.8-19.9,28.3-23.9,66.3 c-10.8,102-11.5,81.1-52.6,28.9c-10.6-13.5-52.9-61.3-40.1-94.6c12.8-33.4,31.1-39.5,43-28.9c11.9,10.6,18.9,23.4,41,26.9 c16,2.6,25.2,1.1,29,0.1C301.4,385.9,302.8,386.5,303.6,387.6L303.6,387.6z M414.2,667.3c28.4,28.8,92.8,6.2,105.5,21.7 c13.7,16.6,3.6,55.9-28.6,68.6c-1.3,0.5-2.7,0.2-3.6-0.8c-1-1-1.2-2.4-0.6-3.7c3.1-7,2.6-12.6,2.4-11.8c-4.3,19.1-52.1,18.8-69.3,41 c-2.2,2.9-3.9,5.4-5.1,7.4c-0.6,1-1.7,1.6-2.9,1.6c-1.2,0-2.3-0.7-2.9-1.7c-6.9-12.4-20.9-23.2-44.6-28.4 c-23.1-5.1-30.2-19.9-30.2-19.9l4.6,12.8c0.4,1.2,0.2,2.5-0.8,3.5c-0.9,0.9-2.2,1.2-3.5,0.8c-33.9-11.7-44.8-52.4-30.8-69.4 c12.8-15.5,77.2,7.1,105.5-21.7c0.7-0.7,1.5-1,2.4-1C412.7,666.3,413.5,666.7,414.2,667.3L414.2,667.3z" fill="#ff6d00" fill-rule="evenodd"/></g></svg>