<?xml version="1.0" encoding="UTF-8" standalone="no"?><svg xmlns="http://www.w3.org/2000/svg" xmlns:xlink="http://www.w3.org/1999/xlink" data-name="Layer 1" fill="#000000" height="465.8" preserveAspectRatio="xMidYMid meet" version="1" viewBox="0.0 0.0 2000.0 465.8" width="2000" zoomAndPan="magnify"><g id="change1_1"><path d="M96.37,280.63c-.93,2.76,2.89,3.39,3.82,6.27L95,288.5c-5.37-2.94-7.41-7.71-9.4-12.43l-5.18,4.57c-.72-4.49-1.33-8.25-2-12.41H64.16l-8,7.84a28.06,28.06,0,0,0-2-4.59c-1.83-2.73-3.9-5.31-6.16-8.34-1.55,3.27-2.87,6.05-4.12,8.66H38.91L36.18,264l-8.26-.59-15.76-14.3c.16-1.71.28-3,.48-5.13,5.76-1.73,12-.53,18.13-.94L36,247.73l2.18-11.53c2.95-2.66,6.63-.53,9.67-1.36l4.35-3.77,5.25,4.26c.69-4.66,1.25-8.44,1.81-12.24,7.09,2.28,8.82,10.46,15.94,11.81,2.06,3.66,2.06,3.66,7.16,3.26.41-.52,1.17-1,1.18-1.55.08-6.81.05-13.62.05-20l-4.22-4.73c.06-3-.06-5.86,4.45-5.72,3.55,0,9.36,6.46,13.62,15.6,1.89.48,3.81.89,5.66,1.49.61.19,1,.88,1.49,1.28v4.22l5.94,5.82c5.37-2.37,6.19-7.92,8.93-12.14,3-4.63,9-4.52,13.07-7.4l3,2.93c3.79-.86,3.29-4.09,2.13-5.84-1.8-2.73-5.16-4.58-3.06-8.67,4.33-3,9.3-.81,13.94-1.39l4.41-4c4.31-1.71,5.75,2.67,8.57,3.53l5.4-4.36,7.2,4.28,5.29-4.77c-.47-1-.67-2.23-1.42-2.81a44.28,44.28,0,0,0-21.56-8.76c-3.13-4.26-.82-9.15-1.55-14l-8.27-3.81V163c6.16-7.47,16.41-8.34,23.45-14.46h24.88l3.84-3.75h29.37l3.71-3.63c6.29-2.22,13.49,1.42,20.3-3-6.6-3.08-12.88-1.48-18.93-1.74-6.28-.27-12.58-.06-18.88-.06H178l-4.09-4H98.56c-1.57-1.42-3.07-2.8-4.62-4.22H60.45l-3.71-3.63H44.15l-4-3.93L30,119.42l-1.74-7.37-8.09-6.23c1.12-7.65,7.45-10.21,11.34-14.74h8l4.38-3.69H56.24l5.32,4.08c.59-2.8,1-4.67,1.45-6.88C66.92,81,72,83.78,76.83,83l4.58,4,5.68-10.68L75.17,64.52,88.72,51.26c3.88-2.07,8.08-.67,13-1.18l5.38-3.89h16.15l4.44-4.35h37.77l3.89-3.8H211l4.79-4.23h58.43l4.51-4,5.21,4.6,7.69-3.87,3.69,2.8,4.25-3.41,4.25,3.67,2.9-2.65c.52-.44,1-1.25,1.55-1.25,28-.06,55.9-.05,83.71-.05,1.13-1.11,2.11-2.08,3.1-3,.55-.36,1.1-1,1.65-1,39.11,0,78.21,0,116.94,0l4.08-4h63.38c.8-1.88,1.29-3.05,1.79-4,10.82-.24,21.63-.7,32.43-1.23.29,0,.54-.89.81-1.36-15.75-2.46-22-2.4-33.24,2.59a59.53,59.53,0,0,0-6.22-.22l-4.4-4c-4.56-1.62-5.95,2.87-10,4.43l-7.77-4.15H509.1l-4,3.9H396l-3.67,3.59c-4.7.32-9.45,1.3-14.49-.85-.13-1.69-.27-3.54-.39-5.12.8-.78,1.29-1.69,1.79-1.69,22.33-.07,44.67-.06,66.89-.06l4.58-4.13,4.37,3.83,3.66-3.58,4.56,3.41h13.1c1.74-.4,2.93-5.28,7.7-3.61L488.44,13l4.38-3.92H639.43c1.5-1.34,3-2.66,4.45-4l3.69,3.61,4.55-3.33h17.22l3.52,3.44,4.4-3.57L681.52,9l2.93-2.73c1.19-.41,2.41-1.2,3.63-1.2Q758.27,5,828.28,5l4.4-3.84L837,4.81C841.9,6.5,843,1.4,847.69.7l6.07,3.75,3.66-3.09h449.84l3.56,3.49,4.46-3.92h12.42l4.38,4h8.23l4.39-3.82h29.44l3.46,3.38,6.86-4.11,6.43,4.15c1.09-1,2.54-2.22,4.12-3.58h8.21l4.35,3.88,5.25-4.59,7.46,3.82,6.14-3.68,6.3,4.06L1439.11,0l6.26,4.81c1.53-1.35,3.06-2.68,5.22-4.57l9.11,4.67h48.85c.78,1.87,1.28,3,1.77,4.21h-10.39l-4.44,4-3-3c-30.39-1.95-80.68-1.53-95.15.8.31.49.52,1.24,1,1.4a11.63,11.63,0,0,0,3.8.89c24.36.05,48.73,0,72.61,0l4.15,4.07h42l4.38,4.27h54.55l4.36,4.27H1647l3.78,3.69h24.92l4.65,4.21h16.6l4.59,4.19h29.17l3.68,3.6c6.74,1.22,14.34-.22,21.78.79l3.68,3.6h29.38l4,4,4.41-3.48,4.37,3.69h21.09l5.32,6.12c-.37.47-1,2-1.7,2.07-8.33.25-16.68.24-25,.41-.5,0-1,.9-1.46,1.36.94,3.46,4.25,1.94,6.37,2.92l7.66,7.48,4.52-3.72h20.8l4.38,4h12.39l4.63,4.21h8l4.82,4.22h12.2c1.92,3.61,3.72,7,5.6,10.52l-3.53,3.8c2.82,3.38,6.59,1.26,10,2l8.82-8.21h8.33c4.83,4.37,1.07,7.08-2.46,10.51,5.24,2.84,10.45,1.67,15.3,1.24l5.08-3.9c.45,2.9.73,4.75,1.08,7l-8.07,2.77c1,1.9,2,3.73,3.08,5.64-3,3-6.72.18-9.48,1.58l-5.24-4.6-1.75,5.83c4.84,2.57,10,4.2,13,9.34-2.5.85-5.32,1.18-7.26,2.64-2.23,1.69-4,3.67-7.43,2.84-4.49-2.48-.62-7.42-3-11-1.94-2.43-5-.61-7.56-1.14V105.16l-4.84-1.81c-5.24,1.69-6.36,7.78-11.76,8.42-4.56.55-6.67,4-8.57,7.37-.47,6.48,8.29,7.13,8.39,13.13H1877a31.52,31.52,0,0,1-1.64,5.14,57.29,57.29,0,0,1-3.72,5.69l5.89,5.3,6.28-5.75V132.27l3.88,1.56v13.22c-.42,1.85-5.72,2.86-2.63,8.88l4.24,4.37c4.31-.84,5.38-5.47,11.28-7.35h5.86l4.88-4.37c2,2.54,4.39,4.92,6,7.73,2.17,3.85,3.21,8.36,5.67,12,2.27,3.34,5.77,5.88,8.92,9h13.18l6.85,8.43h5.86c.62,1.67,1.27,3.45,2.25,6.14l-9,6.78v9.46l-4,4.33,3.9,4.25c.6,3.52-1.11,7.12,2.19,10.23,1.42-3,2.73-5.72,4.11-8.62l5.68,10.86c-.74.83-2,2.24-3.28,3.69l4,4.25v8.17c-1.15.68-2.26,1.91-3.38,1.91-16.62.13-33.25.09-49,.09l-4.51,4.41h-17.92c.79,5,5,6.41,7.22,9.48-.64.83-1.3,2.41-2,2.42-11.13.15-22.26.11-33.38.11l-4.59,9.11-16.17-8.13-16.48,8.2-4.36-9.12h-4.43c-3.55,2.63-1.41,6.34-2.17,10.09l-5.4,5.65-9.61,1.09c-.59.57-1.5,1.05-1.51,1.54-.1,5.44-.07,10.9-.07,16.29l-4.12,4.4,6,5.91,4.44-4c3.41,0,6.89,0,9.73-.13,1.29,1.84,2.45,4,3.66,4.05,3.08.09,6.62,1.46,9.37-1.62-3.47-4.38-8.3-1.5-13-2.43a77.52,77.52,0,0,0,6.2-11.18l6.39-2.2c.35-3.07.73-6.29,1.11-9.53,2.84-3,6.56-.88,9.8-1.6l4.58,4.15h8.76c.62,1.67,1.27,3.45,2.3,6.26L1837.73,301v5.88c2.79,3.26,6.49,1.61,9.76,1.89,2.77.23,5.58.05,8.37.05H1866c.67-5.63-3.42-3-7-8,.6,1.73,0-.72-1.12-2.85-.47-.86-2.26-1-3.46-1.51V282.27l-5-5.13,8.19-1.38c.55,2.74.93,4.59,1.37,6.75l9.67,9.47,6.55,1.27v13.14l6.37,6.51h8.44c5-4.27.21-10.3,2.79-15l3.54-1.41v10.06l4.39,4.6-9.65,8.25c1.45,2.41,2.84,4.43,3.9,6.61s1.8,4.56,2.63,6.74c4.17,1.46,4.6,1.25,7.12-3.42,1.16-.45,3.17-.71,3.33-1.38.57-2.46-1.29-2.87-3.33-2.72-.41-4.34,4.7-4.7,5.58-8.55,3.46,3.18,6.39,5.86,9.38,8.62H1929c.31,2.27.63,4.6.94,7-11.82,1.54-21.26,5.72-27.82,14.2l-11.12-5.4c-6.75,4.82.87,12.65-5.28,16.84l-5.94-5.8c1.53-2.73,6.1-4.09,2.77-9.54-4.51-2.35-10.84-.29-18.21-1.12l-5.48,5.41c-1.19,7.88,6,8.47,7.18,14l-4.35,4.57c-8.12,4.54-13.55-6.05-23.51-1.61l-4.75,3.35-6.8-4.95H1815l-5.44,4.06c-5.59.11-7.15-6.68-12.91-3.21l-1.31,5.17,6.81,5.94c6,3.11,10.4-3.47,16-4.07l4.76,4.33,4.39-4c5.88-1.18,8.82,7.48,17.59,2.78l2.85-2.14,6.81,4,6.67-4.47c1.3,1.76,2.88,3.92,4.69,6.39l-7,3.3c1,3.44,4.4,1.81,6.42,3a34.38,34.38,0,0,1,4.06,3.22l3.61-3.54,5.25,4.39h19.8l-18.86,5.34,8.48,4c-2.66,5.46-9.42-.34-12.77,5.26,6.86,2.43,13.77.76,20.43,1.28,5.9.46,12.09-1.21,20.32,2.33-8.51,2.63-14.74,1.38-20.64,1.77l-7.93,5.82c7.63,5,15.15-.19,21.67,4-1.28,1.5-2.45,2.89-3.89,4.59l8.21,3.8v4.32l-11.82,6H1890.7l-4.86,4.22h-41.61l-4.62,4.21h-88c-1,1-2,2-3.93,3.85-12.08.74-25.22-.18-38.25.47l-3.74,3.66h-88.12c-1.72,1.68-2.71,2.64-4.41,4.32H1462.07l-4.37,4.26H1000.3l-3.84,3.76H862.12l-4.23-3.68-6.45,4.79-6.83-5.12H442.23l-3.8-3.72H371.29l-4.44-4.34H341.67l-4-3.89H307.45L297,436H278.58c-5-4.55-.81-7.14,2.11-10.09v-8.1c5.26-4,7.77-11.53,16.3-10.82-.58-4.44-3.76-7.14-6.1-7.5-4.19-.64-5.55-1.65-6.26-5.9-.45-2.7-4.15-4.88-5.66-6.51-8.07-1.46-5.35,5.37-8.47,7.68L266,391H253.68c-2.31.84-3,4.61-6.48,4-.46-1.14-.73-3.11-1.42-3.26-2.51-.56-2.93,1.26-2.78,3.26-2.55-.47-3.88,1.06-4.11,3.11-.32,2.75.18,5.39,4.11,5.1.49,1.15.92,3.29,1.45,3.31,6,.27,9.81,7.57,19.12,3.91l4.83-4.61-4.74-5.71,6.28-1.24c5.21,4,.3,9.3,2.44,13.52l4.38,6.72h-10c-8.07,6.5,4,9.3,1.42,14.39-4.68,3.09-4.69,3.11-10-1l-6.51,4-8.79-5-6.56,4.32c-.51-1.36-1.95-3.21-1.52-4.43,1.35-3.74,3.74-6.89,8-8.17.68,2.61.38,5.79,4,3a33.66,33.66,0,0,0-4-3c1.76-6-4.26-9.87-5.71-15.41-.63-2.38-2.16-4.54-3.72-7.7-1.43-.49-4.31-.79-6.15-2.31-2.25-1.85-4.18-3.42-7.2-2.67L207.72,383l-4.29,3.29c-4.46.69-9.29,1.82-12.63-3.41H178.1l-4.59,4c-1.6-2-3.28-4.1-5.75-7.21v-7.61l-8.61-6.29V354.56L145.8,343.83c1-2.76,1.61-4.54,2.3-6.5l4.73,4.14,4.34-3.75,6.08,5.95v4.16l10.4,9.92c2.35-.74,3-4.47,6.41-3.8-.15,4.15,3.81,5.4,6.07,7.69.91.92,3.6.15,5.13.15,3.24-6,.25-10.27-2.13-14.68,3-2.77,6.64-.61,9.87-1.43,3.14-4.95,4-11.51,12.82-14l-9.45-3.09c-.89-2.37-1.77-4.73-2.74-7.3-1.11,1-2.58,1.61-2.67,2.42a63.93,63.93,0,0,0-.12,7.64c-3.13,3.55-6.87,1.41-10.21,2.12l-4.54-4.12H165.51l-4.38-3.94-4.37,3.71c-2.66-2.6-4.89-6.66-7.65-7.05-4.4-.62-6.65-4.34-10.53-5a39.62,39.62,0,0,0-6.47-.06l-4.63,4.1H123.6a32.32,32.32,0,0,0-4.18.06c-.56.08-1,.91-1.56,1.23-3.87,2.17-7.77,4.3-11.71,6.46l-3.27-3.2H92.08l-12.59-6.74c4-3.88,9.45-7.11,11.41-11.77s4.18-7.94,8-10.67c4.68-.53,6.37,1.62,5.53,6.28l6.32,5.58h13.39c1-2.83,1.9-5.21,2.88-7.91l4.84,4.23h12.65l5.85-6.13-7.85-3.74c.8-2.56,4.65-3.19,4-6.52,6.47,1.41,10.45-4.26,15.88-5.38-1.33-3.21-2.5-6.53-4.11-9.62-.43-.82-2.22-1-3.14-.85-.69-2.61-.38-5.78-4.05-3a32.81,32.81,0,0,0,4.05,3,40.9,40.9,0,0,0-.24,6c-2.58,2.42-5.52,5.11-8.35,7.91-.34.34,0,1.28,0,1.94h-11l-2.34,6.9c-3.8,1.94-7.57,2.2-11.63-.41l3.6-4.23c-1.19-2.68-5.43-4.14-3.78-8.27l4.16-4.34V267.74a9,9,0,0,0,4-.57c.69,2.61.38,5.79,4,3a32.77,32.77,0,0,0-4-3,32.45,32.45,0,0,0,4.09-5.93L118.7,246.72c-2.88,5.06-.63,10.58-2.53,15.3-1.33,2.14-2.84,4.37-3.08,6.72-.2,1.94,1.45,3.58,4,3.11-.51,3.86,1.21,8-1.65,12.09L111,280.43,106.56,284l-3.73-7.76a32.65,32.65,0,0,0-6.46,4.38c-.69-2.61-.38-5.78-4.05-3A32.81,32.81,0,0,0,96.37,280.63Zm1677.15,20.42c3.26-.9,6.5-.6,3.66-4.19-1,1.12-2,2.24-1.32,3.26-3.25.91-6.5.61-3.65,4.19C1773.18,303.19,1774.16,302.08,1773.52,301.05ZM204.76,209.13c.93,3.18.62,6.36,4.29,3.57-1.15-.95-2.29-1.9-3.34-1.28-.92-3.19-.62-6.36-4.28-3.58C202.57,208.79,203.71,209.75,204.76,209.13Zm1595.11-72.75c2.69-.75,6.48,2,8-2.4-5.55-1.8-5.55-1.8-7.59,2.77l-.82-.8-3.43,2.86,1.32,1.3A11.84,11.84,0,0,0,1799.87,136.38ZM176.34,215.52c-.93-3.18-.62-6.36-4.29-3.57a12.41,12.41,0,0,0,3.81,2.43v10.38l12.07,5.8V220.08l-5.75-5.7C180,214.38,178,214.38,176.34,215.52Zm32.91,142.55c6.89-.73,2.38,7.1,6.71,8.2,3.21-.71,6.9,1.44,9.73-1.52.18-1.3.36-2.59.55-4-3.14-6.18-10.15-6.95-16.25-10.83-.28,3-.51,5.57-.56,8.13-4.29,2.43-4.29,2.43-2.45,7.86C211.46,364.4,208.66,360.69,209.25,358.07Zm44.61-159.53c3.95-1.68,7.65-4.67,11-4.33,4.61.47,6.82-3.08,10.39-3.72l3,2.9h47.25l6.09-6.42-2-5.4h-4.64l-4.48,4.07H257.74c-2,2.62-5.6,4-6.5,8.31Zm-34,4c5-7.71,12.33-2.78,17.54-5.95l10.22-5.22c-.6-2-1.15-3.8-1.69-5.56l-8.25,4.63-5.26-4.8H220l-4.35,3.84-3.95-3.26-7,4.25-5.34-4.23c-2,1.11-4,2.66-6.25,3.38-2.48.79-5.22.77-7.83,1.22-.27,0-.38.9-.52,1.26l5.72,5.83h8.37l4.35,3.9,4.53-3.92C211.94,198.2,216.48,196.57,219.82,202.57ZM259,334c-3.9,1.59-6.26,2.53-8.6,3.52-4.45,1.87-6.72-2.72-10.83-3.51-.32,2-.62,3.81-.88,5.45,2.69,2.63,5.47,4.77,7.45,7.48,1.41,1.94,1.75,4.63,2.75,7.52h9.78c1,3,1.85,5.38,2.28,6.61l7.44-4.47c-.25-4.49-.39-7.08-.5-9.1C263.67,343.27,259.15,340.12,259,334ZM1827.07,173.34c-3.16.69-6.81-1.4-10.65,2.21,1.93,2.74-2.19,7,2.46,10.07h12.38l4.35-3.87,4.69,4c2.82-.19,5.54-.3,8.24-.62.54-.06,1-.9,1.59-1.49-4.51-3.66-7.09-9.74-13.87-10.66l-4.86,4.22ZM278.61,349.87c4.75-.54,9.57,1.21,14.37-1.43-1.31-2-3.07-3.83-3.69-5.94-.89-3,1.18-6.67-2.33-9.08-4.58.53-9.4-1.22-14.19,1.41v9Zm1507.9-67c.47-5.75-6.11-.49-6.93-4.19-.77-2.34-1.55-4.68-2.31-7-3.78.85-7.4-1.25-11.06,2.24.22,2.51.43,5.67.82,8.82.07.54.86,1,1.23,1.4,5.68,0,11.18,0,16.67-.06C1785.45,284.1,1786,283.33,1786.51,282.88Zm126.65-82.75c.64,1.85-1.69,5.39-1.44,5.38l14.69-9.35c-1.38-4.37.9-8.17-3-10.52-3.21.72-6.93-1.45-9.74,1.51-2.13,4.15,1,6.2,3.52,8.61Zm-123.9-92.48c1.89-2.3,5.07-3.59,5.79-7.26-3.06-1-3.74-5.46-7.89-5.1-9.51,7-10.32,8.65-6,12.35Zm71.46,78h9c1-1.09,2-3,3.69-4s5.34,1.32,5.62-4.23c-7.38,0-14.72-.07-22.06.11-.72,0-1.39,1.55-2.08,2.37Zm-117.47,98.53c3.23-.73,6.9,1.41,9.85-1.43-.39-4-3.79-2.15-5.92-2.91-3.87-3.79-7.79-7.64-11.76-11.44-.22-.2-1,.11-1.44.18C1733,274.07,1733,274.07,1743.25,284.17Zm149.3-100.25-1.74-8.52-7,8.27c1.19,1.05,16.33,10.27,17,10.11a18.7,18.7,0,0,0,3.49-1.57C1902.49,186.39,1895.87,187,1892.55,183.92ZM195.72,300.58c-11.19.07-11.19.07-15.77,3.23,2.57.36,4.48.94,6.35.82,4.64-.3,9.46,1.27,13.89-1.09.84-3.86,2.38-7.7-1.58-11.48C197.75,294.6,197,296.88,195.72,300.58Zm-40.85-2.19c2.34,1.88,3.67,5,8.4,5.86,0-4.67.11-9.16-.11-13.64,0-.66-1.62-1.25-2.5-1.88C158.91,291.5,154.85,292.48,154.87,298.39Zm1649.2-28.59-5.74-5.61c-3.78-.24-7.83-2.26-11.35,1.86,2.55.82,5.16,1.19,7.19,2.45s3.53,4,6.81,3.29Zm17-160.34c2,2.19,3.47,5.07,7,5.64l5-5.27-5.74-6.41ZM226.83,341.28l-1.59-8.11-7.86,1.44c.54,2.76.9,4.59,1.3,6.67ZM619.47,15.63c10.13,1.87,10.12,1.78,13.08-1.07C628.83,12.5,625.12,12.5,619.47,15.63ZM1847.4,133.31c2.45-3.44,5.81-4.6,6.28-8-2.45-1.82-4.77-2-7.75.82C1846.3,127.92,1846.76,130.19,1847.4,133.31Zm-64.88,129.54c-8.64-3.49-8.63-3.39-11.69,0a49.71,49.71,0,0,0,6.06.71A45,45,0,0,0,1782.52,262.85Zm30,93.16c-4.26-3.44-8.45-3.44-12.71,0C1804.07,359.44,1808.26,359.44,1812.52,356ZM253.13,375c3.26-3.42,3.09-5.69.62-8.77l-4.65.7C250.33,369.4,251.7,372.15,253.13,375Zm1472-276.15,2.66-.14c.25-1.82.6-3.63.67-5.46,0-.45-1-1.4-1.34-1.31-1,.28-2.61.9-2.65,1.46A28.36,28.36,0,0,0,1725.13,98.87Zm20.51-1.49c-3.81-2.66-6.48-3.85-8.22.6C1739.88,100.21,1742.2,100.07,1745.64,97.38Zm113.56,19.25c0,.87.07,1.74.11,2.6,1.87.24,3.73.59,5.61.66.46,0,1.43-1,1.34-1.31-.29-1-.92-2.56-1.5-2.59A28.74,28.74,0,0,0,1859.2,116.63Zm12,13.59q-4.21-4.43-8.41,0Q1867,134.64,1871.22,130.22Zm13.16,64.41c0,.87.07,1.73.11,2.6,1.87.24,3.73.59,5.61.66.45,0,1.43-1,1.34-1.31-.29-1-.92-2.56-1.5-2.59A28.65,28.65,0,0,0,1884.38,194.63ZM253.49,424.06c2.72-3.73,3.94-6.34-.61-8C250.6,418.42,250.75,420.69,253.49,424.06Zm58.75-82.43q-4.51,4.11,0,8.23Q316.77,345.74,312.24,341.63Zm1462.44-88.25q4.21,4.42,8.41,0Q1778.89,249,1774.68,253.38ZM1876,248l.12,2.6c1.87.24,3.73.58,5.6.65.46,0,1.43-1,1.34-1.3-.28-1-.91-2.56-1.49-2.6A29.57,29.57,0,0,0,1876,248ZM1712.35,93.87l1.49,1.46a12.45,12.45,0,0,0,1.32-2.76c.07-.34-.85-.89-1.32-1.35C1713.34,92.12,1712.84,93,1712.35,93.87Zm170-2.06-2.71,1.47c.47.45,1,1.35,1.38,1.28a13.69,13.69,0,0,0,2.82-1.28ZM1773.2,103l1.49-1.46a13.22,13.22,0,0,0-2.82-1.29c-.34-.07-.91.83-1.37,1.29ZM981,106.18l-1.5-2.64c-.46.45-1.39,1-1.31,1.35a13,13,0,0,0,1.31,2.75Zm833,.87,2.71-1.46c-.47-.46-1-1.36-1.38-1.28a12.71,12.71,0,0,0-2.82,1.28Zm2.1,27.87c-.48-.86-1-1.75-1.49-2.65-.47.46-1.39,1-1.31,1.35a12,12,0,0,0,1.31,2.76ZM540.34,159.55l-1.49-2.64c-.47.45-1.39,1-1.31,1.35a12.55,12.55,0,0,0,1.31,2.75Zm-80.62,10.26-2.7,1.46c.47.46,1,1.36,1.38,1.29a13.45,13.45,0,0,0,2.82-1.29Zm-93.53,15.24,2.71-1.46c-.47-.46-1-1.36-1.38-1.28a12.71,12.71,0,0,0-2.82,1.28ZM150.08,212.92c-.49-.86-1-1.76-1.5-2.65-.46.46-1.38,1-1.31,1.35a12.45,12.45,0,0,0,1.32,2.76Zm124.4,1.46c-.47.45-1.39,1-1.32,1.35a12.6,12.6,0,0,0,1.32,2.75c.46-.45,1.39-1,1.31-1.35A13,13,0,0,0,274.48,214.38Zm-59.36,4.7-1.49,1.46a13.69,13.69,0,0,0,2.82,1.28c.34.07.91-.83,1.38-1.28Zm-59.64,14.36,1.5,1.46a13,13,0,0,0,1.31-2.75c.08-.34-.85-.9-1.31-1.35Zm-16.78,8.21,1.49,1.46a12.55,12.55,0,0,0,1.31-2.75c.08-.34-.84-.9-1.31-1.35Zm1627,8.21-1.49-2.64c-.47.46-1.39,1-1.31,1.35a12.55,12.55,0,0,0,1.31,2.75C1764.67,250.87,1765.13,250.41,1765.69,249.86Zm-11.38,23.45,1.5,2.65c.46-.46,1.39-1,1.31-1.35a12.87,12.87,0,0,0-1.31-2.76ZM205.84,293.84l1.49,2.64c.47-.46,1.39-1,1.32-1.35a12.6,12.6,0,0,0-1.32-2.75Zm1619.81,5.29,1.5,1.46a13.1,13.1,0,0,0,1.31-2.76c.08-.34-.85-.89-1.31-1.35C1826.64,297.37,1826.14,298.27,1825.65,299.13ZM305.34,334.89c-.56-.55-1-1-1.49-1.46a13,13,0,0,0-1.31,2.75c-.08.34.85.9,1.31,1.35C304.36,336.64,304.86,335.75,305.34,334.89Zm-72.22,6.16,1.49-1.46a13.22,13.22,0,0,0-2.82-1.29c-.34-.07-.91.83-1.38,1.29ZM1837,343.1c-.56-.55-1-1-1.49-1.46a12.55,12.55,0,0,0-1.31,2.75c-.08.34.84.9,1.31,1.35ZM226.22,347.8c-.47-.46-1-1.36-1.38-1.29A13.22,13.22,0,0,0,222,347.8c.47.45,1,1.35,1.38,1.28A13.69,13.69,0,0,0,226.22,347.8ZM281.38,373l1.49,1.46a12.41,12.41,0,0,0,1.31-2.76c.08-.33-.84-.89-1.31-1.35C282.37,371.27,281.86,372.16,281.38,373Z" fill="#2b7f66"/></g><g id="change1_2"><path d="M1984.27,127.81a46.85,46.85,0,0,0,.24-6.19l6.32-2.46c2.81,3.65,5.7,7.41,9.17,11.9l-2.46,3.12c-.29,2.69-.63,5.9-1,9.68-2,.22-4.67,1.31-5.66.48-4.64-3.91-8.82-8.35-13.67-13.09l-8.31,5-5.58-8h-6.9l-1.41-6.55,8-3.09c-1.55-2.69-3-5.28-4.76-8.3l7.4-4,4.85,8.93-2.67,2.85c3,1.49,6,2.71,8.69,4.39s4.17,5.33,7.76,5.33c.69,2.4.38,5.57,4,2.79A19.67,19.67,0,0,0,1984.27,127.81Z" fill="#2b7f66"/></g><g id="change1_3"><path d="M320.74,21.44l-4.44,4-3.56-3.48H286.58L283.44,25l-7-4.07-6.74,4.52h-7.63c-3.43-2.49-3.11-5.24-.21-8l4.4,3.91,3.8-3.73h79.34l6.26-5,9.25,5.29,6.24-4.19c2.61,1.38,2.29,3.78,1.45,6.16-.64.64-1.12,1.56-1.6,1.56C354.2,21.45,337.42,21.44,320.74,21.44Z" fill="#2b7f66"/></g><g id="change1_4"><path d="M217.83,25.54c-.48,1.15-1,2.3-1.56,3.8H165.68l-3.79,3.71c-4.62,1.92-10.11.07-15.4.7.48-1.16.64-2.9,1.51-3.36,2.79-1.48,5.84-2.47,11.21-4.62h17.51L183.63,21l9.4,5.08,6.05-4.38,4.22,3.81Z" fill="#2b7f66"/></g><g id="change1_5"><path d="M1951.78,114l-10.69,7.55,5.6,9.64v7.34l-10.34,10.12c-2.41-3-7.16-4.39-6.29-10.07l7.89-3.79c2.41-4.81-2.72-6.89-4.49-9.28,5.5-9,8.83-12.45,13.58-13.6C1948,111.63,1949.33,112.82,1951.78,114Z" fill="#2b7f66"/></g><g id="change1_6"><path d="M1539.69,13.23h6.19l4.43-4c1.08,1,2.06,2,3.72,3.63h42c3,2.81,3.15,5.14,1,8.1h-9.51l-3.69-3.6h-42.36Z" fill="#2b7f66"/></g><g id="change1_7"><path d="M1967.73,202.06h14.9l6.25,7-7.33,4.53c-1.7,4.69-.07,7.86-4.17,8.61l-2.61-7.21-9.59-1c-1.58-1.55-1.58-1.55,2.55-5.82Z" fill="#2b7f66"/></g><g id="change1_8"><path d="M1627.8,20.23c.31-2.35.62-4.65,1-7.77l5.27,4.79,4.29-3.94,3.62,3.54c7,1.94,15.31-1.05,23.55,1.55C1659.08,22.27,1655.8,22.41,1627.8,20.23Z" fill="#2b7f66"/></g><g id="change1_9"><path d="M1510.32,9.12c8.76,0,17.52-.12,26.27.09a3.13,3.13,0,0,1,3.1,4h-6.09c-1.36,1.26-2.8,2.56-4.32,4l-4.69-4.24h-12.77Z" fill="#2b7f66"/></g><g id="change1_10"><path d="M60.78,217.08l-9.09,1.78-3.54,7.81h-4.4c-4.45-3.68,2.41-4.43,2.09-7.16a58.29,58.29,0,0,1-.07-7.19l2-1.94C50.08,213.86,54.22,214.1,60.78,217.08Z" fill="#2b7f66"/></g><g id="change1_11"><path d="M256.36,23c-2.11,1.69-2.62,2.46-3.14,2.47q-10.35.12-20.71,0c-.49,0-1-.89-1.46-1.37C236.48,20.9,236.48,20.9,256.36,23Z" fill="#2b7f66"/></g><g id="change1_12"><path d="M104.52,37.86c-3.7,4.21-10.86,7.57-15.88,7.17.14-3.64,3.71-4.76,5.44-7.18Z" fill="#2b7f66"/></g><g id="change1_13"><path d="M137.73,156.31v8l-6.82,1.27c-.49-2.55-.93-4.85-1.47-7.69Z" fill="#2b7f66"/></g><g id="change1_14"><path d="M1845.67,53.68v8l-6.82,1.27c-.49-2.55-.93-4.85-1.47-7.69Z" fill="#2b7f66"/></g><g id="change1_15"><path d="M104.56,37c5.35-5,10.9-2.49,16.46-1.93C116,39.6,109.92,36.53,104.56,37Z" fill="#2b7f66"/></g><g id="change1_16"><path d="M72.4,210.88c4.12.34,1.89,3.75,2.91,5.51.91,1.56,3,2.49,6.07,4.94l-8.75,1.28C70.35,218.12,70.11,214.5,72.4,210.88Z" fill="#2b7f66"/></g><g id="change1_17"><path d="M1941.79,94.73l10.12,1.87c-3.38,2.52-4.64,5.69-8.58,6.32C1943,101.05,1942.64,99.24,1941.79,94.73Z" fill="#2b7f66"/></g><g id="change1_18"><path d="M1900.73,115.81c-.19,2.48-.37,4.9-.55,7.38-4.68.61-4.65-4.21-7.81-4.36C1894.09,113.83,1897.9,116.63,1900.73,115.81Z" fill="#2b7f66"/></g><g id="change1_19"><path d="M1900.28,144.59c.58-3.68.94-5.94,1.42-9,2.29,2.15,3.78,3.39,5.07,4.81a13.4,13.4,0,0,1,1.53,2.76c-1.14.46-2.27,1-3.45,1.36C1904.24,144.74,1903.52,144.59,1900.28,144.59Z" fill="#2b7f66"/></g><g id="change1_20"><path d="M24.79,234.91v-5.75c2.17-4,5.08-1.94,8.77-2.48C30.86,231.38,28.85,234.3,24.79,234.91Z" fill="#2b7f66"/></g><g id="change1_21"><path d="M226.22,427.84h-5.88c-3.62-2.18-3.4-4.8-1-7.72C222.62,421.91,225.6,423.88,226.22,427.84Z" fill="#2b7f66"/></g><g id="change1_22"><path d="M1606.51,15.28c3.44-2.69,5.76-2.83,8.22-.61C1613,19.13,1610.32,17.93,1606.51,15.28Z" fill="#2b7f66"/></g><g id="change1_23"><path d="M217.48,26.12c2.83-4.78,2.83-4.78,8.39-3C224.26,27.4,220.44,24.54,217.48,26.12Z" fill="#2b7f66"/></g><g id="change1_24"><path d="M146.49,33.75c-2.48,4.2-2.48,4.2-8,2.4C140,31.76,143.79,34.5,146.49,33.75Z" fill="#2b7f66"/></g><g id="change1_25"><path d="M1866.43,65.81a29.37,29.37,0,0,1-5.56.65c-.58,0-1.21-1.63-1.5-2.6-.09-.3.89-1.32,1.35-1.3,1.87.07,3.73.41,5.6.65C1866.36,64.08,1866.4,65,1866.43,65.81Z" fill="#2b7f66"/></g><g id="change1_26"><path d="M1917.18,134.42c3.31-3.13,5.62-2.29,8.26-1.15C1923.53,138.18,1920.86,137,1917.18,134.42Z" fill="#2b7f66"/></g><g id="change1_27"><path d="M127.6,173.32q4.53,4.11,0,8.23Q123.09,177.43,127.6,173.32Z" fill="#2b7f66"/></g><g id="change1_28"><path d="M115,181.22c2.74,3.37,2.89,5.64.61,8C111.08,187.56,112.3,185,115,181.22Z" fill="#2b7f66"/></g><g id="change1_29"><path d="M226.23,413.48q-4.22,4.42-8.41,0Q222,409.05,226.23,413.48Z" fill="#2b7f66"/></g><g id="change1_30"><path d="M247.2,395c0,1.85.54,3.93-.17,5.48-.57,1.24-2.63,1.84-4,2.73V395Z" fill="#2b7f66"/></g><g id="change1_31"><path d="M180.06,354v-8.21c3.94-.29,4.43,2.35,4.11,5.1C183.94,352.89,182.62,354.42,180.06,354Z" fill="#2b7f66"/></g><g id="change1_32"><path d="M180.06,345.74c-4.3-2.42-4.3-2.42-2.46-7.86C182.09,339.41,179.29,343.11,180.06,345.74Z" fill="#2b7f66"/></g><g id="change1_33"><path d="M73.05,312.89q4.52,4.13,0,8.23Q68.54,317,73.05,312.89Z" fill="#2b7f66"/></g><g id="change1_34"><path d="M79.35,306.74q-4.2,4.42-8.41,0Q75.16,302.33,79.35,306.74Z" fill="#2b7f66"/></g><g id="change1_35"><path d="M117.12,294.43c-2.81,2.95-5.6,2.95-8.41,0C111.52,291.48,114.31,291.48,117.12,294.43Z" fill="#2b7f66"/></g><g id="change1_36"><path d="M75.15,234.9c.77-2.63-2-6.33,2.45-7.86C79.44,232.48,79.44,232.48,75.15,234.9Z" fill="#2b7f66"/></g><g id="change1_37"><path d="M1622.13,13.82l1.49,1.46a13.18,13.18,0,0,1-2.82,1.28c-.34.08-.91-.83-1.38-1.28Z" fill="#2b7f66"/></g><g id="change1_38"><path d="M1673.37,20l-1.49,1.46a12.62,12.62,0,0,1-1.31-2.76c-.08-.34.84-.89,1.31-1.35C1672.38,18.22,1672.89,19.11,1673.37,20Z" fill="#2b7f66"/></g><g id="change1_39"><path d="M129.1,31.11l-1.5,2.64c-.46-.46-1.39-1-1.31-1.35a13,13,0,0,1,1.31-2.75Z" fill="#2b7f66"/></g><g id="change1_40"><path d="M32,83.48c1.71-2,2.68-3.08,3.66-4.19C38.51,82.87,35.27,82.57,32,83.48Z" fill="#2b7f66"/></g><g id="change1_41"><path d="M34.35,82.55,30.7,86.74C27.85,83.15,31.1,83.45,34.35,82.55Z" fill="#2b7f66"/></g><g id="change1_42"><path d="M1938.83,117l-4.29-3.58C1938.21,110.64,1937.9,113.82,1938.83,117Z" fill="#2b7f66"/></g><g id="change1_43"><path d="M73.66,164.52,71,163.06c.47-.45,1-1.36,1.38-1.28a13.69,13.69,0,0,1,2.82,1.28Z" fill="#2b7f66"/></g><g id="change1_44"><path d="M100.8,182.68l-4.28-3.58C100.18,176.32,99.88,179.5,100.8,182.68Z" fill="#2b7f66"/></g><g id="change1_45"><path d="M104.52,185.64q-4.35.17-4.19-4.1Q104.68,181.38,104.52,185.64Z" fill="#2b7f66"/></g><g id="change1_46"><path d="M104,184.5l4.29,3.57C104.67,190.86,105,187.68,104,184.5Z" fill="#2b7f66"/></g><g id="change1_47"><path d="M1965,189.16l-1.49-1.47a13.69,13.69,0,0,1,2.82-1.28c.34-.07.91.83,1.38,1.28Z" fill="#2b7f66"/></g><g id="change1_48"><path d="M1968.2,203.21l-4.28-3.58C1967.58,196.85,1967.28,200,1968.2,203.21Z" fill="#2b7f66"/></g><g id="change1_49"><path d="M100.93,208.81l1.49-2.64c.47.45,1.39,1,1.32,1.35a12.6,12.6,0,0,1-1.32,2.75Z" fill="#2b7f66"/></g><g id="change1_50"><path d="M110.82,222.59a13,13,0,0,1,1.31,2.75c.08.34-.85.9-1.31,1.35a12.55,12.55,0,0,1-1.31-2.75C109.43,223.6,110.35,223,110.82,222.59Z" fill="#2b7f66"/></g><g id="change1_51"><path d="M4.29,240.15,0,236.58C3.67,233.79,3.36,237,4.29,240.15Z" fill="#2b7f66"/></g><g id="change1_52"><path d="M26,234.44l-3.65,4.19C19.46,235,22.71,235.34,26,234.44Z" fill="#2b7f66"/></g><g id="change1_53"><path d="M3.33,237.86l4.29,3.58C4,244.22,4.26,241.05,3.33,237.86Z" fill="#2b7f66"/></g><g id="change1_54"><path d="M125.5,267.74h-4.19c.46-1.13.73-3.1,1.41-3.25C125.24,263.93,125.65,265.75,125.5,267.74Z" fill="#2b7f66"/></g><g id="change1_55"><path d="M121.31,267.74c.11,2.85-1.29,4.21-4.2,4.11C117,269,118.4,267.64,121.31,267.74Z" fill="#2b7f66"/></g><g id="change1_56"><path d="M74.54,278.6l-1.49,1.46a12.41,12.41,0,0,1-1.31-2.76c-.08-.33.84-.89,1.31-1.34Z" fill="#2b7f66"/></g><g id="change1_57"><path d="M1895.22,297l3.65-4.19C1901.72,296.34,1898.47,296,1895.22,297Z" fill="#2b7f66"/></g><g id="change1_58"><path d="M1806.77,300l-2.7-1.46c.46-.45,1-1.36,1.38-1.28a13.86,13.86,0,0,1,2.81,1.28Z" fill="#2b7f66"/></g><g id="change1_59"><path d="M1855.59,296l-3.65,4.2C1849.09,296.62,1852.34,296.92,1855.59,296Z" fill="#2b7f66"/></g><g id="change1_60"><path d="M1904.78,329.32c-2,.15-3.9-.26-3.33-2.72.16-.67,2.17-.93,3.33-1.38Z" fill="#2b7f66"/></g><g id="change1_61"><path d="M1877.5,374.48a12.6,12.6,0,0,1,1.32,2.75c.07.34-.85.9-1.32,1.35a13,13,0,0,1-1.31-2.75C1876.11,375.49,1877,374.94,1877.5,374.48Z" fill="#2b7f66"/></g><g id="change1_62"><path d="M225.74,426.7l4.29,3.58C226.36,433.06,226.67,429.89,225.74,426.7Z" fill="#2b7f66"/></g><g id="change1_63"><path d="M278.07,338.13l2.7,1.46c-.46.45-1,1.35-1.38,1.28a13.61,13.61,0,0,1-2.81-1.28Z" fill="#2b7f66"/></g></svg>