<?xml version="1.0" encoding="UTF-8"?><svg xmlns="http://www.w3.org/2000/svg" xmlns:xlink="http://www.w3.org/1999/xlink" height="1006.9" preserveAspectRatio="xMidYMid meet" version="1.0" viewBox="127.8 0.0 818.4 1006.9" width="818.4" zoomAndPan="magnify"><g><g id="change1_1"><path d="M 413.332031 531.050781 C 543.167969 316.566406 490.546875 85.023438 336.378906 0 C 469.316406 317.980469 127.839844 389.546875 127.839844 628.488281 C 127.839844 793.554688 235.308594 933.4375 384.0625 982.214844 C 225.136719 823.828125 304.714844 711.519531 413.332031 531.050781" fill="#e01600"/></g><g id="change2_1"><path d="M 360.96875 796.105469 C 343.847656 876.667969 424.195312 1006.949219 526.667969 999.710938 C 461.78125 893.679688 590.300781 777.273438 667.589844 657.25 C 758.292969 513.507812 762.488281 304.183594 589.789062 164.875 C 626.050781 563.238281 407.03125 594.613281 360.96875 796.105469" fill="#ff6d00"/></g><g id="change3_1"><path d="M 835.53125 461.203125 C 813.808594 649.03125 748.476562 690.972656 620.882812 832.746094 C 576.492188 882.753906 532.230469 938.863281 571.449219 993.851562 C 790.800781 951.265625 946.269531 714.019531 835.53125 461.203125" fill="#ffae00"/></g></g></svg>