<?xml version="1.0" encoding="UTF-8" standalone="no"?><svg xmlns="http://www.w3.org/2000/svg" xmlns:xlink="http://www.w3.org/1999/xlink" fill="#ff6d00" height="114.3" preserveAspectRatio="xMidYMid meet" version="1" viewBox="-1.0 -1.0 367.8 114.3" width="367.8" zoomAndPan="magnify"><g id="change1_1"><path d="M9.891,113.2793c-2.4443,0-4.8927-0.8997-6.8062-2.7148c-3.9641-3.7606-4.1295-10.0222-0.3695-13.9868l37.8805-39.9378 L2.7152,16.7015c-3.76-3.9641-3.5945-10.2257,0.3695-13.9856c3.9647-3.76,10.2263-3.5939,13.9856,0.3695l44.3384,46.7464 c3.6205,3.8167,3.6205,9.7994,0,13.6167L17.0704,110.195C15.1255,112.2455,12.5104,113.2793,9.891,113.2793z M92.5133,110.195 l44.339-46.7464c3.6205-3.8173,3.6205-9.8,0-13.6167L92.5133,3.0854c-3.7594-3.9635-10.0204-4.1295-13.9856-0.3695 c-3.9641,3.76-4.1295,10.0216-0.3695,13.9856l37.8812,39.9384L78.1581,96.5776c-3.76,3.9647-3.5945,10.2263,0.3695,13.9868 c1.9135,1.8151,4.362,2.7148,6.8062,2.7148C87.9532,113.2793,90.5684,112.2455,92.5133,110.195z M167.9568,110.195l44.3396-46.7464 c3.6193-3.8173,3.6193-9.8,0-13.6167L167.9568,3.0854c-3.76-3.9635-10.021-4.1295-13.9856-0.3695 c-3.9641,3.76-4.1295,10.0216-0.3695,13.9856l37.8811,39.9384l-37.8811,39.9378c-3.76,3.9647-3.5945,10.2263,0.3695,13.9868 c1.9135,1.8151,4.362,2.7148,6.8062,2.7148C163.3967,113.2793,166.0119,112.2455,167.9568,110.195z M243.4015,110.195 l44.3384-46.7464c3.6193-3.8173,3.6193-9.8,0-13.6167L243.4015,3.0854c-3.7606-3.9635-10.021-4.1295-13.9869-0.3695 c-3.9635,3.76-4.1289,10.0216-0.3695,13.9856l37.8812,39.9384l-37.8812,39.9378c-3.7594,3.9647-3.5939,10.2263,0.3695,13.9868 c1.9141,1.8151,4.362,2.7148,6.8074,2.7148C238.8414,113.2793,241.456,112.2455,243.4015,110.195z M318.8438,110.195 l44.3396-46.7464c3.6193-3.8173,3.6193-9.8,0-13.6167L318.8438,3.0854c-3.7618-3.9659-10.0222-4.1295-13.9868-0.3695 c-3.9635,3.76-4.1289,10.0216-0.3695,13.9856l37.8824,39.9384l-37.8824,39.9378c-3.7594,3.9647-3.5939,10.2263,0.3695,13.9868 c1.9141,1.8151,4.362,2.7148,6.8074,2.7148C314.2837,113.2793,316.8983,112.2455,318.8438,110.195z" fill="inherit"/></g></svg>