<?xml version="1.0" encoding="UTF-8" standalone="no"?><svg xmlns="http://www.w3.org/2000/svg" xmlns:xlink="http://www.w3.org/1999/xlink" fill="#5500ab" height="203.1" preserveAspectRatio="xMidYMid meet" version="1" viewBox="19.1 176.0 488.1 203.1" width="488.1" zoomAndPan="magnify"><g id="change1_1"><path d="M 471.636719 234.75 C 459.878906 227.554688 439.097656 219.105469 431.898438 216.804688 C 425.023438 214.601562 421.640625 196.757812 355.851562 183.171875 C 351.929688 182.359375 353.605469 179.414062 349.378906 180.6875 C 345.144531 181.960938 343.582031 180.152344 341.035156 179.542969 C 326.027344 175.96875 286.734375 177.246094 271.324219 177.730469 C 166.324219 181.019531 19.09375 271.363281 82.71875 328.832031 C 106.105469 349.929688 148.078125 355.972656 180.703125 356.15625 C 216.3125 356.359375 282.382812 346.210938 306.878906 340.320312 C 354.148438 328.96875 323.625 338.921875 401.1875 319.878906 C 431.902344 312.324219 507.179688 283.703125 487.175781 251.300781 C 482.457031 243.648438 473.445312 235.855469 471.636719 234.75 Z M 426.027344 218.707031 C 426.855469 219.523438 433.117188 227.128906 432.546875 228.132812 C 432.015625 229.074219 429.246094 227.480469 428.351562 226.882812 C 414.152344 217.398438 397 212.929688 386.320312 209.902344 C 385.167969 209.578125 383.714844 210.160156 382.441406 208.5625 C 391.464844 209.625 419.605469 212.355469 426.027344 218.707031 Z M 329.351562 186.367188 C 337.609375 187.171875 339.386719 190.199219 348.550781 186.4375 C 356.6875 183.09375 416.449219 204.773438 414.949219 209.058594 C 414.699219 209.765625 413.855469 209.886719 413.265625 209.71875 C 411.644531 209.261719 260.460938 187.710938 173.351562 211.710938 C 173.28125 211.5 173.214844 211.296875 173.144531 211.085938 C 216.605469 192.738281 277.90625 181.382812 329.351562 186.367188 Z M 160.378906 211.457031 C 160.09375 213.242188 160.6875 212.769531 145.683594 219.855469 C 126.523438 228.902344 128.070312 228.679688 127.144531 228.332031 C 131.75 223.9375 152.230469 214.125 160.378906 211.457031 Z M 123.132812 235.878906 C 199.027344 189.773438 319.996094 203.105469 321.601562 203.707031 C 317.363281 208.109375 305.425781 205.953125 301.226562 208.300781 C 320.105469 209.648438 358.570312 197.382812 421.699219 227.152344 C 421.699219 227.152344 436.324219 237.21875 436.328125 237.21875 C 437.9375 238.554688 438.8125 240.136719 439.277344 242.101562 C 462.609375 341.539062 40.003906 379.0625 84.863281 277.191406 C 91.199219 262.824219 100.558594 249.597656 123.132812 235.878906 Z M 83.503906 270.492188 C 80.34375 282.257812 75.976562 283.8125 80.109375 303.980469 C 72.097656 294.878906 76.714844 272.832031 83.503906 270.492188 Z M 131.105469 347.554688 C 89.449219 337.449219 68.925781 313.65625 73.824219 302.128906 C 76.84375 306.144531 77.015625 314.625 97.636719 324.230469 C 135.734375 341.972656 163.503906 343.835938 223.175781 343.664062 C 251.792969 343.582031 251.984375 340.890625 266.511719 341.242188 C 272.054688 341.378906 294.835938 339.363281 298.414062 338.601562 C 299.210938 338.433594 300.050781 338.464844 300.816406 338.855469 C 300.773438 340.417969 189.175781 361.628906 131.105469 347.554688 Z M 307.953125 336.402344 C 304.269531 335.675781 284.214844 339.144531 281.386719 336.519531 C 338.722656 327.15625 446.105469 302.8125 443.925781 244.902344 C 450.472656 251.5625 452.597656 259.121094 451.242188 267.699219 C 446.9375 294.886719 380.019531 318.296875 351.550781 325.769531 C 307.511719 337.332031 310.496094 336.90625 307.953125 336.402344 Z M 348.574219 329.742188 C 348.167969 328.371094 349.636719 328.53125 350.425781 328.304688 C 376.175781 320.882812 424.671875 304.960938 442.710938 285.191406 C 468.035156 257.421875 445.074219 246.988281 440.53125 233.59375 C 439.757812 231.308594 434.445312 221.695312 433.402344 220.410156 C 433.21875 220.179688 433.222656 219.902344 433.414062 219.613281 C 434.914062 218.71875 480.539062 235.726562 487.183594 256.992188 C 500.78125 300.570312 349.765625 333.769531 348.574219 329.742188" fill="inherit"/></g></svg>